<ttFont>
<head>
    <!-- Most of this table will be recalculated by the compiler -->
    <tableVersion value="1.0"/>
    <fontRevision value="1.002"/>
    <checkSumAdjustment value="0x75db763a"/>
    <magicNumber value="0x5f0f3cf5"/>
    <flags value="00000000 00001111"/>
    <unitsPerEm value="1000"/>
    <created value="Sun Jun 13 08:13:04 2021"/>
    <modified value="Mon Jun 14 15:25:59 2021"/>
    <xMin value="-148"/>
    <yMin value="-265"/>
    <xMax value="1129"/>
    <yMax value="1211"/>
    <macStyle value="00000000 00000010"/>
    <lowestRecPPEM value="6"/>
    <fontDirectionHint value="2"/>
    <indexToLocFormat value="0"/>
    <glyphDataFormat value="0"/>
  </head>
    <TTGlyph name=".notdef" xMin="50" yMin="-265" xMax="450" yMax="1000">
      <contour>
        <pt x="50" y="-265" on="1"/>
        <pt x="50" y="1000" on="1"/>
        <pt x="450" y="1000" on="1"/>
        <pt x="450" y="-265" on="1"/>
      </contour>
      <contour>
        <pt x="100" y="-215" on="1"/>
        <pt x="400" y="-215" on="1"/>
        <pt x="400" y="950" on="1"/>
        <pt x="100" y="950" on="1"/>
      </contour>
    </TTGlyph>
    <TTGlyph name="A" xMin="-29" yMin="0" xMax="632" yMax="740">
      <contour>
        <pt x="-29" y="0" on="1"/>
        <pt x="387" y="740" on="1"/>
        <pt x="531" y="740" on="1"/>
        <pt x="632" y="0" on="1"/>
        <pt x="518" y="0" on="1"/>
        <pt x="496" y="166" on="1"/>
        <pt x="192" y="166" on="1"/>
        <pt x="100" y="0" on="1"/>
      </contour>
      <contour>
        <pt x="250" y="270" on="1"/>
        <pt x="483" y="270" on="1"/>
        <pt x="439" y="611" on="1"/>
      </contour>
    </TTGlyph>
    <TTGlyph name="AE" xMin="-29" yMin="0" xMax="1041" yMax="740">
      <contour>
        <pt x="-29" y="0" on="1"/>
        <pt x="494" y="740" on="1"/>
        <pt x="1041" y="740" on="1"/>
        <pt x="1020" y="638" on="1"/>
        <pt x="671" y="638" on="1"/>
        <pt x="626" y="427" on="1"/>
        <pt x="929" y="427" on="1"/>
        <pt x="908" y="326" on="1"/>
        <pt x="605" y="326" on="1"/>
        <pt x="557" y="102" on="1"/>
        <pt x="911" y="102" on="1"/>
        <pt x="889" y="0" on="1"/>
        <pt x="419" y="0" on="1"/>
        <pt x="454" y="166" on="1"/>
        <pt x="223" y="166" on="1"/>
        <pt x="105" y="0" on="1"/>
      </contour>
      <contour>
        <pt x="295" y="269" on="1"/>
        <pt x="476" y="269" on="1"/>
        <pt x="553" y="632" on="1"/>
      </contour>
    </TTGlyph>
    <TTGlyph name="Aacute" xMin="-29" yMin="0" xMax="639" yMax="999">
      <contour>
        <pt x="528" y="818" on="1"/>
        <pt x="439" y="819" on="1"/>
        <pt x="529" y="999" on="1"/>
        <pt x="639" y="999" on="1"/>
      </contour>
      <contour>
        <pt x="-29" y="0" on="1"/>
        <pt x="386" y="740" on="1"/>
        <pt x="531" y="740" on="1"/>
        <pt x="632" y="0" on="1"/>
        <pt x="517" y="0" on="1"/>
        <pt x="495" y="166" on="1"/>
        <pt x="192" y="166" on="1"/>
        <pt x="100" y="0" on="1"/>
      </contour>
      <contour>
        <pt x="249" y="270" on="1"/>
        <pt x="483" y="270" on="1"/>
        <pt x="439" y="611" on="1"/>
      </contour>
    </TTGlyph>
    <TTGlyph name="Abreve" xMin="-29" yMin="0" xMax="673" yMax="959">
      <contour>
        <pt x="489" y="812" on="1"/>
        <pt x="440" y="812" on="0"/>
        <pt x="381" y="842" on="0"/>
        <pt x="351" y="886" on="0"/>
        <pt x="340" y="930" on="0"/>
        <pt x="339" y="959" on="0"/>
        <pt x="339" y="959" on="1"/>
        <pt x="420" y="959" on="1"/>
        <pt x="420" y="959" on="0"/>
        <pt x="419" y="936" on="0"/>
        <pt x="429" y="906" on="0"/>
        <pt x="459" y="883" on="0"/>
        <pt x="490" y="883" on="1"/>
        <pt x="521" y="883" on="0"/>
        <pt x="561" y="906" on="0"/>
        <pt x="583" y="936" on="0"/>
        <pt x="592" y="959" on="0"/>
        <pt x="592" y="959" on="1"/>
        <pt x="673" y="959" on="1"/>
        <pt x="673" y="959" on="0"/>
        <pt x="665" y="930" on="0"/>
        <pt x="643" y="886" on="0"/>
        <pt x="602" y="842" on="0"/>
        <pt x="537" y="812" on="0"/>
      </contour>
      <contour>
        <pt x="-29" y="0" on="1"/>
        <pt x="386" y="740" on="1"/>
        <pt x="531" y="740" on="1"/>
        <pt x="632" y="0" on="1"/>
        <pt x="517" y="0" on="1"/>
        <pt x="495" y="166" on="1"/>
        <pt x="192" y="166" on="1"/>
        <pt x="100" y="0" on="1"/>
      </contour>
      <contour>
        <pt x="249" y="270" on="1"/>
        <pt x="483" y="270" on="1"/>
        <pt x="439" y="611" on="1"/>
      </contour>
    </TTGlyph>
    <TTGlyph name="Acircumflex" xMin="-29" yMin="0" xMax="637" yMax="962">
      <contour>
        <pt x="295" y="813" on="1"/>
        <pt x="451" y="962" on="1"/>
        <pt x="545" y="962" on="1"/>
        <pt x="637" y="813" on="1"/>
        <pt x="547" y="813" on="1"/>
        <pt x="491" y="905" on="1"/>
        <pt x="399" y="813" on="1"/>
      </contour>
      <contour>
        <pt x="-29" y="0" on="1"/>
        <pt x="386" y="740" on="1"/>
        <pt x="531" y="740" on="1"/>
        <pt x="632" y="0" on="1"/>
        <pt x="517" y="0" on="1"/>
        <pt x="495" y="166" on="1"/>
        <pt x="192" y="166" on="1"/>
        <pt x="100" y="0" on="1"/>
      </contour>
      <contour>
        <pt x="249" y="270" on="1"/>
        <pt x="483" y="270" on="1"/>
        <pt x="439" y="611" on="1"/>
      </contour>
    </TTGlyph>
    <TTGlyph name="Adieresis" xMin="-29" yMin="0" xMax="661" yMax="952">
      <contour>
        <pt x="591" y="814" on="1"/>
        <pt x="560" y="814" on="0"/>
        <pt x="521" y="855" on="0"/>
        <pt x="521" y="883" on="1"/>
        <pt x="521" y="912" on="0"/>
        <pt x="560" y="952" on="0"/>
        <pt x="591" y="952" on="1"/>
        <pt x="621" y="952" on="0"/>
        <pt x="661" y="912" on="0"/>
        <pt x="661" y="883" on="1"/>
        <pt x="661" y="854" on="0"/>
        <pt x="621" y="814" on="0"/>
      </contour>
      <contour>
        <pt x="389" y="814" on="1"/>
        <pt x="358" y="814" on="0"/>
        <pt x="319" y="855" on="0"/>
        <pt x="319" y="883" on="1"/>
        <pt x="319" y="912" on="0"/>
        <pt x="358" y="952" on="0"/>
        <pt x="389" y="952" on="1"/>
        <pt x="419" y="952" on="0"/>
        <pt x="459" y="912" on="0"/>
        <pt x="459" y="883" on="1"/>
        <pt x="459" y="854" on="0"/>
        <pt x="419" y="814" on="0"/>
      </contour>
      <contour>
        <pt x="-29" y="0" on="1"/>
        <pt x="386" y="740" on="1"/>
        <pt x="531" y="740" on="1"/>
        <pt x="632" y="0" on="1"/>
        <pt x="517" y="0" on="1"/>
        <pt x="495" y="166" on="1"/>
        <pt x="192" y="166" on="1"/>
        <pt x="100" y="0" on="1"/>
      </contour>
      <contour>
        <pt x="249" y="270" on="1"/>
        <pt x="483" y="270" on="1"/>
        <pt x="439" y="611" on="1"/>
      </contour>
    </TTGlyph>
    <TTGlyph name="Agrave" xMin="-29" yMin="0" xMax="632" yMax="999">
      <contour>
        <pt x="423" y="818" on="1"/>
        <pt x="336" y="999" on="1"/>
        <pt x="443" y="999" on="1"/>
        <pt x="510" y="819" on="1"/>
      </contour>
      <contour>
        <pt x="-29" y="0" on="1"/>
        <pt x="386" y="740" on="1"/>
        <pt x="531" y="740" on="1"/>
        <pt x="632" y="0" on="1"/>
        <pt x="517" y="0" on="1"/>
        <pt x="495" y="166" on="1"/>
        <pt x="192" y="166" on="1"/>
        <pt x="100" y="0" on="1"/>
      </contour>
      <contour>
        <pt x="249" y="270" on="1"/>
        <pt x="483" y="270" on="1"/>
        <pt x="439" y="611" on="1"/>
      </contour>
    </TTGlyph>
    <TTGlyph name="Amacron" xMin="-29" yMin="0" xMax="654" yMax="923">
      <contour>
        <pt x="326" y="845" on="1"/>
        <pt x="343" y="923" on="1"/>
        <pt x="654" y="923" on="1"/>
        <pt x="637" y="845" on="1"/>
      </contour>
      <contour>
        <pt x="-29" y="0" on="1"/>
        <pt x="386" y="740" on="1"/>
        <pt x="531" y="740" on="1"/>
        <pt x="632" y="0" on="1"/>
        <pt x="517" y="0" on="1"/>
        <pt x="495" y="166" on="1"/>
        <pt x="192" y="166" on="1"/>
        <pt x="100" y="0" on="1"/>
      </contour>
      <contour>
        <pt x="249" y="270" on="1"/>
        <pt x="483" y="270" on="1"/>
        <pt x="439" y="611" on="1"/>
      </contour>
    </TTGlyph>
    <TTGlyph name="Aogonek" xMin="-29" yMin="-172" xMax="632" yMax="740">
      <contour>
        <pt x="-29" y="0" on="1"/>
        <pt x="386" y="740" on="1"/>
        <pt x="531" y="740" on="1"/>
        <pt x="632" y="0" on="1"/>
        <pt x="586" y="0" on="1"/>
        <pt x="586" y="0" on="0"/>
        <pt x="566" y="-9" on="0"/>
        <pt x="539" y="-27" on="0"/>
        <pt x="518" y="-53" on="0"/>
        <pt x="518" y="-70" on="1"/>
        <pt x="518" y="-85" on="0"/>
        <pt x="542" y="-104" on="0"/>
        <pt x="567" y="-104" on="1"/>
        <pt x="580" y="-104" on="0"/>
        <pt x="603" y="-100" on="0"/>
        <pt x="603" y="-100" on="1"/>
        <pt x="589" y="-167" on="1"/>
        <pt x="589" y="-167" on="0"/>
        <pt x="562" y="-172" on="0"/>
        <pt x="540" y="-172" on="1"/>
        <pt x="487" y="-172" on="0"/>
        <pt x="432" y="-128" on="0"/>
        <pt x="432" y="-92" on="1"/>
        <pt x="432" y="-64" on="0"/>
        <pt x="459" y="-24" on="0"/>
        <pt x="498" y="2" on="0"/>
        <pt x="516" y="9" on="1"/>
        <pt x="495" y="166" on="1"/>
        <pt x="192" y="166" on="1"/>
        <pt x="100" y="0" on="1"/>
      </contour>
      <contour>
        <pt x="249" y="270" on="1"/>
        <pt x="483" y="270" on="1"/>
        <pt x="439" y="611" on="1"/>
      </contour>
    </TTGlyph>
    <TTGlyph name="Aring" xMin="-29" yMin="0" xMax="632" yMax="1068">
      <contour>
        <pt x="468" y="807" on="1"/>
        <pt x="432" y="807" on="0"/>
        <pt x="372" y="842" on="0"/>
        <pt x="336" y="902" on="0"/>
        <pt x="336" y="938" on="1"/>
        <pt x="336" y="974" on="0"/>
        <pt x="372" y="1033" on="0"/>
        <pt x="432" y="1068" on="0"/>
        <pt x="468" y="1068" on="1"/>
        <pt x="504" y="1068" on="0"/>
        <pt x="563" y="1033" on="0"/>
        <pt x="598" y="974" on="0"/>
        <pt x="598" y="938" on="1"/>
        <pt x="598" y="902" on="0"/>
        <pt x="563" y="842" on="0"/>
        <pt x="504" y="807" on="0"/>
      </contour>
      <contour>
        <pt x="468" y="880" on="1"/>
        <pt x="492" y="880" on="0"/>
        <pt x="526" y="914" on="0"/>
        <pt x="526" y="938" on="1"/>
        <pt x="526" y="962" on="0"/>
        <pt x="492" y="996" on="0"/>
        <pt x="468" y="996" on="1"/>
        <pt x="443" y="996" on="0"/>
        <pt x="409" y="962" on="0"/>
        <pt x="409" y="938" on="1"/>
        <pt x="409" y="914" on="0"/>
        <pt x="443" y="880" on="0"/>
      </contour>
      <contour>
        <pt x="-29" y="0" on="1"/>
        <pt x="386" y="740" on="1"/>
        <pt x="531" y="740" on="1"/>
        <pt x="632" y="0" on="1"/>
        <pt x="517" y="0" on="1"/>
        <pt x="495" y="166" on="1"/>
        <pt x="192" y="166" on="1"/>
        <pt x="100" y="0" on="1"/>
      </contour>
      <contour>
        <pt x="249" y="270" on="1"/>
        <pt x="483" y="270" on="1"/>
        <pt x="439" y="611" on="1"/>
      </contour>
    </TTGlyph>
    <TTGlyph name="Atilde" xMin="-29" yMin="0" xMax="668" yMax="968">
      <contour>
        <pt x="559" y="825" on="1"/>
        <pt x="533" y="825" on="0"/>
        <pt x="497" y="846" on="0"/>
        <pt x="469" y="873" on="0"/>
        <pt x="445" y="894" on="0"/>
        <pt x="431" y="894" on="1"/>
        <pt x="415" y="894" on="0"/>
        <pt x="396" y="861" on="0"/>
        <pt x="390" y="831" on="1"/>
        <pt x="322" y="831" on="1"/>
        <pt x="334" y="890" on="0"/>
        <pt x="381" y="968" on="0"/>
        <pt x="432" y="968" on="1"/>
        <pt x="459" y="968" on="0"/>
        <pt x="496" y="948" on="0"/>
        <pt x="523" y="921" on="0"/>
        <pt x="547" y="901" on="0"/>
        <pt x="561" y="901" on="1"/>
        <pt x="577" y="901" on="0"/>
        <pt x="595" y="933" on="0"/>
        <pt x="600" y="963" on="1"/>
        <pt x="668" y="963" on="1"/>
        <pt x="657" y="904" on="0"/>
        <pt x="610" y="825" on="0"/>
      </contour>
      <contour>
        <pt x="-29" y="0" on="1"/>
        <pt x="386" y="740" on="1"/>
        <pt x="531" y="740" on="1"/>
        <pt x="632" y="0" on="1"/>
        <pt x="517" y="0" on="1"/>
        <pt x="495" y="166" on="1"/>
        <pt x="192" y="166" on="1"/>
        <pt x="100" y="0" on="1"/>
      </contour>
      <contour>
        <pt x="249" y="270" on="1"/>
        <pt x="483" y="270" on="1"/>
        <pt x="439" y="611" on="1"/>
      </contour>
    </TTGlyph>
    <TTGlyph name="B" xMin="24" yMin="0" xMax="653" yMax="740">
      <contour>
        <pt x="24" y="0" on="1"/>
        <pt x="181" y="740" on="1"/>
        <pt x="459" y="740" on="1"/>
        <pt x="526" y="740" on="0"/>
        <pt x="611" y="692" on="0"/>
        <pt x="653" y="617" on="0"/>
        <pt x="653" y="574" on="1"/>
        <pt x="653" y="518" on="0"/>
        <pt x="584" y="414" on="0"/>
        <pt x="520" y="392" on="1"/>
        <pt x="519" y="386" on="1"/>
        <pt x="572" y="369" on="0"/>
        <pt x="623" y="289" on="0"/>
        <pt x="623" y="241" on="1"/>
        <pt x="623" y="199" on="0"/>
        <pt x="587" y="114" on="0"/>
        <pt x="517" y="43" on="0"/>
        <pt x="415" y="0" on="0"/>
        <pt x="350" y="0" on="1"/>
      </contour>
      <contour>
        <pt x="441" y="640" on="1"/>
        <pt x="276" y="640" on="1"/>
        <pt x="231" y="426" on="1"/>
        <pt x="398" y="426" on="1"/>
        <pt x="443" y="426" on="0"/>
        <pt x="506" y="464" on="0"/>
        <pt x="538" y="522" on="0"/>
        <pt x="538" y="552" on="1"/>
        <pt x="538" y="587" on="0"/>
        <pt x="491" y="640" on="0"/>
      </contour>
      <contour>
        <pt x="385" y="334" on="1"/>
        <pt x="211" y="334" on="1"/>
        <pt x="162" y="100" on="1"/>
        <pt x="354" y="100" on="1"/>
        <pt x="401" y="100" on="0"/>
        <pt x="469" y="141" on="0"/>
        <pt x="505" y="205" on="0"/>
        <pt x="505" y="237" on="1"/>
        <pt x="505" y="275" on="0"/>
        <pt x="448" y="334" on="0"/>
      </contour>
    </TTGlyph>
    <TTGlyph name="C" xMin="57" yMin="-10" xMax="743" yMax="750">
      <contour>
        <pt x="367" y="-10" on="1"/>
        <pt x="287" y="-10" on="0"/>
        <pt x="170" y="43" on="0"/>
        <pt x="94" y="134" on="0"/>
        <pt x="57" y="251" on="0"/>
        <pt x="57" y="316" on="1"/>
        <pt x="57" y="393" on="0"/>
        <pt x="109" y="546" on="0"/>
        <pt x="210" y="673" on="0"/>
        <pt x="361" y="750" on="0"/>
        <pt x="460" y="750" on="1"/>
        <pt x="532" y="750" on="0"/>
        <pt x="631" y="712" on="0"/>
        <pt x="693" y="653" on="0"/>
        <pt x="727" y="586" on="0"/>
        <pt x="740" y="527" on="0"/>
        <pt x="743" y="489" on="0"/>
        <pt x="743" y="489" on="1"/>
        <pt x="626" y="489" on="1"/>
        <pt x="626" y="489" on="0"/>
        <pt x="624" y="521" on="0"/>
        <pt x="609" y="567" on="0"/>
        <pt x="573" y="614" on="0"/>
        <pt x="507" y="646" on="0"/>
        <pt x="454" y="646" on="1"/>
        <pt x="386" y="646" on="0"/>
        <pt x="282" y="589" on="0"/>
        <pt x="211" y="495" on="0"/>
        <pt x="175" y="381" on="0"/>
        <pt x="175" y="325" on="1"/>
        <pt x="175" y="264" on="0"/>
        <pt x="218" y="160" on="0"/>
        <pt x="306" y="95" on="0"/>
        <pt x="376" y="95" on="1"/>
        <pt x="426" y="95" on="0"/>
        <pt x="500" y="127" on="0"/>
        <pt x="549" y="173" on="0"/>
        <pt x="578" y="220" on="0"/>
        <pt x="590" y="251" on="0"/>
        <pt x="590" y="251" on="1"/>
        <pt x="708" y="251" on="1"/>
        <pt x="708" y="251" on="0"/>
        <pt x="696" y="213" on="0"/>
        <pt x="667" y="154" on="0"/>
        <pt x="618" y="87" on="0"/>
        <pt x="542" y="28" on="0"/>
        <pt x="437" y="-10" on="0"/>
      </contour>
    </TTGlyph>
    <TTGlyph name="Cacute" xMin="57" yMin="-10" xMax="743" yMax="998">
      <contour>
        <pt x="551" y="817" on="1"/>
        <pt x="462" y="818" on="1"/>
        <pt x="552" y="998" on="1"/>
        <pt x="662" y="998" on="1"/>
      </contour>
      <contour>
        <pt x="367" y="-10" on="1"/>
        <pt x="287" y="-10" on="0"/>
        <pt x="170" y="43" on="0"/>
        <pt x="94" y="134" on="0"/>
        <pt x="57" y="251" on="0"/>
        <pt x="57" y="316" on="1"/>
        <pt x="57" y="393" on="0"/>
        <pt x="109" y="546" on="0"/>
        <pt x="210" y="673" on="0"/>
        <pt x="361" y="750" on="0"/>
        <pt x="460" y="750" on="1"/>
        <pt x="532" y="750" on="0"/>
        <pt x="631" y="712" on="0"/>
        <pt x="693" y="653" on="0"/>
        <pt x="727" y="586" on="0"/>
        <pt x="740" y="527" on="0"/>
        <pt x="743" y="489" on="0"/>
        <pt x="743" y="489" on="1"/>
        <pt x="626" y="489" on="1"/>
        <pt x="626" y="489" on="0"/>
        <pt x="624" y="521" on="0"/>
        <pt x="609" y="567" on="0"/>
        <pt x="573" y="614" on="0"/>
        <pt x="507" y="646" on="0"/>
        <pt x="454" y="646" on="1"/>
        <pt x="386" y="646" on="0"/>
        <pt x="282" y="589" on="0"/>
        <pt x="211" y="495" on="0"/>
        <pt x="175" y="381" on="0"/>
        <pt x="175" y="325" on="1"/>
        <pt x="175" y="264" on="0"/>
        <pt x="218" y="160" on="0"/>
        <pt x="306" y="95" on="0"/>
        <pt x="376" y="95" on="1"/>
        <pt x="426" y="95" on="0"/>
        <pt x="500" y="127" on="0"/>
        <pt x="549" y="173" on="0"/>
        <pt x="578" y="220" on="0"/>
        <pt x="590" y="251" on="0"/>
        <pt x="590" y="251" on="1"/>
        <pt x="708" y="251" on="1"/>
        <pt x="708" y="251" on="0"/>
        <pt x="696" y="213" on="0"/>
        <pt x="667" y="154" on="0"/>
        <pt x="618" y="87" on="0"/>
        <pt x="542" y="28" on="0"/>
        <pt x="437" y="-10" on="0"/>
      </contour>
    </TTGlyph>
    <TTGlyph name="Ccaron" xMin="57" yMin="-10" xMax="743" yMax="983">
      <contour>
        <pt x="448" y="812" on="1"/>
        <pt x="360" y="983" on="1"/>
        <pt x="451" y="983" on="1"/>
        <pt x="502" y="877" on="1"/>
        <pt x="598" y="983" on="1"/>
        <pt x="702" y="983" on="1"/>
        <pt x="542" y="812" on="1"/>
      </contour>
      <contour>
        <pt x="367" y="-10" on="1"/>
        <pt x="287" y="-10" on="0"/>
        <pt x="170" y="43" on="0"/>
        <pt x="94" y="134" on="0"/>
        <pt x="57" y="251" on="0"/>
        <pt x="57" y="316" on="1"/>
        <pt x="57" y="393" on="0"/>
        <pt x="109" y="546" on="0"/>
        <pt x="210" y="673" on="0"/>
        <pt x="361" y="750" on="0"/>
        <pt x="460" y="750" on="1"/>
        <pt x="532" y="750" on="0"/>
        <pt x="631" y="712" on="0"/>
        <pt x="693" y="653" on="0"/>
        <pt x="727" y="586" on="0"/>
        <pt x="740" y="527" on="0"/>
        <pt x="743" y="489" on="0"/>
        <pt x="743" y="489" on="1"/>
        <pt x="626" y="489" on="1"/>
        <pt x="626" y="489" on="0"/>
        <pt x="624" y="521" on="0"/>
        <pt x="609" y="567" on="0"/>
        <pt x="573" y="614" on="0"/>
        <pt x="507" y="646" on="0"/>
        <pt x="454" y="646" on="1"/>
        <pt x="386" y="646" on="0"/>
        <pt x="282" y="589" on="0"/>
        <pt x="211" y="495" on="0"/>
        <pt x="175" y="381" on="0"/>
        <pt x="175" y="325" on="1"/>
        <pt x="175" y="264" on="0"/>
        <pt x="218" y="160" on="0"/>
        <pt x="306" y="95" on="0"/>
        <pt x="376" y="95" on="1"/>
        <pt x="426" y="95" on="0"/>
        <pt x="500" y="127" on="0"/>
        <pt x="549" y="173" on="0"/>
        <pt x="578" y="220" on="0"/>
        <pt x="590" y="251" on="0"/>
        <pt x="590" y="251" on="1"/>
        <pt x="708" y="251" on="1"/>
        <pt x="708" y="251" on="0"/>
        <pt x="696" y="213" on="0"/>
        <pt x="667" y="154" on="0"/>
        <pt x="618" y="87" on="0"/>
        <pt x="542" y="28" on="0"/>
        <pt x="437" y="-10" on="0"/>
      </contour>
    </TTGlyph>
    <TTGlyph name="Ccedilla" xMin="57" yMin="-261" xMax="743" yMax="750">
      <contour>
        <pt x="288" y="-261" on="1"/>
        <pt x="256" y="-261" on="0"/>
        <pt x="207" y="-250" on="0"/>
        <pt x="207" y="-250" on="1"/>
        <pt x="218" y="-186" on="1"/>
        <pt x="218" y="-186" on="0"/>
        <pt x="241" y="-190" on="0"/>
        <pt x="275" y="-195" on="0"/>
        <pt x="289" y="-195" on="1"/>
        <pt x="328" y="-195" on="0"/>
        <pt x="357" y="-165" on="0"/>
        <pt x="357" y="-148" on="1"/>
        <pt x="357" y="-132" on="0"/>
        <pt x="332" y="-108" on="0"/>
        <pt x="306" y="-108" on="1"/>
        <pt x="285" y="-108" on="0"/>
        <pt x="259" y="-122" on="0"/>
        <pt x="259" y="-122" on="1"/>
        <pt x="228" y="-82" on="1"/>
        <pt x="296" y="-4" on="1"/>
        <pt x="214" y="12" on="0"/>
        <pt x="108" y="106" on="0"/>
        <pt x="57" y="240" on="0"/>
        <pt x="57" y="316" on="1"/>
        <pt x="57" y="393" on="0"/>
        <pt x="109" y="546" on="0"/>
        <pt x="210" y="673" on="0"/>
        <pt x="361" y="750" on="0"/>
        <pt x="460" y="750" on="1"/>
        <pt x="532" y="750" on="0"/>
        <pt x="631" y="712" on="0"/>
        <pt x="693" y="653" on="0"/>
        <pt x="727" y="586" on="0"/>
        <pt x="740" y="527" on="0"/>
        <pt x="743" y="489" on="0"/>
        <pt x="743" y="489" on="1"/>
        <pt x="626" y="489" on="1"/>
        <pt x="626" y="489" on="0"/>
        <pt x="624" y="521" on="0"/>
        <pt x="609" y="567" on="0"/>
        <pt x="573" y="614" on="0"/>
        <pt x="507" y="646" on="0"/>
        <pt x="454" y="646" on="1"/>
        <pt x="386" y="646" on="0"/>
        <pt x="282" y="589" on="0"/>
        <pt x="211" y="495" on="0"/>
        <pt x="175" y="381" on="0"/>
        <pt x="175" y="325" on="1"/>
        <pt x="175" y="264" on="0"/>
        <pt x="218" y="160" on="0"/>
        <pt x="306" y="95" on="0"/>
        <pt x="376" y="95" on="1"/>
        <pt x="426" y="95" on="0"/>
        <pt x="500" y="127" on="0"/>
        <pt x="549" y="173" on="0"/>
        <pt x="578" y="220" on="0"/>
        <pt x="590" y="251" on="0"/>
        <pt x="590" y="251" on="1"/>
        <pt x="708" y="251" on="1"/>
        <pt x="708" y="251" on="0"/>
        <pt x="696" y="213" on="0"/>
        <pt x="668" y="154" on="0"/>
        <pt x="618" y="87" on="0"/>
        <pt x="544" y="28" on="0"/>
        <pt x="440" y="-10" on="0"/>
        <pt x="371" y="-10" on="1"/>
        <pt x="332" y="-54" on="1"/>
        <pt x="337" y="-54" on="1"/>
        <pt x="387" y="-54" on="0"/>
        <pt x="440" y="-110" on="0"/>
        <pt x="440" y="-147" on="1"/>
        <pt x="440" y="-175" on="0"/>
        <pt x="409" y="-227" on="0"/>
        <pt x="342" y="-261" on="0"/>
      </contour>
    </TTGlyph>
    <TTGlyph name="Cdotaccent" xMin="57" yMin="-10" xMax="743" yMax="967">
      <contour>
        <pt x="516" y="827" on="1"/>
        <pt x="485" y="827" on="0"/>
        <pt x="445" y="868" on="0"/>
        <pt x="445" y="897" on="1"/>
        <pt x="445" y="926" on="0"/>
        <pt x="485" y="967" on="0"/>
        <pt x="516" y="967" on="1"/>
        <pt x="546" y="967" on="0"/>
        <pt x="587" y="926" on="0"/>
        <pt x="587" y="897" on="1"/>
        <pt x="587" y="868" on="0"/>
        <pt x="546" y="827" on="0"/>
      </contour>
      <contour>
        <pt x="367" y="-10" on="1"/>
        <pt x="287" y="-10" on="0"/>
        <pt x="170" y="43" on="0"/>
        <pt x="94" y="134" on="0"/>
        <pt x="57" y="251" on="0"/>
        <pt x="57" y="316" on="1"/>
        <pt x="57" y="393" on="0"/>
        <pt x="109" y="546" on="0"/>
        <pt x="210" y="673" on="0"/>
        <pt x="361" y="750" on="0"/>
        <pt x="460" y="750" on="1"/>
        <pt x="532" y="750" on="0"/>
        <pt x="631" y="712" on="0"/>
        <pt x="693" y="653" on="0"/>
        <pt x="727" y="586" on="0"/>
        <pt x="740" y="527" on="0"/>
        <pt x="743" y="489" on="0"/>
        <pt x="743" y="489" on="1"/>
        <pt x="626" y="489" on="1"/>
        <pt x="626" y="489" on="0"/>
        <pt x="624" y="521" on="0"/>
        <pt x="609" y="567" on="0"/>
        <pt x="573" y="614" on="0"/>
        <pt x="507" y="646" on="0"/>
        <pt x="454" y="646" on="1"/>
        <pt x="386" y="646" on="0"/>
        <pt x="282" y="589" on="0"/>
        <pt x="211" y="495" on="0"/>
        <pt x="175" y="381" on="0"/>
        <pt x="175" y="325" on="1"/>
        <pt x="175" y="264" on="0"/>
        <pt x="218" y="160" on="0"/>
        <pt x="306" y="95" on="0"/>
        <pt x="376" y="95" on="1"/>
        <pt x="426" y="95" on="0"/>
        <pt x="500" y="127" on="0"/>
        <pt x="549" y="173" on="0"/>
        <pt x="578" y="220" on="0"/>
        <pt x="590" y="251" on="0"/>
        <pt x="590" y="251" on="1"/>
        <pt x="708" y="251" on="1"/>
        <pt x="708" y="251" on="0"/>
        <pt x="696" y="213" on="0"/>
        <pt x="667" y="154" on="0"/>
        <pt x="618" y="87" on="0"/>
        <pt x="542" y="28" on="0"/>
        <pt x="437" y="-10" on="0"/>
      </contour>
    </TTGlyph>
    <TTGlyph name="D" xMin="24" yMin="0" xMax="692" yMax="740">
      <contour>
        <pt x="24" y="0" on="1"/>
        <pt x="181" y="740" on="1"/>
        <pt x="374" y="740" on="1"/>
        <pt x="456" y="740" on="0"/>
        <pt x="576" y="689" on="0"/>
        <pt x="654" y="601" on="0"/>
        <pt x="692" y="488" on="0"/>
        <pt x="692" y="426" on="1"/>
        <pt x="692" y="350" on="0"/>
        <pt x="637" y="200" on="0"/>
        <pt x="529" y="75" on="0"/>
        <pt x="371" y="0" on="0"/>
        <pt x="269" y="0" on="1"/>
      </contour>
      <contour>
        <pt x="362" y="638" on="1"/>
        <pt x="276" y="638" on="1"/>
        <pt x="162" y="103" on="1"/>
        <pt x="276" y="103" on="1"/>
        <pt x="347" y="103" on="0"/>
        <pt x="458" y="159" on="0"/>
        <pt x="535" y="252" on="0"/>
        <pt x="575" y="364" on="0"/>
        <pt x="575" y="420" on="1"/>
        <pt x="575" y="477" on="0"/>
        <pt x="530" y="577" on="0"/>
        <pt x="435" y="638" on="0"/>
      </contour>
    </TTGlyph>
    <TTGlyph name="Dcaron" xMin="24" yMin="0" xMax="692" yMax="983">
      <contour>
        <pt x="380" y="812" on="1"/>
        <pt x="292" y="983" on="1"/>
        <pt x="383" y="983" on="1"/>
        <pt x="434" y="877" on="1"/>
        <pt x="531" y="983" on="1"/>
        <pt x="634" y="983" on="1"/>
        <pt x="474" y="812" on="1"/>
      </contour>
      <contour>
        <pt x="24" y="0" on="1"/>
        <pt x="181" y="740" on="1"/>
        <pt x="374" y="740" on="1"/>
        <pt x="456" y="740" on="0"/>
        <pt x="576" y="689" on="0"/>
        <pt x="654" y="601" on="0"/>
        <pt x="692" y="488" on="0"/>
        <pt x="692" y="426" on="1"/>
        <pt x="692" y="350" on="0"/>
        <pt x="637" y="200" on="0"/>
        <pt x="529" y="75" on="0"/>
        <pt x="371" y="0" on="0"/>
        <pt x="269" y="0" on="1"/>
      </contour>
      <contour>
        <pt x="362" y="638" on="1"/>
        <pt x="276" y="638" on="1"/>
        <pt x="162" y="103" on="1"/>
        <pt x="276" y="103" on="1"/>
        <pt x="347" y="103" on="0"/>
        <pt x="458" y="159" on="0"/>
        <pt x="535" y="252" on="0"/>
        <pt x="575" y="364" on="0"/>
        <pt x="575" y="420" on="1"/>
        <pt x="575" y="477" on="0"/>
        <pt x="530" y="577" on="0"/>
        <pt x="435" y="638" on="0"/>
      </contour>
    </TTGlyph>
    <TTGlyph name="Dcroat" xMin="31" yMin="0" xMax="735" yMax="740">
      <contour>
        <pt x="67" y="0" on="1"/>
        <pt x="135" y="322" on="1"/>
        <pt x="31" y="322" on="1"/>
        <pt x="51" y="420" on="1"/>
        <pt x="156" y="420" on="1"/>
        <pt x="224" y="740" on="1"/>
        <pt x="418" y="740" on="1"/>
        <pt x="499" y="740" on="0"/>
        <pt x="619" y="689" on="0"/>
        <pt x="697" y="601" on="0"/>
        <pt x="735" y="488" on="0"/>
        <pt x="735" y="426" on="1"/>
        <pt x="735" y="350" on="0"/>
        <pt x="680" y="200" on="0"/>
        <pt x="572" y="75" on="0"/>
        <pt x="415" y="0" on="0"/>
        <pt x="313" y="0" on="1"/>
      </contour>
      <contour>
        <pt x="392" y="322" on="1"/>
        <pt x="252" y="322" on="1"/>
        <pt x="205" y="103" on="1"/>
        <pt x="319" y="103" on="1"/>
        <pt x="390" y="103" on="0"/>
        <pt x="502" y="159" on="0"/>
        <pt x="578" y="252" on="0"/>
        <pt x="618" y="364" on="0"/>
        <pt x="618" y="420" on="1"/>
        <pt x="618" y="477" on="0"/>
        <pt x="573" y="577" on="0"/>
        <pt x="478" y="638" on="0"/>
        <pt x="405" y="638" on="1"/>
        <pt x="319" y="638" on="1"/>
        <pt x="273" y="420" on="1"/>
        <pt x="413" y="420" on="1"/>
      </contour>
    </TTGlyph>
    <TTGlyph name="E" xMin="24" yMin="0" xMax="648" yMax="740">
      <contour>
        <pt x="24" y="0" on="1"/>
        <pt x="181" y="740" on="1"/>
        <pt x="648" y="740" on="1"/>
        <pt x="627" y="638" on="1"/>
        <pt x="276" y="638" on="1"/>
        <pt x="231" y="427" on="1"/>
        <pt x="536" y="427" on="1"/>
        <pt x="515" y="326" on="1"/>
        <pt x="210" y="326" on="1"/>
        <pt x="162" y="102" on="1"/>
        <pt x="518" y="102" on="1"/>
        <pt x="496" y="0" on="1"/>
      </contour>
    </TTGlyph>
    <TTGlyph name="Eacute" xMin="24" yMin="0" xMax="646" yMax="999">
      <contour>
        <pt x="478" y="818" on="1"/>
        <pt x="389" y="819" on="1"/>
        <pt x="479" y="999" on="1"/>
        <pt x="589" y="999" on="1"/>
      </contour>
      <contour>
        <pt x="24" y="0" on="1"/>
        <pt x="181" y="740" on="1"/>
        <pt x="646" y="740" on="1"/>
        <pt x="625" y="638" on="1"/>
        <pt x="276" y="638" on="1"/>
        <pt x="231" y="427" on="1"/>
        <pt x="534" y="427" on="1"/>
        <pt x="513" y="326" on="1"/>
        <pt x="210" y="326" on="1"/>
        <pt x="162" y="102" on="1"/>
        <pt x="516" y="102" on="1"/>
        <pt x="494" y="0" on="1"/>
      </contour>
    </TTGlyph>
    <TTGlyph name="Ecaron" xMin="24" yMin="0" xMax="646" yMax="983">
      <contour>
        <pt x="375" y="812" on="1"/>
        <pt x="287" y="983" on="1"/>
        <pt x="378" y="983" on="1"/>
        <pt x="429" y="877" on="1"/>
        <pt x="526" y="983" on="1"/>
        <pt x="629" y="983" on="1"/>
        <pt x="469" y="812" on="1"/>
      </contour>
      <contour>
        <pt x="24" y="0" on="1"/>
        <pt x="181" y="740" on="1"/>
        <pt x="646" y="740" on="1"/>
        <pt x="625" y="638" on="1"/>
        <pt x="276" y="638" on="1"/>
        <pt x="231" y="427" on="1"/>
        <pt x="534" y="427" on="1"/>
        <pt x="513" y="326" on="1"/>
        <pt x="210" y="326" on="1"/>
        <pt x="162" y="102" on="1"/>
        <pt x="516" y="102" on="1"/>
        <pt x="494" y="0" on="1"/>
      </contour>
    </TTGlyph>
    <TTGlyph name="Ecircumflex" xMin="24" yMin="0" xMax="646" yMax="962">
      <contour>
        <pt x="245" y="813" on="1"/>
        <pt x="400" y="962" on="1"/>
        <pt x="495" y="962" on="1"/>
        <pt x="587" y="813" on="1"/>
        <pt x="496" y="813" on="1"/>
        <pt x="441" y="905" on="1"/>
        <pt x="348" y="813" on="1"/>
      </contour>
      <contour>
        <pt x="24" y="0" on="1"/>
        <pt x="181" y="740" on="1"/>
        <pt x="646" y="740" on="1"/>
        <pt x="625" y="638" on="1"/>
        <pt x="276" y="638" on="1"/>
        <pt x="231" y="427" on="1"/>
        <pt x="534" y="427" on="1"/>
        <pt x="513" y="326" on="1"/>
        <pt x="210" y="326" on="1"/>
        <pt x="162" y="102" on="1"/>
        <pt x="516" y="102" on="1"/>
        <pt x="494" y="0" on="1"/>
      </contour>
    </TTGlyph>
    <TTGlyph name="Edieresis" xMin="24" yMin="0" xMax="646" yMax="952">
      <contour>
        <pt x="540" y="814" on="1"/>
        <pt x="510" y="814" on="0"/>
        <pt x="471" y="855" on="0"/>
        <pt x="471" y="883" on="1"/>
        <pt x="471" y="912" on="0"/>
        <pt x="510" y="952" on="0"/>
        <pt x="540" y="952" on="1"/>
        <pt x="570" y="952" on="0"/>
        <pt x="610" y="912" on="0"/>
        <pt x="610" y="883" on="1"/>
        <pt x="610" y="854" on="0"/>
        <pt x="570" y="814" on="0"/>
      </contour>
      <contour>
        <pt x="338" y="814" on="1"/>
        <pt x="308" y="814" on="0"/>
        <pt x="269" y="855" on="0"/>
        <pt x="269" y="883" on="1"/>
        <pt x="269" y="912" on="0"/>
        <pt x="308" y="952" on="0"/>
        <pt x="338" y="952" on="1"/>
        <pt x="368" y="952" on="0"/>
        <pt x="408" y="912" on="0"/>
        <pt x="408" y="883" on="1"/>
        <pt x="408" y="854" on="0"/>
        <pt x="368" y="814" on="0"/>
      </contour>
      <contour>
        <pt x="24" y="0" on="1"/>
        <pt x="181" y="740" on="1"/>
        <pt x="646" y="740" on="1"/>
        <pt x="625" y="638" on="1"/>
        <pt x="276" y="638" on="1"/>
        <pt x="231" y="427" on="1"/>
        <pt x="534" y="427" on="1"/>
        <pt x="513" y="326" on="1"/>
        <pt x="210" y="326" on="1"/>
        <pt x="162" y="102" on="1"/>
        <pt x="516" y="102" on="1"/>
        <pt x="494" y="0" on="1"/>
      </contour>
    </TTGlyph>
    <TTGlyph name="Edotaccent" xMin="24" yMin="0" xMax="646" yMax="967">
      <contour>
        <pt x="443" y="827" on="1"/>
        <pt x="412" y="827" on="0"/>
        <pt x="372" y="869" on="0"/>
        <pt x="372" y="897" on="1"/>
        <pt x="372" y="926" on="0"/>
        <pt x="412" y="967" on="0"/>
        <pt x="443" y="967" on="1"/>
        <pt x="474" y="967" on="0"/>
        <pt x="514" y="926" on="0"/>
        <pt x="514" y="897" on="1"/>
        <pt x="514" y="868" on="0"/>
        <pt x="474" y="827" on="0"/>
      </contour>
      <contour>
        <pt x="24" y="0" on="1"/>
        <pt x="181" y="740" on="1"/>
        <pt x="646" y="740" on="1"/>
        <pt x="625" y="638" on="1"/>
        <pt x="276" y="638" on="1"/>
        <pt x="231" y="427" on="1"/>
        <pt x="534" y="427" on="1"/>
        <pt x="513" y="326" on="1"/>
        <pt x="210" y="326" on="1"/>
        <pt x="162" y="102" on="1"/>
        <pt x="516" y="102" on="1"/>
        <pt x="494" y="0" on="1"/>
      </contour>
    </TTGlyph>
    <TTGlyph name="Egrave" xMin="24" yMin="0" xMax="646" yMax="999">
      <contour>
        <pt x="373" y="818" on="1"/>
        <pt x="286" y="999" on="1"/>
        <pt x="393" y="999" on="1"/>
        <pt x="459" y="819" on="1"/>
      </contour>
      <contour>
        <pt x="24" y="0" on="1"/>
        <pt x="181" y="740" on="1"/>
        <pt x="646" y="740" on="1"/>
        <pt x="625" y="638" on="1"/>
        <pt x="276" y="638" on="1"/>
        <pt x="231" y="427" on="1"/>
        <pt x="534" y="427" on="1"/>
        <pt x="513" y="326" on="1"/>
        <pt x="210" y="326" on="1"/>
        <pt x="162" y="102" on="1"/>
        <pt x="516" y="102" on="1"/>
        <pt x="494" y="0" on="1"/>
      </contour>
    </TTGlyph>
    <TTGlyph name="Emacron" xMin="24" yMin="0" xMax="646" yMax="923">
      <contour>
        <pt x="275" y="845" on="1"/>
        <pt x="293" y="923" on="1"/>
        <pt x="604" y="923" on="1"/>
        <pt x="587" y="845" on="1"/>
      </contour>
      <contour>
        <pt x="24" y="0" on="1"/>
        <pt x="181" y="740" on="1"/>
        <pt x="646" y="740" on="1"/>
        <pt x="625" y="638" on="1"/>
        <pt x="276" y="638" on="1"/>
        <pt x="231" y="427" on="1"/>
        <pt x="534" y="427" on="1"/>
        <pt x="513" y="326" on="1"/>
        <pt x="210" y="326" on="1"/>
        <pt x="162" y="102" on="1"/>
        <pt x="516" y="102" on="1"/>
        <pt x="494" y="0" on="1"/>
      </contour>
    </TTGlyph>
    <TTGlyph name="Eogonek" xMin="24" yMin="-172" xMax="646" yMax="740">
      <contour>
        <pt x="24" y="0" on="1"/>
        <pt x="181" y="740" on="1"/>
        <pt x="646" y="740" on="1"/>
        <pt x="625" y="638" on="1"/>
        <pt x="276" y="638" on="1"/>
        <pt x="231" y="427" on="1"/>
        <pt x="534" y="427" on="1"/>
        <pt x="513" y="326" on="1"/>
        <pt x="210" y="326" on="1"/>
        <pt x="162" y="102" on="1"/>
        <pt x="516" y="102" on="1"/>
        <pt x="494" y="0" on="1"/>
        <pt x="494" y="0" on="0"/>
        <pt x="474" y="-9" on="0"/>
        <pt x="446" y="-27" on="0"/>
        <pt x="426" y="-53" on="0"/>
        <pt x="426" y="-70" on="1"/>
        <pt x="426" y="-85" on="0"/>
        <pt x="450" y="-104" on="0"/>
        <pt x="475" y="-104" on="1"/>
        <pt x="488" y="-104" on="0"/>
        <pt x="511" y="-100" on="0"/>
        <pt x="511" y="-100" on="1"/>
        <pt x="497" y="-167" on="1"/>
        <pt x="497" y="-167" on="0"/>
        <pt x="470" y="-172" on="0"/>
        <pt x="448" y="-172" on="1"/>
        <pt x="395" y="-172" on="0"/>
        <pt x="340" y="-128" on="0"/>
        <pt x="340" y="-92" on="1"/>
        <pt x="340" y="-58" on="0"/>
        <pt x="381" y="-13" on="0"/>
        <pt x="404" y="0" on="1"/>
      </contour>
    </TTGlyph>
    <TTGlyph name="Eth" xMin="31" yMin="0" xMax="735" yMax="740">
      <contour>
        <pt x="67" y="0" on="1"/>
        <pt x="135" y="322" on="1"/>
        <pt x="31" y="322" on="1"/>
        <pt x="51" y="420" on="1"/>
        <pt x="156" y="420" on="1"/>
        <pt x="224" y="740" on="1"/>
        <pt x="418" y="740" on="1"/>
        <pt x="499" y="740" on="0"/>
        <pt x="619" y="689" on="0"/>
        <pt x="697" y="601" on="0"/>
        <pt x="735" y="488" on="0"/>
        <pt x="735" y="426" on="1"/>
        <pt x="735" y="350" on="0"/>
        <pt x="680" y="200" on="0"/>
        <pt x="572" y="75" on="0"/>
        <pt x="415" y="0" on="0"/>
        <pt x="313" y="0" on="1"/>
      </contour>
      <contour>
        <pt x="392" y="322" on="1"/>
        <pt x="252" y="322" on="1"/>
        <pt x="205" y="103" on="1"/>
        <pt x="319" y="103" on="1"/>
        <pt x="390" y="103" on="0"/>
        <pt x="502" y="159" on="0"/>
        <pt x="578" y="252" on="0"/>
        <pt x="618" y="364" on="0"/>
        <pt x="618" y="420" on="1"/>
        <pt x="618" y="477" on="0"/>
        <pt x="573" y="577" on="0"/>
        <pt x="478" y="638" on="0"/>
        <pt x="405" y="638" on="1"/>
        <pt x="319" y="638" on="1"/>
        <pt x="273" y="420" on="1"/>
        <pt x="413" y="420" on="1"/>
      </contour>
    </TTGlyph>
    <TTGlyph name="Euro" xMin="27" yMin="-10" xMax="743" yMax="750">
      <contour>
        <pt x="27" y="264" on="1"/>
        <pt x="43" y="337" on="1"/>
        <pt x="155" y="337" on="1"/>
        <pt x="156" y="371" on="0"/>
        <pt x="161" y="404" on="1"/>
        <pt x="57" y="404" on="1"/>
        <pt x="73" y="477" on="1"/>
        <pt x="180" y="477" on="1"/>
        <pt x="207" y="551" on="0"/>
        <pt x="312" y="675" on="0"/>
        <pt x="471" y="750" on="0"/>
        <pt x="575" y="750" on="1"/>
        <pt x="623" y="750" on="0"/>
        <pt x="699" y="739" on="0"/>
        <pt x="743" y="728" on="0"/>
        <pt x="743" y="728" on="1"/>
        <pt x="721" y="625" on="1"/>
        <pt x="721" y="625" on="0"/>
        <pt x="680" y="636" on="0"/>
        <pt x="614" y="647" on="0"/>
        <pt x="576" y="647" on="1"/>
        <pt x="508" y="647" on="0"/>
        <pt x="401" y="602" on="0"/>
        <pt x="325" y="525" on="0"/>
        <pt x="303" y="477" on="1"/>
        <pt x="551" y="477" on="1"/>
        <pt x="536" y="404" on="1"/>
        <pt x="279" y="404" on="1"/>
        <pt x="273" y="372" on="0"/>
        <pt x="273" y="340" on="1"/>
        <pt x="273" y="337" on="1"/>
        <pt x="522" y="337" on="1"/>
        <pt x="506" y="264" on="1"/>
        <pt x="283" y="264" on="1"/>
        <pt x="295" y="216" on="0"/>
        <pt x="354" y="138" on="0"/>
        <pt x="447" y="92" on="0"/>
        <pt x="511" y="92" on="1"/>
        <pt x="549" y="92" on="0"/>
        <pt x="620" y="105" on="0"/>
        <pt x="667" y="117" on="0"/>
        <pt x="667" y="117" on="1"/>
        <pt x="644" y="13" on="1"/>
        <pt x="644" y="13" on="0"/>
        <pt x="606" y="2" on="0"/>
        <pt x="538" y="-10" on="0"/>
        <pt x="493" y="-10" on="1"/>
        <pt x="394" y="-10" on="0"/>
        <pt x="255" y="65" on="0"/>
        <pt x="173" y="189" on="0"/>
        <pt x="161" y="264" on="1"/>
      </contour>
    </TTGlyph>
    <TTGlyph name="F" xMin="24" yMin="0" xMax="655" yMax="740">
      <contour>
        <pt x="24" y="0" on="1"/>
        <pt x="181" y="740" on="1"/>
        <pt x="655" y="740" on="1"/>
        <pt x="633" y="638" on="1"/>
        <pt x="276" y="638" on="1"/>
        <pt x="228" y="411" on="1"/>
        <pt x="539" y="411" on="1"/>
        <pt x="518" y="310" on="1"/>
        <pt x="206" y="310" on="1"/>
        <pt x="140" y="0" on="1"/>
      </contour>
    </TTGlyph>
    <TTGlyph name="G" xMin="58" yMin="-10" xMax="743" yMax="750">
      <contour>
        <pt x="371" y="-10" on="1"/>
        <pt x="292" y="-10" on="0"/>
        <pt x="174" y="43" on="0"/>
        <pt x="96" y="134" on="0"/>
        <pt x="58" y="252" on="0"/>
        <pt x="58" y="317" on="1"/>
        <pt x="58" y="394" on="0"/>
        <pt x="109" y="547" on="0"/>
        <pt x="211" y="674" on="0"/>
        <pt x="362" y="750" on="0"/>
        <pt x="462" y="750" on="1"/>
        <pt x="533" y="750" on="0"/>
        <pt x="631" y="712" on="0"/>
        <pt x="693" y="653" on="0"/>
        <pt x="726" y="586" on="0"/>
        <pt x="740" y="527" on="0"/>
        <pt x="743" y="489" on="0"/>
        <pt x="743" y="489" on="1"/>
        <pt x="626" y="489" on="1"/>
        <pt x="626" y="489" on="0"/>
        <pt x="624" y="521" on="0"/>
        <pt x="609" y="567" on="0"/>
        <pt x="573" y="614" on="0"/>
        <pt x="507" y="646" on="0"/>
        <pt x="455" y="646" on="1"/>
        <pt x="386" y="646" on="0"/>
        <pt x="282" y="589" on="0"/>
        <pt x="211" y="495" on="0"/>
        <pt x="176" y="382" on="0"/>
        <pt x="176" y="326" on="1"/>
        <pt x="176" y="265" on="0"/>
        <pt x="220" y="160" on="0"/>
        <pt x="311" y="95" on="0"/>
        <pt x="382" y="95" on="1"/>
        <pt x="472" y="95" on="0"/>
        <pt x="586" y="208" on="0"/>
        <pt x="605" y="295" on="1"/>
        <pt x="403" y="295" on="1"/>
        <pt x="423" y="388" on="1"/>
        <pt x="736" y="388" on="1"/>
        <pt x="729" y="335" on="1"/>
        <pt x="715" y="230" on="0"/>
        <pt x="620" y="75" on="0"/>
        <pt x="469" y="-10" on="0"/>
      </contour>
    </TTGlyph>
    <TTGlyph name="Gbreve" xMin="58" yMin="-10" xMax="743" yMax="971">
      <contour>
        <pt x="501" y="812" on="1"/>
        <pt x="450" y="812" on="0"/>
        <pt x="390" y="844" on="0"/>
        <pt x="361" y="892" on="0"/>
        <pt x="353" y="939" on="0"/>
        <pt x="354" y="971" on="0"/>
        <pt x="354" y="971" on="1"/>
        <pt x="435" y="971" on="1"/>
        <pt x="435" y="971" on="0"/>
        <pt x="433" y="945" on="0"/>
        <pt x="442" y="911" on="0"/>
        <pt x="471" y="885" on="0"/>
        <pt x="502" y="885" on="1"/>
        <pt x="534" y="885" on="0"/>
        <pt x="575" y="911" on="0"/>
        <pt x="598" y="945" on="0"/>
        <pt x="607" y="971" on="0"/>
        <pt x="607" y="971" on="1"/>
        <pt x="688" y="971" on="1"/>
        <pt x="688" y="971" on="0"/>
        <pt x="681" y="939" on="0"/>
        <pt x="660" y="892" on="0"/>
        <pt x="619" y="844" on="0"/>
        <pt x="551" y="812" on="0"/>
      </contour>
      <contour>
        <pt x="371" y="-10" on="1"/>
        <pt x="292" y="-10" on="0"/>
        <pt x="174" y="43" on="0"/>
        <pt x="96" y="134" on="0"/>
        <pt x="58" y="252" on="0"/>
        <pt x="58" y="317" on="1"/>
        <pt x="58" y="394" on="0"/>
        <pt x="109" y="547" on="0"/>
        <pt x="211" y="674" on="0"/>
        <pt x="362" y="750" on="0"/>
        <pt x="462" y="750" on="1"/>
        <pt x="533" y="750" on="0"/>
        <pt x="631" y="712" on="0"/>
        <pt x="693" y="653" on="0"/>
        <pt x="726" y="586" on="0"/>
        <pt x="740" y="527" on="0"/>
        <pt x="743" y="489" on="0"/>
        <pt x="743" y="489" on="1"/>
        <pt x="626" y="489" on="1"/>
        <pt x="626" y="489" on="0"/>
        <pt x="624" y="521" on="0"/>
        <pt x="609" y="567" on="0"/>
        <pt x="573" y="614" on="0"/>
        <pt x="507" y="646" on="0"/>
        <pt x="455" y="646" on="1"/>
        <pt x="386" y="646" on="0"/>
        <pt x="282" y="589" on="0"/>
        <pt x="211" y="495" on="0"/>
        <pt x="176" y="382" on="0"/>
        <pt x="176" y="326" on="1"/>
        <pt x="176" y="265" on="0"/>
        <pt x="220" y="160" on="0"/>
        <pt x="311" y="95" on="0"/>
        <pt x="382" y="95" on="1"/>
        <pt x="472" y="95" on="0"/>
        <pt x="586" y="208" on="0"/>
        <pt x="605" y="295" on="1"/>
        <pt x="403" y="295" on="1"/>
        <pt x="423" y="388" on="1"/>
        <pt x="736" y="388" on="1"/>
        <pt x="729" y="335" on="1"/>
        <pt x="715" y="230" on="0"/>
        <pt x="620" y="75" on="0"/>
        <pt x="469" y="-10" on="0"/>
      </contour>
    </TTGlyph>
    <TTGlyph name="Gcaron" xMin="58" yMin="-10" xMax="743" yMax="983">
      <contour>
        <pt x="437" y="812" on="1"/>
        <pt x="349" y="983" on="1"/>
        <pt x="440" y="983" on="1"/>
        <pt x="492" y="877" on="1"/>
        <pt x="588" y="983" on="1"/>
        <pt x="691" y="983" on="1"/>
        <pt x="531" y="812" on="1"/>
      </contour>
      <contour>
        <pt x="371" y="-10" on="1"/>
        <pt x="292" y="-10" on="0"/>
        <pt x="174" y="43" on="0"/>
        <pt x="96" y="134" on="0"/>
        <pt x="58" y="252" on="0"/>
        <pt x="58" y="317" on="1"/>
        <pt x="58" y="394" on="0"/>
        <pt x="109" y="547" on="0"/>
        <pt x="211" y="674" on="0"/>
        <pt x="362" y="750" on="0"/>
        <pt x="462" y="750" on="1"/>
        <pt x="533" y="750" on="0"/>
        <pt x="631" y="712" on="0"/>
        <pt x="693" y="653" on="0"/>
        <pt x="726" y="586" on="0"/>
        <pt x="740" y="527" on="0"/>
        <pt x="743" y="489" on="0"/>
        <pt x="743" y="489" on="1"/>
        <pt x="626" y="489" on="1"/>
        <pt x="626" y="489" on="0"/>
        <pt x="624" y="521" on="0"/>
        <pt x="609" y="567" on="0"/>
        <pt x="573" y="614" on="0"/>
        <pt x="507" y="646" on="0"/>
        <pt x="455" y="646" on="1"/>
        <pt x="386" y="646" on="0"/>
        <pt x="282" y="589" on="0"/>
        <pt x="211" y="495" on="0"/>
        <pt x="176" y="382" on="0"/>
        <pt x="176" y="326" on="1"/>
        <pt x="176" y="265" on="0"/>
        <pt x="220" y="160" on="0"/>
        <pt x="311" y="95" on="0"/>
        <pt x="382" y="95" on="1"/>
        <pt x="472" y="95" on="0"/>
        <pt x="586" y="208" on="0"/>
        <pt x="605" y="295" on="1"/>
        <pt x="403" y="295" on="1"/>
        <pt x="423" y="388" on="1"/>
        <pt x="736" y="388" on="1"/>
        <pt x="729" y="335" on="1"/>
        <pt x="715" y="230" on="0"/>
        <pt x="620" y="75" on="0"/>
        <pt x="469" y="-10" on="0"/>
      </contour>
    </TTGlyph>
    <TTGlyph name="Gdotaccent" xMin="58" yMin="-10" xMax="743" yMax="967">
      <contour>
        <pt x="506" y="827" on="1"/>
        <pt x="474" y="827" on="0"/>
        <pt x="434" y="869" on="0"/>
        <pt x="434" y="897" on="1"/>
        <pt x="434" y="926" on="0"/>
        <pt x="474" y="967" on="0"/>
        <pt x="506" y="967" on="1"/>
        <pt x="536" y="967" on="0"/>
        <pt x="577" y="926" on="0"/>
        <pt x="577" y="897" on="1"/>
        <pt x="577" y="868" on="0"/>
        <pt x="536" y="827" on="0"/>
      </contour>
      <contour>
        <pt x="371" y="-10" on="1"/>
        <pt x="292" y="-10" on="0"/>
        <pt x="174" y="43" on="0"/>
        <pt x="96" y="134" on="0"/>
        <pt x="58" y="252" on="0"/>
        <pt x="58" y="317" on="1"/>
        <pt x="58" y="394" on="0"/>
        <pt x="109" y="547" on="0"/>
        <pt x="211" y="674" on="0"/>
        <pt x="362" y="750" on="0"/>
        <pt x="462" y="750" on="1"/>
        <pt x="533" y="750" on="0"/>
        <pt x="631" y="712" on="0"/>
        <pt x="693" y="653" on="0"/>
        <pt x="726" y="586" on="0"/>
        <pt x="740" y="527" on="0"/>
        <pt x="743" y="489" on="0"/>
        <pt x="743" y="489" on="1"/>
        <pt x="626" y="489" on="1"/>
        <pt x="626" y="489" on="0"/>
        <pt x="624" y="521" on="0"/>
        <pt x="609" y="567" on="0"/>
        <pt x="573" y="614" on="0"/>
        <pt x="507" y="646" on="0"/>
        <pt x="455" y="646" on="1"/>
        <pt x="386" y="646" on="0"/>
        <pt x="282" y="589" on="0"/>
        <pt x="211" y="495" on="0"/>
        <pt x="176" y="382" on="0"/>
        <pt x="176" y="326" on="1"/>
        <pt x="176" y="265" on="0"/>
        <pt x="220" y="160" on="0"/>
        <pt x="311" y="95" on="0"/>
        <pt x="382" y="95" on="1"/>
        <pt x="472" y="95" on="0"/>
        <pt x="586" y="208" on="0"/>
        <pt x="605" y="295" on="1"/>
        <pt x="403" y="295" on="1"/>
        <pt x="423" y="388" on="1"/>
        <pt x="736" y="388" on="1"/>
        <pt x="729" y="335" on="1"/>
        <pt x="715" y="230" on="0"/>
        <pt x="620" y="75" on="0"/>
        <pt x="469" y="-10" on="0"/>
      </contour>
    </TTGlyph>
    <TTGlyph name="H" xMin="24" yMin="0" xMax="739" yMax="740">
      <contour>
        <pt x="24" y="0" on="1"/>
        <pt x="181" y="740" on="1"/>
        <pt x="297" y="740" on="1"/>
        <pt x="231" y="428" on="1"/>
        <pt x="556" y="428" on="1"/>
        <pt x="623" y="740" on="1"/>
        <pt x="739" y="740" on="1"/>
        <pt x="582" y="0" on="1"/>
        <pt x="466" y="0" on="1"/>
        <pt x="534" y="324" on="1"/>
        <pt x="209" y="324" on="1"/>
        <pt x="140" y="0" on="1"/>
      </contour>
    </TTGlyph>
    <TTGlyph name="Hbar" xMin="49" yMin="0" xMax="841" yMax="740">
      <contour>
        <pt x="49" y="0" on="1"/>
        <pt x="170" y="569" on="1"/>
        <pt x="94" y="569" on="1"/>
        <pt x="114" y="665" on="1"/>
        <pt x="190" y="665" on="1"/>
        <pt x="206" y="740" on="1"/>
        <pt x="323" y="740" on="1"/>
        <pt x="307" y="665" on="1"/>
        <pt x="632" y="665" on="1"/>
        <pt x="648" y="740" on="1"/>
        <pt x="765" y="740" on="1"/>
        <pt x="749" y="665" on="1"/>
        <pt x="841" y="665" on="1"/>
        <pt x="820" y="569" on="1"/>
        <pt x="729" y="569" on="1"/>
        <pt x="608" y="0" on="1"/>
        <pt x="491" y="0" on="1"/>
        <pt x="560" y="324" on="1"/>
        <pt x="235" y="324" on="1"/>
        <pt x="166" y="0" on="1"/>
      </contour>
      <contour>
        <pt x="257" y="428" on="1"/>
        <pt x="582" y="428" on="1"/>
        <pt x="612" y="569" on="1"/>
        <pt x="287" y="569" on="1"/>
      </contour>
    </TTGlyph>
    <TTGlyph name="I" xMin="24" yMin="0" xMax="297" yMax="740">
      <contour>
        <pt x="24" y="0" on="1"/>
        <pt x="181" y="740" on="1"/>
        <pt x="297" y="740" on="1"/>
        <pt x="140" y="0" on="1"/>
      </contour>
    </TTGlyph>
    <TTGlyph name="Iacute" xMin="24" yMin="0" xMax="412" yMax="966">
      <contour>
        <pt x="301" y="785" on="1"/>
        <pt x="212" y="786" on="1"/>
        <pt x="302" y="966" on="1"/>
        <pt x="412" y="966" on="1"/>
      </contour>
      <contour>
        <pt x="24" y="0" on="1"/>
        <pt x="181" y="740" on="1"/>
        <pt x="297" y="740" on="1"/>
        <pt x="140" y="0" on="1"/>
      </contour>
    </TTGlyph>
    <TTGlyph name="Icircumflex" xMin="24" yMin="0" xMax="419" yMax="951">
      <contour>
        <pt x="77" y="780" on="1"/>
        <pt x="237" y="951" on="1"/>
        <pt x="331" y="951" on="1"/>
        <pt x="419" y="780" on="1"/>
        <pt x="328" y="780" on="1"/>
        <pt x="277" y="886" on="1"/>
        <pt x="180" y="780" on="1"/>
      </contour>
      <contour>
        <pt x="24" y="0" on="1"/>
        <pt x="181" y="740" on="1"/>
        <pt x="297" y="740" on="1"/>
        <pt x="140" y="0" on="1"/>
      </contour>
    </TTGlyph>
    <TTGlyph name="Idieresis" xMin="24" yMin="0" xMax="433" yMax="919">
      <contour>
        <pt x="363" y="781" on="1"/>
        <pt x="333" y="781" on="0"/>
        <pt x="294" y="822" on="0"/>
        <pt x="294" y="850" on="1"/>
        <pt x="294" y="879" on="0"/>
        <pt x="333" y="919" on="0"/>
        <pt x="363" y="919" on="1"/>
        <pt x="393" y="919" on="0"/>
        <pt x="433" y="879" on="0"/>
        <pt x="433" y="850" on="1"/>
        <pt x="433" y="822" on="0"/>
        <pt x="393" y="781" on="0"/>
      </contour>
      <contour>
        <pt x="161" y="781" on="1"/>
        <pt x="131" y="781" on="0"/>
        <pt x="92" y="822" on="0"/>
        <pt x="92" y="850" on="1"/>
        <pt x="92" y="879" on="0"/>
        <pt x="131" y="919" on="0"/>
        <pt x="161" y="919" on="1"/>
        <pt x="191" y="919" on="0"/>
        <pt x="231" y="879" on="0"/>
        <pt x="231" y="850" on="1"/>
        <pt x="231" y="822" on="0"/>
        <pt x="191" y="781" on="0"/>
      </contour>
      <contour>
        <pt x="24" y="0" on="1"/>
        <pt x="181" y="740" on="1"/>
        <pt x="297" y="740" on="1"/>
        <pt x="140" y="0" on="1"/>
      </contour>
    </TTGlyph>
    <TTGlyph name="Idotaccent" xMin="24" yMin="0" xMax="337" yMax="934">
      <contour>
        <pt x="266" y="794" on="1"/>
        <pt x="235" y="794" on="0"/>
        <pt x="195" y="836" on="0"/>
        <pt x="195" y="864" on="1"/>
        <pt x="195" y="893" on="0"/>
        <pt x="235" y="934" on="0"/>
        <pt x="266" y="934" on="1"/>
        <pt x="297" y="934" on="0"/>
        <pt x="337" y="893" on="0"/>
        <pt x="337" y="864" on="1"/>
        <pt x="337" y="835" on="0"/>
        <pt x="297" y="794" on="0"/>
      </contour>
      <contour>
        <pt x="24" y="0" on="1"/>
        <pt x="181" y="740" on="1"/>
        <pt x="297" y="740" on="1"/>
        <pt x="140" y="0" on="1"/>
      </contour>
    </TTGlyph>
    <TTGlyph name="Igrave" xMin="24" yMin="0" xMax="297" yMax="966">
      <contour>
        <pt x="196" y="785" on="1"/>
        <pt x="109" y="966" on="1"/>
        <pt x="216" y="966" on="1"/>
        <pt x="282" y="786" on="1"/>
      </contour>
      <contour>
        <pt x="24" y="0" on="1"/>
        <pt x="181" y="740" on="1"/>
        <pt x="297" y="740" on="1"/>
        <pt x="140" y="0" on="1"/>
      </contour>
    </TTGlyph>
    <TTGlyph name="Imacron" xMin="24" yMin="0" xMax="427" yMax="891">
      <contour>
        <pt x="98" y="813" on="1"/>
        <pt x="116" y="891" on="1"/>
        <pt x="427" y="891" on="1"/>
        <pt x="410" y="813" on="1"/>
      </contour>
      <contour>
        <pt x="24" y="0" on="1"/>
        <pt x="181" y="740" on="1"/>
        <pt x="297" y="740" on="1"/>
        <pt x="140" y="0" on="1"/>
      </contour>
    </TTGlyph>
    <TTGlyph name="Iogonek" xMin="-14" yMin="-172" xMax="297" yMax="740">
      <contour>
        <pt x="24" y="0" on="1"/>
        <pt x="181" y="740" on="1"/>
        <pt x="297" y="740" on="1"/>
        <pt x="140" y="0" on="1"/>
        <pt x="140" y="0" on="0"/>
        <pt x="120" y="-9" on="0"/>
        <pt x="93" y="-27" on="0"/>
        <pt x="72" y="-53" on="0"/>
        <pt x="72" y="-70" on="1"/>
        <pt x="72" y="-85" on="0"/>
        <pt x="96" y="-104" on="0"/>
        <pt x="121" y="-104" on="1"/>
        <pt x="134" y="-104" on="0"/>
        <pt x="157" y="-100" on="0"/>
        <pt x="157" y="-100" on="1"/>
        <pt x="143" y="-167" on="1"/>
        <pt x="143" y="-167" on="0"/>
        <pt x="116" y="-172" on="0"/>
        <pt x="94" y="-172" on="1"/>
        <pt x="41" y="-172" on="0"/>
        <pt x="-14" y="-128" on="0"/>
        <pt x="-14" y="-92" on="1"/>
        <pt x="-14" y="-58" on="0"/>
        <pt x="27" y="-13" on="0"/>
        <pt x="51" y="0" on="1"/>
      </contour>
    </TTGlyph>
    <TTGlyph name="Itilde" xMin="24" yMin="0" xMax="441" yMax="935">
      <contour>
        <pt x="332" y="792" on="1"/>
        <pt x="306" y="792" on="0"/>
        <pt x="269" y="813" on="0"/>
        <pt x="242" y="840" on="0"/>
        <pt x="217" y="861" on="0"/>
        <pt x="203" y="861" on="1"/>
        <pt x="188" y="861" on="0"/>
        <pt x="168" y="828" on="0"/>
        <pt x="163" y="798" on="1"/>
        <pt x="95" y="798" on="1"/>
        <pt x="106" y="857" on="0"/>
        <pt x="154" y="935" on="0"/>
        <pt x="204" y="935" on="1"/>
        <pt x="231" y="935" on="0"/>
        <pt x="268" y="915" on="0"/>
        <pt x="296" y="888" on="0"/>
        <pt x="320" y="868" on="0"/>
        <pt x="333" y="868" on="1"/>
        <pt x="349" y="868" on="0"/>
        <pt x="367" y="900" on="0"/>
        <pt x="373" y="930" on="1"/>
        <pt x="441" y="930" on="1"/>
        <pt x="429" y="871" on="0"/>
        <pt x="382" y="792" on="0"/>
      </contour>
      <contour>
        <pt x="24" y="0" on="1"/>
        <pt x="181" y="740" on="1"/>
        <pt x="297" y="740" on="1"/>
        <pt x="140" y="0" on="1"/>
      </contour>
    </TTGlyph>
    <TTGlyph name="J" xMin="-8" yMin="-10" xMax="507" yMax="740">
      <contour>
        <pt x="89" y="-10" on="1"/>
        <pt x="49" y="-10" on="0"/>
        <pt x="-8" y="2" on="0"/>
        <pt x="-8" y="2" on="1"/>
        <pt x="13" y="103" on="1"/>
        <pt x="13" y="103" on="0"/>
        <pt x="65" y="94" on="0"/>
        <pt x="93" y="94" on="1"/>
        <pt x="178" y="94" on="0"/>
        <pt x="272" y="185" on="0"/>
        <pt x="288" y="259" on="1"/>
        <pt x="391" y="740" on="1"/>
        <pt x="507" y="740" on="1"/>
        <pt x="404" y="256" on="1"/>
        <pt x="387" y="178" on="0"/>
        <pt x="312" y="58" on="0"/>
        <pt x="184" y="-10" on="0"/>
      </contour>
    </TTGlyph>
    <TTGlyph name="K" xMin="24" yMin="0" xMax="738" yMax="740">
      <contour>
        <pt x="24" y="0" on="1"/>
        <pt x="181" y="740" on="1"/>
        <pt x="297" y="740" on="1"/>
        <pt x="230" y="422" on="1"/>
        <pt x="579" y="739" on="1"/>
        <pt x="738" y="739" on="1"/>
        <pt x="324" y="370" on="1"/>
        <pt x="588" y="0" on="1"/>
        <pt x="451" y="0" on="1"/>
        <pt x="212" y="339" on="1"/>
        <pt x="140" y="0" on="1"/>
      </contour>
    </TTGlyph>
    <TTGlyph name="L" xMin="24" yMin="0" xMax="513" yMax="740">
      <contour>
        <pt x="24" y="0" on="1"/>
        <pt x="181" y="740" on="1"/>
        <pt x="297" y="740" on="1"/>
        <pt x="162" y="102" on="1"/>
        <pt x="513" y="102" on="1"/>
        <pt x="491" y="0" on="1"/>
      </contour>
    </TTGlyph>
    <TTGlyph name="Lacute" xMin="24" yMin="0" xMax="511" yMax="999">
      <contour>
        <pt x="309" y="818" on="1"/>
        <pt x="220" y="819" on="1"/>
        <pt x="310" y="999" on="1"/>
        <pt x="420" y="999" on="1"/>
      </contour>
      <contour>
        <pt x="24" y="0" on="1"/>
        <pt x="181" y="740" on="1"/>
        <pt x="297" y="740" on="1"/>
        <pt x="162" y="102" on="1"/>
        <pt x="511" y="102" on="1"/>
        <pt x="489" y="0" on="1"/>
      </contour>
    </TTGlyph>
    <TTGlyph name="Lcaron" xMin="24" yMin="0" xMax="511" yMax="983">
      <contour>
        <pt x="206" y="812" on="1"/>
        <pt x="118" y="983" on="1"/>
        <pt x="209" y="983" on="1"/>
        <pt x="260" y="877" on="1"/>
        <pt x="357" y="983" on="1"/>
        <pt x="460" y="983" on="1"/>
        <pt x="300" y="812" on="1"/>
      </contour>
      <contour>
        <pt x="24" y="0" on="1"/>
        <pt x="181" y="740" on="1"/>
        <pt x="297" y="740" on="1"/>
        <pt x="162" y="102" on="1"/>
        <pt x="511" y="102" on="1"/>
        <pt x="489" y="0" on="1"/>
      </contour>
    </TTGlyph>
    <TTGlyph name="Lslash" xMin="15" yMin="0" xMax="557" yMax="740">
      <contour>
        <pt x="70" y="0" on="1"/>
        <pt x="137" y="318" on="1"/>
        <pt x="15" y="280" on="1"/>
        <pt x="35" y="378" on="1"/>
        <pt x="158" y="416" on="1"/>
        <pt x="227" y="740" on="1"/>
        <pt x="344" y="740" on="1"/>
        <pt x="283" y="455" on="1"/>
        <pt x="429" y="501" on="1"/>
        <pt x="408" y="403" on="1"/>
        <pt x="262" y="357" on="1"/>
        <pt x="208" y="102" on="1"/>
        <pt x="557" y="102" on="1"/>
        <pt x="536" y="0" on="1"/>
      </contour>
    </TTGlyph>
    <TTGlyph name="M" xMin="24" yMin="0" xMax="893" yMax="740">
      <contour>
        <pt x="24" y="0" on="1"/>
        <pt x="181" y="740" on="1"/>
        <pt x="334" y="740" on="1"/>
        <pt x="446" y="319" on="1"/>
        <pt x="738" y="740" on="1"/>
        <pt x="893" y="740" on="1"/>
        <pt x="736" y="0" on="1"/>
        <pt x="620" y="0" on="1"/>
        <pt x="736" y="550" on="1"/>
        <pt x="479" y="184" on="1"/>
        <pt x="368" y="184" on="1"/>
        <pt x="262" y="572" on="1"/>
        <pt x="140" y="0" on="1"/>
      </contour>
    </TTGlyph>
    <TTGlyph name="N" xMin="24" yMin="0" xMax="766" yMax="740">
      <contour>
        <pt x="24" y="0" on="1"/>
        <pt x="181" y="740" on="1"/>
        <pt x="286" y="740" on="1"/>
        <pt x="536" y="205" on="1"/>
        <pt x="649" y="740" on="1"/>
        <pt x="766" y="740" on="1"/>
        <pt x="609" y="0" on="1"/>
        <pt x="503" y="0" on="1"/>
        <pt x="253" y="529" on="1"/>
        <pt x="140" y="0" on="1"/>
      </contour>
    </TTGlyph>
    <TTGlyph name="Nacute" xMin="24" yMin="0" xMax="766" yMax="999">
      <contour>
        <pt x="540" y="818" on="1"/>
        <pt x="451" y="819" on="1"/>
        <pt x="540" y="999" on="1"/>
        <pt x="650" y="999" on="1"/>
      </contour>
      <contour>
        <pt x="24" y="0" on="1"/>
        <pt x="181" y="740" on="1"/>
        <pt x="286" y="740" on="1"/>
        <pt x="536" y="205" on="1"/>
        <pt x="649" y="740" on="1"/>
        <pt x="766" y="740" on="1"/>
        <pt x="609" y="0" on="1"/>
        <pt x="503" y="0" on="1"/>
        <pt x="253" y="529" on="1"/>
        <pt x="140" y="0" on="1"/>
      </contour>
    </TTGlyph>
    <TTGlyph name="Ncaron" xMin="24" yMin="0" xMax="766" yMax="983">
      <contour>
        <pt x="436" y="812" on="1"/>
        <pt x="349" y="983" on="1"/>
        <pt x="439" y="983" on="1"/>
        <pt x="491" y="877" on="1"/>
        <pt x="587" y="983" on="1"/>
        <pt x="690" y="983" on="1"/>
        <pt x="531" y="812" on="1"/>
      </contour>
      <contour>
        <pt x="24" y="0" on="1"/>
        <pt x="181" y="740" on="1"/>
        <pt x="286" y="740" on="1"/>
        <pt x="536" y="205" on="1"/>
        <pt x="649" y="740" on="1"/>
        <pt x="766" y="740" on="1"/>
        <pt x="609" y="0" on="1"/>
        <pt x="503" y="0" on="1"/>
        <pt x="253" y="529" on="1"/>
        <pt x="140" y="0" on="1"/>
      </contour>
    </TTGlyph>
    <TTGlyph name="Ntilde" xMin="24" yMin="0" xMax="766" yMax="968">
      <contour>
        <pt x="571" y="825" on="1"/>
        <pt x="544" y="825" on="0"/>
        <pt x="508" y="846" on="0"/>
        <pt x="480" y="873" on="0"/>
        <pt x="456" y="894" on="0"/>
        <pt x="442" y="894" on="1"/>
        <pt x="426" y="894" on="0"/>
        <pt x="407" y="861" on="0"/>
        <pt x="402" y="831" on="1"/>
        <pt x="333" y="831" on="1"/>
        <pt x="345" y="890" on="0"/>
        <pt x="392" y="968" on="0"/>
        <pt x="443" y="968" on="1"/>
        <pt x="470" y="968" on="0"/>
        <pt x="507" y="948" on="0"/>
        <pt x="534" y="921" on="0"/>
        <pt x="558" y="901" on="0"/>
        <pt x="572" y="901" on="1"/>
        <pt x="588" y="901" on="0"/>
        <pt x="606" y="933" on="0"/>
        <pt x="611" y="963" on="1"/>
        <pt x="679" y="963" on="1"/>
        <pt x="668" y="904" on="0"/>
        <pt x="621" y="825" on="0"/>
      </contour>
      <contour>
        <pt x="24" y="0" on="1"/>
        <pt x="181" y="740" on="1"/>
        <pt x="286" y="740" on="1"/>
        <pt x="536" y="205" on="1"/>
        <pt x="649" y="740" on="1"/>
        <pt x="766" y="740" on="1"/>
        <pt x="609" y="0" on="1"/>
        <pt x="503" y="0" on="1"/>
        <pt x="253" y="529" on="1"/>
        <pt x="140" y="0" on="1"/>
      </contour>
    </TTGlyph>
    <TTGlyph name="O" xMin="58" yMin="-10" xMax="772" yMax="750">
      <contour>
        <pt x="371" y="-10" on="1"/>
        <pt x="291" y="-10" on="0"/>
        <pt x="173" y="43" on="0"/>
        <pt x="96" y="135" on="0"/>
        <pt x="58" y="252" on="0"/>
        <pt x="58" y="317" on="1"/>
        <pt x="58" y="394" on="0"/>
        <pt x="111" y="547" on="0"/>
        <pt x="214" y="674" on="0"/>
        <pt x="363" y="750" on="0"/>
        <pt x="459" y="750" on="1"/>
        <pt x="540" y="750" on="0"/>
        <pt x="658" y="697" on="0"/>
        <pt x="735" y="605" on="0"/>
        <pt x="772" y="487" on="0"/>
        <pt x="772" y="423" on="1"/>
        <pt x="772" y="346" on="0"/>
        <pt x="719" y="193" on="0"/>
        <pt x="617" y="66" on="0"/>
        <pt x="468" y="-10" on="0"/>
      </contour>
      <contour>
        <pt x="375" y="95" on="1"/>
        <pt x="442" y="95" on="0"/>
        <pt x="546" y="153" on="0"/>
        <pt x="617" y="249" on="0"/>
        <pt x="654" y="364" on="0"/>
        <pt x="654" y="421" on="1"/>
        <pt x="654" y="480" on="0"/>
        <pt x="612" y="582" on="0"/>
        <pt x="524" y="645" on="0"/>
        <pt x="456" y="645" on="1"/>
        <pt x="389" y="645" on="0"/>
        <pt x="286" y="587" on="0"/>
        <pt x="214" y="491" on="0"/>
        <pt x="177" y="376" on="0"/>
        <pt x="177" y="319" on="1"/>
        <pt x="177" y="260" on="0"/>
        <pt x="219" y="158" on="0"/>
        <pt x="307" y="95" on="0"/>
      </contour>
    </TTGlyph>
    <TTGlyph name="OE" xMin="56" yMin="0" xMax="999" yMax="740">
      <contour>
        <pt x="999" y="740" on="1"/>
        <pt x="977" y="638" on="1"/>
        <pt x="620" y="638" on="1"/>
        <pt x="576" y="427" on="1"/>
        <pt x="887" y="427" on="1"/>
        <pt x="865" y="326" on="1"/>
        <pt x="554" y="326" on="1"/>
        <pt x="507" y="102" on="1"/>
        <pt x="868" y="102" on="1"/>
        <pt x="847" y="0" on="1"/>
        <pt x="368" y="0" on="1"/>
        <pt x="288" y="1" on="0"/>
        <pt x="171" y="53" on="0"/>
        <pt x="94" y="141" on="0"/>
        <pt x="56" y="253" on="0"/>
        <pt x="56" y="314" on="1"/>
        <pt x="56" y="390" on="0"/>
        <pt x="112" y="540" on="0"/>
        <pt x="219" y="665" on="0"/>
        <pt x="377" y="740" on="0"/>
        <pt x="479" y="740" on="1"/>
      </contour>
      <contour>
        <pt x="173" y="320" on="1"/>
        <pt x="173" y="263" on="0"/>
        <pt x="219" y="163" on="0"/>
        <pt x="313" y="102" on="0"/>
        <pt x="386" y="102" on="1"/>
        <pt x="390" y="102" on="1"/>
        <pt x="503" y="637" on="1"/>
        <pt x="472" y="637" on="1"/>
        <pt x="401" y="637" on="0"/>
        <pt x="290" y="581" on="0"/>
        <pt x="213" y="488" on="0"/>
        <pt x="173" y="376" on="0"/>
      </contour>
    </TTGlyph>
    <TTGlyph name="Oacute" xMin="58" yMin="-10" xMax="772" yMax="999">
      <contour>
        <pt x="537" y="818" on="1"/>
        <pt x="448" y="819" on="1"/>
        <pt x="538" y="999" on="1"/>
        <pt x="648" y="999" on="1"/>
      </contour>
      <contour>
        <pt x="371" y="-10" on="1"/>
        <pt x="291" y="-10" on="0"/>
        <pt x="173" y="43" on="0"/>
        <pt x="96" y="135" on="0"/>
        <pt x="58" y="252" on="0"/>
        <pt x="58" y="317" on="1"/>
        <pt x="58" y="394" on="0"/>
        <pt x="111" y="547" on="0"/>
        <pt x="214" y="674" on="0"/>
        <pt x="363" y="750" on="0"/>
        <pt x="459" y="750" on="1"/>
        <pt x="540" y="750" on="0"/>
        <pt x="658" y="697" on="0"/>
        <pt x="735" y="605" on="0"/>
        <pt x="772" y="487" on="0"/>
        <pt x="772" y="423" on="1"/>
        <pt x="772" y="346" on="0"/>
        <pt x="719" y="193" on="0"/>
        <pt x="617" y="66" on="0"/>
        <pt x="468" y="-10" on="0"/>
      </contour>
      <contour>
        <pt x="375" y="95" on="1"/>
        <pt x="442" y="95" on="0"/>
        <pt x="546" y="153" on="0"/>
        <pt x="617" y="249" on="0"/>
        <pt x="654" y="364" on="0"/>
        <pt x="654" y="421" on="1"/>
        <pt x="654" y="480" on="0"/>
        <pt x="612" y="582" on="0"/>
        <pt x="524" y="645" on="0"/>
        <pt x="456" y="645" on="1"/>
        <pt x="389" y="645" on="0"/>
        <pt x="286" y="587" on="0"/>
        <pt x="214" y="491" on="0"/>
        <pt x="177" y="376" on="0"/>
        <pt x="177" y="319" on="1"/>
        <pt x="177" y="260" on="0"/>
        <pt x="219" y="158" on="0"/>
        <pt x="307" y="95" on="0"/>
      </contour>
    </TTGlyph>
    <TTGlyph name="Ocircumflex" xMin="58" yMin="-10" xMax="772" yMax="962">
      <contour>
        <pt x="304" y="813" on="1"/>
        <pt x="460" y="962" on="1"/>
        <pt x="554" y="962" on="1"/>
        <pt x="646" y="813" on="1"/>
        <pt x="556" y="813" on="1"/>
        <pt x="500" y="905" on="1"/>
        <pt x="408" y="813" on="1"/>
      </contour>
      <contour>
        <pt x="371" y="-10" on="1"/>
        <pt x="291" y="-10" on="0"/>
        <pt x="173" y="43" on="0"/>
        <pt x="96" y="135" on="0"/>
        <pt x="58" y="252" on="0"/>
        <pt x="58" y="317" on="1"/>
        <pt x="58" y="394" on="0"/>
        <pt x="111" y="547" on="0"/>
        <pt x="214" y="674" on="0"/>
        <pt x="363" y="750" on="0"/>
        <pt x="459" y="750" on="1"/>
        <pt x="540" y="750" on="0"/>
        <pt x="658" y="697" on="0"/>
        <pt x="735" y="605" on="0"/>
        <pt x="772" y="487" on="0"/>
        <pt x="772" y="423" on="1"/>
        <pt x="772" y="346" on="0"/>
        <pt x="719" y="193" on="0"/>
        <pt x="617" y="66" on="0"/>
        <pt x="468" y="-10" on="0"/>
      </contour>
      <contour>
        <pt x="375" y="95" on="1"/>
        <pt x="442" y="95" on="0"/>
        <pt x="546" y="153" on="0"/>
        <pt x="617" y="249" on="0"/>
        <pt x="654" y="364" on="0"/>
        <pt x="654" y="421" on="1"/>
        <pt x="654" y="480" on="0"/>
        <pt x="612" y="582" on="0"/>
        <pt x="524" y="645" on="0"/>
        <pt x="456" y="645" on="1"/>
        <pt x="389" y="645" on="0"/>
        <pt x="286" y="587" on="0"/>
        <pt x="214" y="491" on="0"/>
        <pt x="177" y="376" on="0"/>
        <pt x="177" y="319" on="1"/>
        <pt x="177" y="260" on="0"/>
        <pt x="219" y="158" on="0"/>
        <pt x="307" y="95" on="0"/>
      </contour>
    </TTGlyph>
    <TTGlyph name="Odieresis" xMin="58" yMin="-10" xMax="772" yMax="952">
      <contour>
        <pt x="600" y="814" on="1"/>
        <pt x="569" y="814" on="0"/>
        <pt x="530" y="855" on="0"/>
        <pt x="530" y="883" on="1"/>
        <pt x="530" y="912" on="0"/>
        <pt x="569" y="952" on="0"/>
        <pt x="600" y="952" on="1"/>
        <pt x="630" y="952" on="0"/>
        <pt x="670" y="912" on="0"/>
        <pt x="670" y="883" on="1"/>
        <pt x="670" y="854" on="0"/>
        <pt x="630" y="814" on="0"/>
      </contour>
      <contour>
        <pt x="398" y="814" on="1"/>
        <pt x="367" y="814" on="0"/>
        <pt x="328" y="855" on="0"/>
        <pt x="328" y="883" on="1"/>
        <pt x="328" y="912" on="0"/>
        <pt x="367" y="952" on="0"/>
        <pt x="398" y="952" on="1"/>
        <pt x="428" y="952" on="0"/>
        <pt x="468" y="912" on="0"/>
        <pt x="468" y="883" on="1"/>
        <pt x="468" y="854" on="0"/>
        <pt x="428" y="814" on="0"/>
      </contour>
      <contour>
        <pt x="371" y="-10" on="1"/>
        <pt x="291" y="-10" on="0"/>
        <pt x="173" y="43" on="0"/>
        <pt x="96" y="135" on="0"/>
        <pt x="58" y="252" on="0"/>
        <pt x="58" y="317" on="1"/>
        <pt x="58" y="394" on="0"/>
        <pt x="111" y="547" on="0"/>
        <pt x="214" y="674" on="0"/>
        <pt x="363" y="750" on="0"/>
        <pt x="459" y="750" on="1"/>
        <pt x="540" y="750" on="0"/>
        <pt x="658" y="697" on="0"/>
        <pt x="735" y="605" on="0"/>
        <pt x="772" y="487" on="0"/>
        <pt x="772" y="423" on="1"/>
        <pt x="772" y="346" on="0"/>
        <pt x="719" y="193" on="0"/>
        <pt x="617" y="66" on="0"/>
        <pt x="468" y="-10" on="0"/>
      </contour>
      <contour>
        <pt x="375" y="95" on="1"/>
        <pt x="442" y="95" on="0"/>
        <pt x="546" y="153" on="0"/>
        <pt x="617" y="249" on="0"/>
        <pt x="654" y="364" on="0"/>
        <pt x="654" y="421" on="1"/>
        <pt x="654" y="480" on="0"/>
        <pt x="612" y="582" on="0"/>
        <pt x="524" y="645" on="0"/>
        <pt x="456" y="645" on="1"/>
        <pt x="389" y="645" on="0"/>
        <pt x="286" y="587" on="0"/>
        <pt x="214" y="491" on="0"/>
        <pt x="177" y="376" on="0"/>
        <pt x="177" y="319" on="1"/>
        <pt x="177" y="260" on="0"/>
        <pt x="219" y="158" on="0"/>
        <pt x="307" y="95" on="0"/>
      </contour>
    </TTGlyph>
    <TTGlyph name="Ograve" xMin="58" yMin="-10" xMax="772" yMax="999">
      <contour>
        <pt x="432" y="818" on="1"/>
        <pt x="345" y="999" on="1"/>
        <pt x="452" y="999" on="1"/>
        <pt x="519" y="819" on="1"/>
      </contour>
      <contour>
        <pt x="371" y="-10" on="1"/>
        <pt x="291" y="-10" on="0"/>
        <pt x="173" y="43" on="0"/>
        <pt x="96" y="135" on="0"/>
        <pt x="58" y="252" on="0"/>
        <pt x="58" y="317" on="1"/>
        <pt x="58" y="394" on="0"/>
        <pt x="111" y="547" on="0"/>
        <pt x="214" y="674" on="0"/>
        <pt x="363" y="750" on="0"/>
        <pt x="459" y="750" on="1"/>
        <pt x="540" y="750" on="0"/>
        <pt x="658" y="697" on="0"/>
        <pt x="735" y="605" on="0"/>
        <pt x="772" y="487" on="0"/>
        <pt x="772" y="423" on="1"/>
        <pt x="772" y="346" on="0"/>
        <pt x="719" y="193" on="0"/>
        <pt x="617" y="66" on="0"/>
        <pt x="468" y="-10" on="0"/>
      </contour>
      <contour>
        <pt x="375" y="95" on="1"/>
        <pt x="442" y="95" on="0"/>
        <pt x="546" y="153" on="0"/>
        <pt x="617" y="249" on="0"/>
        <pt x="654" y="364" on="0"/>
        <pt x="654" y="421" on="1"/>
        <pt x="654" y="480" on="0"/>
        <pt x="612" y="582" on="0"/>
        <pt x="524" y="645" on="0"/>
        <pt x="456" y="645" on="1"/>
        <pt x="389" y="645" on="0"/>
        <pt x="286" y="587" on="0"/>
        <pt x="214" y="491" on="0"/>
        <pt x="177" y="376" on="0"/>
        <pt x="177" y="319" on="1"/>
        <pt x="177" y="260" on="0"/>
        <pt x="219" y="158" on="0"/>
        <pt x="307" y="95" on="0"/>
      </contour>
    </TTGlyph>
    <TTGlyph name="Ohorn" xMin="58" yMin="-10" xMax="808" yMax="854">
      <contour>
        <pt x="371" y="-10" on="1"/>
        <pt x="291" y="-10" on="0"/>
        <pt x="173" y="43" on="0"/>
        <pt x="96" y="135" on="0"/>
        <pt x="58" y="252" on="0"/>
        <pt x="58" y="317" on="1"/>
        <pt x="58" y="394" on="0"/>
        <pt x="111" y="547" on="0"/>
        <pt x="214" y="674" on="0"/>
        <pt x="363" y="750" on="0"/>
        <pt x="459" y="750" on="1"/>
        <pt x="462" y="750" on="0"/>
        <pt x="464" y="750" on="1"/>
        <pt x="464" y="750" on="1"/>
        <pt x="640" y="750" on="1"/>
        <pt x="664" y="750" on="0"/>
        <pt x="688" y="769" on="0"/>
        <pt x="692" y="791" on="1"/>
        <pt x="705" y="854" on="1"/>
        <pt x="808" y="854" on="1"/>
        <pt x="789" y="771" on="1"/>
        <pt x="780" y="727" on="0"/>
        <pt x="727" y="680" on="0"/>
        <pt x="679" y="680" on="1"/>
        <pt x="667" y="680" on="1"/>
        <pt x="720" y="634" on="0"/>
        <pt x="772" y="498" on="0"/>
        <pt x="772" y="423" on="1"/>
        <pt x="772" y="346" on="0"/>
        <pt x="719" y="193" on="0"/>
        <pt x="617" y="66" on="0"/>
        <pt x="468" y="-10" on="0"/>
      </contour>
      <contour>
        <pt x="375" y="95" on="1"/>
        <pt x="442" y="95" on="0"/>
        <pt x="546" y="153" on="0"/>
        <pt x="617" y="249" on="0"/>
        <pt x="654" y="364" on="0"/>
        <pt x="654" y="421" on="1"/>
        <pt x="654" y="480" on="0"/>
        <pt x="612" y="582" on="0"/>
        <pt x="524" y="645" on="0"/>
        <pt x="456" y="645" on="1"/>
        <pt x="389" y="645" on="0"/>
        <pt x="286" y="587" on="0"/>
        <pt x="214" y="491" on="0"/>
        <pt x="177" y="376" on="0"/>
        <pt x="177" y="319" on="1"/>
        <pt x="177" y="260" on="0"/>
        <pt x="219" y="158" on="0"/>
        <pt x="307" y="95" on="0"/>
      </contour>
    </TTGlyph>
    <TTGlyph name="Ohungarumlaut" xMin="58" yMin="-10" xMax="772" yMax="999">
      <contour>
        <pt x="444" y="818" on="1"/>
        <pt x="352" y="819" on="1"/>
        <pt x="448" y="999" on="1"/>
        <pt x="561" y="999" on="1"/>
      </contour>
      <contour>
        <pt x="616" y="818" on="1"/>
        <pt x="522" y="819" on="1"/>
        <pt x="628" y="999" on="1"/>
        <pt x="743" y="999" on="1"/>
      </contour>
      <contour>
        <pt x="371" y="-10" on="1"/>
        <pt x="291" y="-10" on="0"/>
        <pt x="173" y="43" on="0"/>
        <pt x="96" y="135" on="0"/>
        <pt x="58" y="252" on="0"/>
        <pt x="58" y="317" on="1"/>
        <pt x="58" y="394" on="0"/>
        <pt x="111" y="547" on="0"/>
        <pt x="214" y="674" on="0"/>
        <pt x="363" y="750" on="0"/>
        <pt x="459" y="750" on="1"/>
        <pt x="540" y="750" on="0"/>
        <pt x="658" y="697" on="0"/>
        <pt x="735" y="605" on="0"/>
        <pt x="772" y="487" on="0"/>
        <pt x="772" y="423" on="1"/>
        <pt x="772" y="346" on="0"/>
        <pt x="719" y="193" on="0"/>
        <pt x="617" y="66" on="0"/>
        <pt x="468" y="-10" on="0"/>
      </contour>
      <contour>
        <pt x="375" y="95" on="1"/>
        <pt x="442" y="95" on="0"/>
        <pt x="546" y="153" on="0"/>
        <pt x="617" y="249" on="0"/>
        <pt x="654" y="364" on="0"/>
        <pt x="654" y="421" on="1"/>
        <pt x="654" y="480" on="0"/>
        <pt x="612" y="582" on="0"/>
        <pt x="524" y="645" on="0"/>
        <pt x="456" y="645" on="1"/>
        <pt x="389" y="645" on="0"/>
        <pt x="286" y="587" on="0"/>
        <pt x="214" y="491" on="0"/>
        <pt x="177" y="376" on="0"/>
        <pt x="177" y="319" on="1"/>
        <pt x="177" y="260" on="0"/>
        <pt x="219" y="158" on="0"/>
        <pt x="307" y="95" on="0"/>
      </contour>
    </TTGlyph>
    <TTGlyph name="Omacron" xMin="58" yMin="-10" xMax="772" yMax="923">
      <contour>
        <pt x="335" y="845" on="1"/>
        <pt x="352" y="923" on="1"/>
        <pt x="663" y="923" on="1"/>
        <pt x="646" y="845" on="1"/>
      </contour>
      <contour>
        <pt x="371" y="-10" on="1"/>
        <pt x="291" y="-10" on="0"/>
        <pt x="173" y="43" on="0"/>
        <pt x="96" y="135" on="0"/>
        <pt x="58" y="252" on="0"/>
        <pt x="58" y="317" on="1"/>
        <pt x="58" y="394" on="0"/>
        <pt x="111" y="547" on="0"/>
        <pt x="214" y="674" on="0"/>
        <pt x="363" y="750" on="0"/>
        <pt x="459" y="750" on="1"/>
        <pt x="540" y="750" on="0"/>
        <pt x="658" y="697" on="0"/>
        <pt x="735" y="605" on="0"/>
        <pt x="772" y="487" on="0"/>
        <pt x="772" y="423" on="1"/>
        <pt x="772" y="346" on="0"/>
        <pt x="719" y="193" on="0"/>
        <pt x="617" y="66" on="0"/>
        <pt x="468" y="-10" on="0"/>
      </contour>
      <contour>
        <pt x="375" y="95" on="1"/>
        <pt x="442" y="95" on="0"/>
        <pt x="546" y="153" on="0"/>
        <pt x="617" y="249" on="0"/>
        <pt x="654" y="364" on="0"/>
        <pt x="654" y="421" on="1"/>
        <pt x="654" y="480" on="0"/>
        <pt x="612" y="582" on="0"/>
        <pt x="524" y="645" on="0"/>
        <pt x="456" y="645" on="1"/>
        <pt x="389" y="645" on="0"/>
        <pt x="286" y="587" on="0"/>
        <pt x="214" y="491" on="0"/>
        <pt x="177" y="376" on="0"/>
        <pt x="177" y="319" on="1"/>
        <pt x="177" y="260" on="0"/>
        <pt x="219" y="158" on="0"/>
        <pt x="307" y="95" on="0"/>
      </contour>
    </TTGlyph>
    <TTGlyph name="Oslash" xMin="15" yMin="-24" xMax="815" yMax="763">
      <contour>
        <pt x="15" y="-24" on="1"/>
        <pt x="123" y="103" on="1"/>
        <pt x="90" y="147" on="0"/>
        <pt x="58" y="257" on="0"/>
        <pt x="58" y="316" on="1"/>
        <pt x="58" y="394" on="0"/>
        <pt x="111" y="547" on="0"/>
        <pt x="214" y="674" on="0"/>
        <pt x="363" y="750" on="0"/>
        <pt x="459" y="750" on="1"/>
        <pt x="513" y="750" on="0"/>
        <pt x="601" y="725" on="0"/>
        <pt x="635" y="703" on="1"/>
        <pt x="686" y="763" on="1"/>
        <pt x="815" y="763" on="1"/>
        <pt x="707" y="637" on="1"/>
        <pt x="740" y="593" on="0"/>
        <pt x="772" y="482" on="0"/>
        <pt x="772" y="423" on="1"/>
        <pt x="772" y="346" on="0"/>
        <pt x="719" y="192" on="0"/>
        <pt x="617" y="66" on="0"/>
        <pt x="468" y="-10" on="0"/>
        <pt x="371" y="-10" on="1"/>
        <pt x="318" y="-10" on="0"/>
        <pt x="230" y="14" on="0"/>
        <pt x="195" y="36" on="1"/>
        <pt x="144" y="-24" on="1"/>
      </contour>
      <contour>
        <pt x="177" y="319" on="1"/>
        <pt x="177" y="249" on="0"/>
        <pt x="203" y="197" on="1"/>
        <pt x="562" y="617" on="1"/>
        <pt x="540" y="630" on="0"/>
        <pt x="487" y="644" on="0"/>
        <pt x="456" y="644" on="1"/>
        <pt x="389" y="644" on="0"/>
        <pt x="286" y="586" on="0"/>
        <pt x="214" y="491" on="0"/>
        <pt x="177" y="376" on="0"/>
      </contour>
      <contour>
        <pt x="375" y="95" on="1"/>
        <pt x="442" y="95" on="0"/>
        <pt x="546" y="153" on="0"/>
        <pt x="617" y="249" on="0"/>
        <pt x="654" y="364" on="0"/>
        <pt x="654" y="421" on="1"/>
        <pt x="654" y="454" on="0"/>
        <pt x="641" y="517" on="0"/>
        <pt x="627" y="543" on="1"/>
        <pt x="269" y="123" on="1"/>
        <pt x="290" y="110" on="0"/>
        <pt x="343" y="95" on="0"/>
      </contour>
    </TTGlyph>
    <TTGlyph name="Otilde" xMin="58" yMin="-10" xMax="772" yMax="968">
      <contour>
        <pt x="568" y="825" on="1"/>
        <pt x="542" y="825" on="0"/>
        <pt x="506" y="846" on="0"/>
        <pt x="478" y="873" on="0"/>
        <pt x="454" y="894" on="0"/>
        <pt x="440" y="894" on="1"/>
        <pt x="424" y="894" on="0"/>
        <pt x="405" y="861" on="0"/>
        <pt x="399" y="831" on="1"/>
        <pt x="331" y="831" on="1"/>
        <pt x="343" y="890" on="0"/>
        <pt x="390" y="968" on="0"/>
        <pt x="441" y="968" on="1"/>
        <pt x="468" y="968" on="0"/>
        <pt x="505" y="948" on="0"/>
        <pt x="532" y="921" on="0"/>
        <pt x="556" y="901" on="0"/>
        <pt x="570" y="901" on="1"/>
        <pt x="586" y="901" on="0"/>
        <pt x="604" y="933" on="0"/>
        <pt x="609" y="963" on="1"/>
        <pt x="677" y="963" on="1"/>
        <pt x="666" y="904" on="0"/>
        <pt x="619" y="825" on="0"/>
      </contour>
      <contour>
        <pt x="371" y="-10" on="1"/>
        <pt x="291" y="-10" on="0"/>
        <pt x="173" y="43" on="0"/>
        <pt x="96" y="135" on="0"/>
        <pt x="58" y="252" on="0"/>
        <pt x="58" y="317" on="1"/>
        <pt x="58" y="394" on="0"/>
        <pt x="111" y="547" on="0"/>
        <pt x="214" y="674" on="0"/>
        <pt x="363" y="750" on="0"/>
        <pt x="459" y="750" on="1"/>
        <pt x="540" y="750" on="0"/>
        <pt x="658" y="697" on="0"/>
        <pt x="735" y="605" on="0"/>
        <pt x="772" y="487" on="0"/>
        <pt x="772" y="423" on="1"/>
        <pt x="772" y="346" on="0"/>
        <pt x="719" y="193" on="0"/>
        <pt x="617" y="66" on="0"/>
        <pt x="468" y="-10" on="0"/>
      </contour>
      <contour>
        <pt x="375" y="95" on="1"/>
        <pt x="442" y="95" on="0"/>
        <pt x="546" y="153" on="0"/>
        <pt x="617" y="249" on="0"/>
        <pt x="654" y="364" on="0"/>
        <pt x="654" y="421" on="1"/>
        <pt x="654" y="480" on="0"/>
        <pt x="612" y="582" on="0"/>
        <pt x="524" y="645" on="0"/>
        <pt x="456" y="645" on="1"/>
        <pt x="389" y="645" on="0"/>
        <pt x="286" y="587" on="0"/>
        <pt x="214" y="491" on="0"/>
        <pt x="177" y="376" on="0"/>
        <pt x="177" y="319" on="1"/>
        <pt x="177" y="260" on="0"/>
        <pt x="219" y="158" on="0"/>
        <pt x="307" y="95" on="0"/>
      </contour>
    </TTGlyph>
    <TTGlyph name="P" xMin="24" yMin="0" xMax="664" yMax="740">
      <contour>
        <pt x="24" y="0" on="1"/>
        <pt x="181" y="740" on="1"/>
        <pt x="421" y="740" on="1"/>
        <pt x="503" y="740" on="0"/>
        <pt x="611" y="678" on="0"/>
        <pt x="664" y="578" on="0"/>
        <pt x="664" y="522" on="1"/>
        <pt x="664" y="473" on="0"/>
        <pt x="626" y="378" on="0"/>
        <pt x="551" y="299" on="0"/>
        <pt x="442" y="253" on="0"/>
        <pt x="370" y="253" on="1"/>
        <pt x="194" y="253" on="1"/>
        <pt x="140" y="0" on="1"/>
      </contour>
      <contour>
        <pt x="410" y="638" on="1"/>
        <pt x="276" y="638" on="1"/>
        <pt x="216" y="355" on="1"/>
        <pt x="378" y="355" on="1"/>
        <pt x="432" y="355" on="0"/>
        <pt x="507" y="402" on="0"/>
        <pt x="546" y="475" on="0"/>
        <pt x="546" y="513" on="1"/>
        <pt x="546" y="545" on="0"/>
        <pt x="517" y="602" on="0"/>
        <pt x="457" y="638" on="0"/>
      </contour>
    </TTGlyph>
    <TTGlyph name="Q" xMin="58" yMin="-10" xMax="772" yMax="750">
      <contour>
        <pt x="371" y="-10" on="1"/>
        <pt x="291" y="-10" on="0"/>
        <pt x="173" y="43" on="0"/>
        <pt x="96" y="135" on="0"/>
        <pt x="58" y="252" on="0"/>
        <pt x="58" y="317" on="1"/>
        <pt x="58" y="394" on="0"/>
        <pt x="111" y="547" on="0"/>
        <pt x="214" y="674" on="0"/>
        <pt x="363" y="750" on="0"/>
        <pt x="459" y="750" on="1"/>
        <pt x="540" y="750" on="0"/>
        <pt x="658" y="697" on="0"/>
        <pt x="735" y="605" on="0"/>
        <pt x="772" y="487" on="0"/>
        <pt x="772" y="423" on="1"/>
        <pt x="772" y="342" on="0"/>
        <pt x="713" y="178" on="0"/>
        <pt x="656" y="115" on="1"/>
        <pt x="744" y="0" on="1"/>
        <pt x="609" y="0" on="1"/>
        <pt x="573" y="46" on="1"/>
        <pt x="531" y="20" on="0"/>
        <pt x="430" y="-10" on="0"/>
      </contour>
      <contour>
        <pt x="375" y="95" on="1"/>
        <pt x="413" y="95" on="0"/>
        <pt x="478" y="115" on="0"/>
        <pt x="506" y="132" on="1"/>
        <pt x="401" y="267" on="1"/>
        <pt x="488" y="334" on="1"/>
        <pt x="586" y="207" on="1"/>
        <pt x="619" y="253" on="0"/>
        <pt x="654" y="366" on="0"/>
        <pt x="654" y="421" on="1"/>
        <pt x="654" y="480" on="0"/>
        <pt x="612" y="582" on="0"/>
        <pt x="524" y="645" on="0"/>
        <pt x="456" y="645" on="1"/>
        <pt x="389" y="645" on="0"/>
        <pt x="286" y="587" on="0"/>
        <pt x="214" y="491" on="0"/>
        <pt x="177" y="376" on="0"/>
        <pt x="177" y="319" on="1"/>
        <pt x="177" y="260" on="0"/>
        <pt x="219" y="158" on="0"/>
        <pt x="307" y="95" on="0"/>
      </contour>
    </TTGlyph>
    <TTGlyph name="R" xMin="24" yMin="0" xMax="641" yMax="740">
      <contour>
        <pt x="24" y="0" on="1"/>
        <pt x="181" y="740" on="1"/>
        <pt x="408" y="740" on="1"/>
        <pt x="487" y="740" on="0"/>
        <pt x="590" y="683" on="0"/>
        <pt x="641" y="591" on="0"/>
        <pt x="641" y="540" on="1"/>
        <pt x="641" y="490" on="0"/>
        <pt x="594" y="393" on="0"/>
        <pt x="503" y="321" on="0"/>
        <pt x="436" y="308" on="1"/>
        <pt x="547" y="0" on="1"/>
        <pt x="426" y="0" on="1"/>
        <pt x="320" y="302" on="1"/>
        <pt x="205" y="302" on="1"/>
        <pt x="140" y="0" on="1"/>
      </contour>
      <contour>
        <pt x="405" y="638" on="1"/>
        <pt x="276" y="638" on="1"/>
        <pt x="225" y="400" on="1"/>
        <pt x="375" y="400" on="1"/>
        <pt x="423" y="400" on="0"/>
        <pt x="489" y="441" on="0"/>
        <pt x="523" y="502" on="0"/>
        <pt x="523" y="534" on="1"/>
        <pt x="523" y="575" on="0"/>
        <pt x="466" y="638" on="0"/>
      </contour>
    </TTGlyph>
    <TTGlyph name="Racute" xMin="24" yMin="0" xMax="641" yMax="999">
      <contour>
        <pt x="459" y="818" on="1"/>
        <pt x="370" y="819" on="1"/>
        <pt x="460" y="999" on="1"/>
        <pt x="570" y="999" on="1"/>
      </contour>
      <contour>
        <pt x="24" y="0" on="1"/>
        <pt x="181" y="740" on="1"/>
        <pt x="408" y="740" on="1"/>
        <pt x="487" y="740" on="0"/>
        <pt x="590" y="683" on="0"/>
        <pt x="641" y="591" on="0"/>
        <pt x="641" y="540" on="1"/>
        <pt x="641" y="490" on="0"/>
        <pt x="594" y="393" on="0"/>
        <pt x="503" y="321" on="0"/>
        <pt x="436" y="308" on="1"/>
        <pt x="547" y="0" on="1"/>
        <pt x="426" y="0" on="1"/>
        <pt x="320" y="302" on="1"/>
        <pt x="205" y="302" on="1"/>
        <pt x="140" y="0" on="1"/>
      </contour>
      <contour>
        <pt x="405" y="638" on="1"/>
        <pt x="276" y="638" on="1"/>
        <pt x="225" y="400" on="1"/>
        <pt x="375" y="400" on="1"/>
        <pt x="423" y="400" on="0"/>
        <pt x="489" y="441" on="0"/>
        <pt x="523" y="502" on="0"/>
        <pt x="523" y="534" on="1"/>
        <pt x="523" y="575" on="0"/>
        <pt x="466" y="638" on="0"/>
      </contour>
    </TTGlyph>
    <TTGlyph name="Rcaron" xMin="24" yMin="0" xMax="641" yMax="983">
      <contour>
        <pt x="356" y="812" on="1"/>
        <pt x="268" y="983" on="1"/>
        <pt x="359" y="983" on="1"/>
        <pt x="410" y="877" on="1"/>
        <pt x="506" y="983" on="1"/>
        <pt x="610" y="983" on="1"/>
        <pt x="450" y="812" on="1"/>
      </contour>
      <contour>
        <pt x="24" y="0" on="1"/>
        <pt x="181" y="740" on="1"/>
        <pt x="408" y="740" on="1"/>
        <pt x="487" y="740" on="0"/>
        <pt x="590" y="683" on="0"/>
        <pt x="641" y="591" on="0"/>
        <pt x="641" y="540" on="1"/>
        <pt x="641" y="490" on="0"/>
        <pt x="594" y="393" on="0"/>
        <pt x="503" y="321" on="0"/>
        <pt x="436" y="308" on="1"/>
        <pt x="547" y="0" on="1"/>
        <pt x="426" y="0" on="1"/>
        <pt x="320" y="302" on="1"/>
        <pt x="205" y="302" on="1"/>
        <pt x="140" y="0" on="1"/>
      </contour>
      <contour>
        <pt x="405" y="638" on="1"/>
        <pt x="276" y="638" on="1"/>
        <pt x="225" y="400" on="1"/>
        <pt x="375" y="400" on="1"/>
        <pt x="423" y="400" on="0"/>
        <pt x="489" y="441" on="0"/>
        <pt x="523" y="502" on="0"/>
        <pt x="523" y="534" on="1"/>
        <pt x="523" y="575" on="0"/>
        <pt x="466" y="638" on="0"/>
      </contour>
    </TTGlyph>
    <TTGlyph name="S" xMin="37" yMin="-10" xMax="659" yMax="750">
      <contour>
        <pt x="319" y="-10" on="1"/>
        <pt x="246" y="-10" on="0"/>
        <pt x="147" y="24" on="0"/>
        <pt x="85" y="77" on="0"/>
        <pt x="52" y="137" on="0"/>
        <pt x="38" y="191" on="0"/>
        <pt x="37" y="224" on="0"/>
        <pt x="37" y="224" on="1"/>
        <pt x="154" y="224" on="1"/>
        <pt x="154" y="224" on="0"/>
        <pt x="156" y="197" on="0"/>
        <pt x="171" y="157" on="0"/>
        <pt x="206" y="116" on="0"/>
        <pt x="269" y="89" on="0"/>
        <pt x="320" y="89" on="1"/>
        <pt x="364" y="89" on="0"/>
        <pt x="435" y="118" on="0"/>
        <pt x="478" y="170" on="0"/>
        <pt x="478" y="206" on="1"/>
        <pt x="478" y="245" on="0"/>
        <pt x="421" y="293" on="0"/>
        <pt x="378" y="310" on="1"/>
        <pt x="294" y="344" on="1"/>
        <pt x="252" y="361" on="0"/>
        <pt x="181" y="410" on="0"/>
        <pt x="139" y="484" on="0"/>
        <pt x="139" y="537" on="1"/>
        <pt x="139" y="592" on="0"/>
        <pt x="200" y="689" on="0"/>
        <pt x="317" y="750" on="0"/>
        <pt x="402" y="750" on="1"/>
        <pt x="467" y="750" on="0"/>
        <pt x="557" y="719" on="0"/>
        <pt x="613" y="670" on="0"/>
        <pt x="644" y="615" on="0"/>
        <pt x="657" y="566" on="0"/>
        <pt x="659" y="534" on="0"/>
        <pt x="659" y="534" on="1"/>
        <pt x="546" y="534" on="1"/>
        <pt x="546" y="534" on="0"/>
        <pt x="540" y="570" on="0"/>
        <pt x="513" y="618" on="0"/>
        <pt x="454" y="654" on="0"/>
        <pt x="402" y="654" on="1"/>
        <pt x="333" y="654" on="0"/>
        <pt x="255" y="590" on="0"/>
        <pt x="255" y="544" on="1"/>
        <pt x="255" y="507" on="0"/>
        <pt x="303" y="459" on="0"/>
        <pt x="341" y="443" on="1"/>
        <pt x="420" y="411" on="1"/>
        <pt x="465" y="393" on="0"/>
        <pt x="545" y="343" on="0"/>
        <pt x="595" y="267" on="0"/>
        <pt x="595" y="209" on="1"/>
        <pt x="595" y="148" on="0"/>
        <pt x="525" y="49" on="0"/>
        <pt x="400" y="-10" on="0"/>
      </contour>
    </TTGlyph>
    <TTGlyph name="Sacute" xMin="36" yMin="-10" xMax="658" yMax="999">
      <contour>
        <pt x="497" y="818" on="1"/>
        <pt x="408" y="819" on="1"/>
        <pt x="498" y="999" on="1"/>
        <pt x="608" y="999" on="1"/>
      </contour>
      <contour>
        <pt x="318" y="-10" on="1"/>
        <pt x="245" y="-10" on="0"/>
        <pt x="146" y="24" on="0"/>
        <pt x="84" y="77" on="0"/>
        <pt x="51" y="137" on="0"/>
        <pt x="38" y="191" on="0"/>
        <pt x="36" y="224" on="0"/>
        <pt x="36" y="224" on="1"/>
        <pt x="153" y="224" on="1"/>
        <pt x="153" y="224" on="0"/>
        <pt x="155" y="197" on="0"/>
        <pt x="170" y="157" on="0"/>
        <pt x="205" y="116" on="0"/>
        <pt x="269" y="89" on="0"/>
        <pt x="320" y="89" on="1"/>
        <pt x="363" y="89" on="0"/>
        <pt x="435" y="118" on="0"/>
        <pt x="477" y="170" on="0"/>
        <pt x="477" y="206" on="1"/>
        <pt x="477" y="245" on="0"/>
        <pt x="420" y="293" on="0"/>
        <pt x="377" y="310" on="1"/>
        <pt x="293" y="344" on="1"/>
        <pt x="251" y="361" on="0"/>
        <pt x="180" y="410" on="0"/>
        <pt x="138" y="484" on="0"/>
        <pt x="138" y="537" on="1"/>
        <pt x="138" y="592" on="0"/>
        <pt x="199" y="689" on="0"/>
        <pt x="317" y="750" on="0"/>
        <pt x="401" y="750" on="1"/>
        <pt x="466" y="750" on="0"/>
        <pt x="556" y="719" on="0"/>
        <pt x="612" y="670" on="0"/>
        <pt x="643" y="615" on="0"/>
        <pt x="656" y="566" on="0"/>
        <pt x="658" y="534" on="0"/>
        <pt x="658" y="534" on="1"/>
        <pt x="545" y="534" on="1"/>
        <pt x="545" y="534" on="0"/>
        <pt x="539" y="570" on="0"/>
        <pt x="512" y="618" on="0"/>
        <pt x="453" y="654" on="0"/>
        <pt x="401" y="654" on="1"/>
        <pt x="332" y="654" on="0"/>
        <pt x="255" y="590" on="0"/>
        <pt x="255" y="544" on="1"/>
        <pt x="255" y="507" on="0"/>
        <pt x="302" y="459" on="0"/>
        <pt x="341" y="443" on="1"/>
        <pt x="419" y="411" on="1"/>
        <pt x="464" y="393" on="0"/>
        <pt x="544" y="343" on="0"/>
        <pt x="594" y="267" on="0"/>
        <pt x="594" y="209" on="1"/>
        <pt x="594" y="148" on="0"/>
        <pt x="524" y="49" on="0"/>
        <pt x="400" y="-10" on="0"/>
      </contour>
    </TTGlyph>
    <TTGlyph name="Scaron" xMin="36" yMin="-10" xMax="658" yMax="983">
      <contour>
        <pt x="394" y="812" on="1"/>
        <pt x="306" y="983" on="1"/>
        <pt x="397" y="983" on="1"/>
        <pt x="448" y="877" on="1"/>
        <pt x="545" y="983" on="1"/>
        <pt x="648" y="983" on="1"/>
        <pt x="488" y="812" on="1"/>
      </contour>
      <contour>
        <pt x="318" y="-10" on="1"/>
        <pt x="245" y="-10" on="0"/>
        <pt x="146" y="24" on="0"/>
        <pt x="84" y="77" on="0"/>
        <pt x="51" y="137" on="0"/>
        <pt x="38" y="191" on="0"/>
        <pt x="36" y="224" on="0"/>
        <pt x="36" y="224" on="1"/>
        <pt x="153" y="224" on="1"/>
        <pt x="153" y="224" on="0"/>
        <pt x="155" y="197" on="0"/>
        <pt x="170" y="157" on="0"/>
        <pt x="205" y="116" on="0"/>
        <pt x="269" y="89" on="0"/>
        <pt x="320" y="89" on="1"/>
        <pt x="363" y="89" on="0"/>
        <pt x="435" y="118" on="0"/>
        <pt x="477" y="170" on="0"/>
        <pt x="477" y="206" on="1"/>
        <pt x="477" y="245" on="0"/>
        <pt x="420" y="293" on="0"/>
        <pt x="377" y="310" on="1"/>
        <pt x="293" y="344" on="1"/>
        <pt x="251" y="361" on="0"/>
        <pt x="180" y="410" on="0"/>
        <pt x="138" y="484" on="0"/>
        <pt x="138" y="537" on="1"/>
        <pt x="138" y="592" on="0"/>
        <pt x="199" y="689" on="0"/>
        <pt x="317" y="750" on="0"/>
        <pt x="401" y="750" on="1"/>
        <pt x="466" y="750" on="0"/>
        <pt x="556" y="719" on="0"/>
        <pt x="612" y="670" on="0"/>
        <pt x="643" y="615" on="0"/>
        <pt x="656" y="566" on="0"/>
        <pt x="658" y="534" on="0"/>
        <pt x="658" y="534" on="1"/>
        <pt x="545" y="534" on="1"/>
        <pt x="545" y="534" on="0"/>
        <pt x="539" y="570" on="0"/>
        <pt x="512" y="618" on="0"/>
        <pt x="453" y="654" on="0"/>
        <pt x="401" y="654" on="1"/>
        <pt x="332" y="654" on="0"/>
        <pt x="255" y="590" on="0"/>
        <pt x="255" y="544" on="1"/>
        <pt x="255" y="507" on="0"/>
        <pt x="302" y="459" on="0"/>
        <pt x="341" y="443" on="1"/>
        <pt x="419" y="411" on="1"/>
        <pt x="464" y="393" on="0"/>
        <pt x="544" y="343" on="0"/>
        <pt x="594" y="267" on="0"/>
        <pt x="594" y="209" on="1"/>
        <pt x="594" y="148" on="0"/>
        <pt x="524" y="49" on="0"/>
        <pt x="400" y="-10" on="0"/>
      </contour>
    </TTGlyph>
    <TTGlyph name="Scedilla" xMin="36" yMin="-261" xMax="658" yMax="750">
      <contour>
        <pt x="235" y="-261" on="1"/>
        <pt x="203" y="-261" on="0"/>
        <pt x="155" y="-250" on="0"/>
        <pt x="155" y="-250" on="1"/>
        <pt x="165" y="-186" on="1"/>
        <pt x="165" y="-186" on="0"/>
        <pt x="189" y="-190" on="0"/>
        <pt x="222" y="-195" on="0"/>
        <pt x="236" y="-195" on="1"/>
        <pt x="276" y="-195" on="0"/>
        <pt x="305" y="-165" on="0"/>
        <pt x="305" y="-148" on="1"/>
        <pt x="305" y="-132" on="0"/>
        <pt x="280" y="-108" on="0"/>
        <pt x="254" y="-108" on="1"/>
        <pt x="233" y="-108" on="0"/>
        <pt x="206" y="-122" on="0"/>
        <pt x="207" y="-122" on="1"/>
        <pt x="175" y="-82" on="1"/>
        <pt x="243" y="-4" on="1"/>
        <pt x="178" y="7" on="0"/>
        <pt x="99" y="59" on="0"/>
        <pt x="56" y="124" on="0"/>
        <pt x="38" y="185" on="0"/>
        <pt x="36" y="224" on="0"/>
        <pt x="36" y="224" on="1"/>
        <pt x="153" y="224" on="1"/>
        <pt x="153" y="224" on="0"/>
        <pt x="155" y="197" on="0"/>
        <pt x="170" y="157" on="0"/>
        <pt x="205" y="116" on="0"/>
        <pt x="269" y="89" on="0"/>
        <pt x="320" y="89" on="1"/>
        <pt x="363" y="89" on="0"/>
        <pt x="435" y="118" on="0"/>
        <pt x="477" y="170" on="0"/>
        <pt x="477" y="206" on="1"/>
        <pt x="477" y="245" on="0"/>
        <pt x="420" y="293" on="0"/>
        <pt x="377" y="310" on="1"/>
        <pt x="293" y="344" on="1"/>
        <pt x="251" y="361" on="0"/>
        <pt x="180" y="410" on="0"/>
        <pt x="138" y="484" on="0"/>
        <pt x="138" y="537" on="1"/>
        <pt x="138" y="592" on="0"/>
        <pt x="199" y="689" on="0"/>
        <pt x="317" y="750" on="0"/>
        <pt x="401" y="750" on="1"/>
        <pt x="466" y="750" on="0"/>
        <pt x="556" y="719" on="0"/>
        <pt x="612" y="670" on="0"/>
        <pt x="643" y="615" on="0"/>
        <pt x="656" y="566" on="0"/>
        <pt x="658" y="534" on="0"/>
        <pt x="658" y="534" on="1"/>
        <pt x="545" y="534" on="1"/>
        <pt x="545" y="534" on="0"/>
        <pt x="539" y="570" on="0"/>
        <pt x="512" y="618" on="0"/>
        <pt x="453" y="654" on="0"/>
        <pt x="401" y="654" on="1"/>
        <pt x="332" y="654" on="0"/>
        <pt x="255" y="590" on="0"/>
        <pt x="255" y="544" on="1"/>
        <pt x="255" y="507" on="0"/>
        <pt x="302" y="459" on="0"/>
        <pt x="341" y="443" on="1"/>
        <pt x="419" y="411" on="1"/>
        <pt x="464" y="393" on="0"/>
        <pt x="544" y="343" on="0"/>
        <pt x="594" y="267" on="0"/>
        <pt x="594" y="209" on="1"/>
        <pt x="594" y="148" on="0"/>
        <pt x="524" y="49" on="0"/>
        <pt x="400" y="-10" on="0"/>
        <pt x="319" y="-10" on="1"/>
        <pt x="280" y="-54" on="1"/>
        <pt x="285" y="-54" on="1"/>
        <pt x="335" y="-54" on="0"/>
        <pt x="388" y="-110" on="0"/>
        <pt x="388" y="-147" on="1"/>
        <pt x="388" y="-175" on="0"/>
        <pt x="357" y="-227" on="0"/>
        <pt x="289" y="-261" on="0"/>
      </contour>
    </TTGlyph>
    <TTGlyph name="T" xMin="114" yMin="0" xMax="728" yMax="740">
      <contour>
        <pt x="216" y="0" on="1"/>
        <pt x="351" y="638" on="1"/>
        <pt x="114" y="638" on="1"/>
        <pt x="136" y="740" on="1"/>
        <pt x="728" y="740" on="1"/>
        <pt x="706" y="638" on="1"/>
        <pt x="468" y="638" on="1"/>
        <pt x="333" y="0" on="1"/>
      </contour>
    </TTGlyph>
    <TTGlyph name="Tbar" xMin="110" yMin="0" xMax="712" yMax="740">
      <contour>
        <pt x="208" y="0" on="1"/>
        <pt x="276" y="323" on="1"/>
        <pt x="110" y="323" on="1"/>
        <pt x="130" y="417" on="1"/>
        <pt x="296" y="417" on="1"/>
        <pt x="343" y="638" on="1"/>
        <pt x="114" y="638" on="1"/>
        <pt x="136" y="740" on="1"/>
        <pt x="712" y="740" on="1"/>
        <pt x="690" y="638" on="1"/>
        <pt x="460" y="638" on="1"/>
        <pt x="413" y="417" on="1"/>
        <pt x="598" y="417" on="1"/>
        <pt x="577" y="323" on="1"/>
        <pt x="393" y="323" on="1"/>
        <pt x="325" y="0" on="1"/>
      </contour>
    </TTGlyph>
    <TTGlyph name="Tcaron" xMin="114" yMin="0" xMax="712" yMax="983">
      <contour>
        <pt x="385" y="812" on="1"/>
        <pt x="298" y="983" on="1"/>
        <pt x="388" y="983" on="1"/>
        <pt x="440" y="877" on="1"/>
        <pt x="536" y="983" on="1"/>
        <pt x="639" y="983" on="1"/>
        <pt x="480" y="812" on="1"/>
      </contour>
      <contour>
        <pt x="208" y="0" on="1"/>
        <pt x="343" y="638" on="1"/>
        <pt x="114" y="638" on="1"/>
        <pt x="136" y="740" on="1"/>
        <pt x="712" y="740" on="1"/>
        <pt x="690" y="638" on="1"/>
        <pt x="460" y="638" on="1"/>
        <pt x="325" y="0" on="1"/>
      </contour>
    </TTGlyph>
    <TTGlyph name="Thorn" xMin="24" yMin="0" xMax="643" yMax="740">
      <contour>
        <pt x="24" y="0" on="1"/>
        <pt x="181" y="740" on="1"/>
        <pt x="297" y="740" on="1"/>
        <pt x="271" y="614" on="1"/>
        <pt x="400" y="614" on="1"/>
        <pt x="483" y="614" on="0"/>
        <pt x="591" y="552" on="0"/>
        <pt x="643" y="452" on="0"/>
        <pt x="643" y="395" on="1"/>
        <pt x="643" y="347" on="0"/>
        <pt x="605" y="251" on="0"/>
        <pt x="530" y="173" on="0"/>
        <pt x="421" y="126" on="0"/>
        <pt x="350" y="126" on="1"/>
        <pt x="167" y="126" on="1"/>
        <pt x="140" y="0" on="1"/>
      </contour>
      <contour>
        <pt x="389" y="512" on="1"/>
        <pt x="249" y="512" on="1"/>
        <pt x="189" y="228" on="1"/>
        <pt x="358" y="228" on="1"/>
        <pt x="412" y="228" on="0"/>
        <pt x="487" y="276" on="0"/>
        <pt x="526" y="349" on="0"/>
        <pt x="526" y="387" on="1"/>
        <pt x="526" y="419" on="0"/>
        <pt x="496" y="476" on="0"/>
        <pt x="436" y="512" on="0"/>
      </contour>
    </TTGlyph>
    <TTGlyph name="U" xMin="64" yMin="-10" xMax="756" yMax="740">
      <contour>
        <pt x="318" y="-10" on="1"/>
        <pt x="236" y="-10" on="0"/>
        <pt x="116" y="58" on="0"/>
        <pt x="64" y="192" on="0"/>
        <pt x="85" y="293" on="1"/>
        <pt x="181" y="740" on="1"/>
        <pt x="297" y="740" on="1"/>
        <pt x="200" y="283" on="1"/>
        <pt x="183" y="201" on="0"/>
        <pt x="248" y="100" on="0"/>
        <pt x="334" y="100" on="1"/>
        <pt x="415" y="100" on="0"/>
        <pt x="524" y="201" on="0"/>
        <pt x="542" y="283" on="1"/>
        <pt x="639" y="740" on="1"/>
        <pt x="756" y="740" on="1"/>
        <pt x="658" y="279" on="1"/>
        <pt x="628" y="136" on="0"/>
        <pt x="446" y="-10" on="0"/>
      </contour>
    </TTGlyph>
    <TTGlyph name="Uacute" xMin="64" yMin="-10" xMax="756" yMax="999">
      <contour>
        <pt x="533" y="818" on="1"/>
        <pt x="444" y="819" on="1"/>
        <pt x="534" y="999" on="1"/>
        <pt x="644" y="999" on="1"/>
      </contour>
      <contour>
        <pt x="318" y="-10" on="1"/>
        <pt x="236" y="-10" on="0"/>
        <pt x="116" y="58" on="0"/>
        <pt x="64" y="192" on="0"/>
        <pt x="85" y="293" on="1"/>
        <pt x="181" y="740" on="1"/>
        <pt x="297" y="740" on="1"/>
        <pt x="200" y="283" on="1"/>
        <pt x="183" y="201" on="0"/>
        <pt x="248" y="100" on="0"/>
        <pt x="334" y="100" on="1"/>
        <pt x="415" y="100" on="0"/>
        <pt x="524" y="201" on="0"/>
        <pt x="542" y="283" on="1"/>
        <pt x="639" y="740" on="1"/>
        <pt x="756" y="740" on="1"/>
        <pt x="658" y="279" on="1"/>
        <pt x="628" y="136" on="0"/>
        <pt x="446" y="-10" on="0"/>
      </contour>
    </TTGlyph>
    <TTGlyph name="Ucircumflex" xMin="64" yMin="-10" xMax="756" yMax="984">
      <contour>
        <pt x="309" y="813" on="1"/>
        <pt x="469" y="984" on="1"/>
        <pt x="563" y="984" on="1"/>
        <pt x="651" y="813" on="1"/>
        <pt x="560" y="813" on="1"/>
        <pt x="509" y="919" on="1"/>
        <pt x="413" y="813" on="1"/>
      </contour>
      <contour>
        <pt x="318" y="-10" on="1"/>
        <pt x="236" y="-10" on="0"/>
        <pt x="116" y="58" on="0"/>
        <pt x="64" y="192" on="0"/>
        <pt x="85" y="293" on="1"/>
        <pt x="181" y="740" on="1"/>
        <pt x="297" y="740" on="1"/>
        <pt x="200" y="283" on="1"/>
        <pt x="183" y="201" on="0"/>
        <pt x="248" y="100" on="0"/>
        <pt x="334" y="100" on="1"/>
        <pt x="415" y="100" on="0"/>
        <pt x="524" y="201" on="0"/>
        <pt x="542" y="283" on="1"/>
        <pt x="639" y="740" on="1"/>
        <pt x="756" y="740" on="1"/>
        <pt x="658" y="279" on="1"/>
        <pt x="628" y="136" on="0"/>
        <pt x="446" y="-10" on="0"/>
      </contour>
    </TTGlyph>
    <TTGlyph name="Udieresis" xMin="64" yMin="-10" xMax="756" yMax="952">
      <contour>
        <pt x="596" y="814" on="1"/>
        <pt x="565" y="814" on="0"/>
        <pt x="526" y="855" on="0"/>
        <pt x="526" y="883" on="1"/>
        <pt x="526" y="912" on="0"/>
        <pt x="565" y="952" on="0"/>
        <pt x="596" y="952" on="1"/>
        <pt x="626" y="952" on="0"/>
        <pt x="666" y="912" on="0"/>
        <pt x="666" y="883" on="1"/>
        <pt x="666" y="854" on="0"/>
        <pt x="626" y="814" on="0"/>
      </contour>
      <contour>
        <pt x="394" y="814" on="1"/>
        <pt x="363" y="814" on="0"/>
        <pt x="324" y="855" on="0"/>
        <pt x="324" y="883" on="1"/>
        <pt x="324" y="912" on="0"/>
        <pt x="363" y="952" on="0"/>
        <pt x="394" y="952" on="1"/>
        <pt x="424" y="952" on="0"/>
        <pt x="464" y="912" on="0"/>
        <pt x="464" y="883" on="1"/>
        <pt x="464" y="854" on="0"/>
        <pt x="424" y="814" on="0"/>
      </contour>
      <contour>
        <pt x="318" y="-10" on="1"/>
        <pt x="236" y="-10" on="0"/>
        <pt x="116" y="58" on="0"/>
        <pt x="64" y="192" on="0"/>
        <pt x="85" y="293" on="1"/>
        <pt x="181" y="740" on="1"/>
        <pt x="297" y="740" on="1"/>
        <pt x="200" y="283" on="1"/>
        <pt x="183" y="201" on="0"/>
        <pt x="248" y="100" on="0"/>
        <pt x="334" y="100" on="1"/>
        <pt x="415" y="100" on="0"/>
        <pt x="524" y="201" on="0"/>
        <pt x="542" y="283" on="1"/>
        <pt x="639" y="740" on="1"/>
        <pt x="756" y="740" on="1"/>
        <pt x="658" y="279" on="1"/>
        <pt x="628" y="136" on="0"/>
        <pt x="446" y="-10" on="0"/>
      </contour>
    </TTGlyph>
    <TTGlyph name="Ugrave" xMin="64" yMin="-10" xMax="756" yMax="999">
      <contour>
        <pt x="428" y="818" on="1"/>
        <pt x="341" y="999" on="1"/>
        <pt x="448" y="999" on="1"/>
        <pt x="514" y="819" on="1"/>
      </contour>
      <contour>
        <pt x="318" y="-10" on="1"/>
        <pt x="236" y="-10" on="0"/>
        <pt x="116" y="58" on="0"/>
        <pt x="64" y="192" on="0"/>
        <pt x="85" y="293" on="1"/>
        <pt x="181" y="740" on="1"/>
        <pt x="297" y="740" on="1"/>
        <pt x="200" y="283" on="1"/>
        <pt x="183" y="201" on="0"/>
        <pt x="248" y="100" on="0"/>
        <pt x="334" y="100" on="1"/>
        <pt x="415" y="100" on="0"/>
        <pt x="524" y="201" on="0"/>
        <pt x="542" y="283" on="1"/>
        <pt x="639" y="740" on="1"/>
        <pt x="756" y="740" on="1"/>
        <pt x="658" y="279" on="1"/>
        <pt x="628" y="136" on="0"/>
        <pt x="446" y="-10" on="0"/>
      </contour>
    </TTGlyph>
    <TTGlyph name="Uhorn" xMin="64" yMin="-10" xMax="889" yMax="844">
      <contour>
        <pt x="318" y="-10" on="1"/>
        <pt x="236" y="-10" on="0"/>
        <pt x="116" y="58" on="0"/>
        <pt x="64" y="192" on="0"/>
        <pt x="85" y="293" on="1"/>
        <pt x="181" y="740" on="1"/>
        <pt x="297" y="740" on="1"/>
        <pt x="200" y="283" on="1"/>
        <pt x="183" y="201" on="0"/>
        <pt x="248" y="100" on="0"/>
        <pt x="334" y="100" on="1"/>
        <pt x="415" y="100" on="0"/>
        <pt x="524" y="201" on="0"/>
        <pt x="542" y="283" on="1"/>
        <pt x="639" y="740" on="1"/>
        <pt x="722" y="740" on="1"/>
        <pt x="745" y="740" on="0"/>
        <pt x="769" y="759" on="0"/>
        <pt x="774" y="781" on="1"/>
        <pt x="787" y="844" on="1"/>
        <pt x="889" y="844" on="1"/>
        <pt x="871" y="761" on="1"/>
        <pt x="862" y="717" on="0"/>
        <pt x="808" y="670" on="0"/>
        <pt x="760" y="670" on="1"/>
        <pt x="741" y="670" on="1"/>
        <pt x="658" y="279" on="1"/>
        <pt x="628" y="136" on="0"/>
        <pt x="446" y="-10" on="0"/>
      </contour>
    </TTGlyph>
    <TTGlyph name="Uhungarumlaut" xMin="64" yMin="-10" xMax="756" yMax="999">
      <contour>
        <pt x="440" y="818" on="1"/>
        <pt x="348" y="819" on="1"/>
        <pt x="444" y="999" on="1"/>
        <pt x="557" y="999" on="1"/>
      </contour>
      <contour>
        <pt x="612" y="818" on="1"/>
        <pt x="517" y="819" on="1"/>
        <pt x="624" y="999" on="1"/>
        <pt x="739" y="999" on="1"/>
      </contour>
      <contour>
        <pt x="318" y="-10" on="1"/>
        <pt x="236" y="-10" on="0"/>
        <pt x="116" y="58" on="0"/>
        <pt x="64" y="192" on="0"/>
        <pt x="85" y="293" on="1"/>
        <pt x="181" y="740" on="1"/>
        <pt x="297" y="740" on="1"/>
        <pt x="200" y="283" on="1"/>
        <pt x="183" y="201" on="0"/>
        <pt x="248" y="100" on="0"/>
        <pt x="334" y="100" on="1"/>
        <pt x="415" y="100" on="0"/>
        <pt x="524" y="201" on="0"/>
        <pt x="542" y="283" on="1"/>
        <pt x="639" y="740" on="1"/>
        <pt x="756" y="740" on="1"/>
        <pt x="658" y="279" on="1"/>
        <pt x="628" y="136" on="0"/>
        <pt x="446" y="-10" on="0"/>
      </contour>
    </TTGlyph>
    <TTGlyph name="Umacron" xMin="64" yMin="-10" xMax="756" yMax="923">
      <contour>
        <pt x="331" y="845" on="1"/>
        <pt x="348" y="923" on="1"/>
        <pt x="659" y="923" on="1"/>
        <pt x="642" y="845" on="1"/>
      </contour>
      <contour>
        <pt x="318" y="-10" on="1"/>
        <pt x="236" y="-10" on="0"/>
        <pt x="116" y="58" on="0"/>
        <pt x="64" y="192" on="0"/>
        <pt x="85" y="293" on="1"/>
        <pt x="181" y="740" on="1"/>
        <pt x="297" y="740" on="1"/>
        <pt x="200" y="283" on="1"/>
        <pt x="183" y="201" on="0"/>
        <pt x="248" y="100" on="0"/>
        <pt x="334" y="100" on="1"/>
        <pt x="415" y="100" on="0"/>
        <pt x="524" y="201" on="0"/>
        <pt x="542" y="283" on="1"/>
        <pt x="639" y="740" on="1"/>
        <pt x="756" y="740" on="1"/>
        <pt x="658" y="279" on="1"/>
        <pt x="628" y="136" on="0"/>
        <pt x="446" y="-10" on="0"/>
      </contour>
    </TTGlyph>
    <TTGlyph name="Uogonek" xMin="66" yMin="-178" xMax="756" yMax="740">
      <contour>
        <pt x="316" y="-178" on="1"/>
        <pt x="263" y="-178" on="0"/>
        <pt x="207" y="-133" on="0"/>
        <pt x="207" y="-97" on="1"/>
        <pt x="207" y="-64" on="0"/>
        <pt x="247" y="-20" on="0"/>
        <pt x="270" y="-7" on="1"/>
        <pt x="202" y="2" on="0"/>
        <pt x="105" y="76" on="0"/>
        <pt x="66" y="203" on="0"/>
        <pt x="85" y="293" on="1"/>
        <pt x="181" y="740" on="1"/>
        <pt x="297" y="740" on="1"/>
        <pt x="200" y="283" on="1"/>
        <pt x="183" y="201" on="0"/>
        <pt x="248" y="100" on="0"/>
        <pt x="334" y="100" on="1"/>
        <pt x="415" y="100" on="0"/>
        <pt x="524" y="201" on="0"/>
        <pt x="542" y="283" on="1"/>
        <pt x="639" y="740" on="1"/>
        <pt x="756" y="740" on="1"/>
        <pt x="658" y="279" on="1"/>
        <pt x="630" y="147" on="0"/>
        <pt x="469" y="2" on="0"/>
        <pt x="355" y="-8" on="1"/>
        <pt x="347" y="-12" on="0"/>
        <pt x="317" y="-30" on="0"/>
        <pt x="294" y="-57" on="0"/>
        <pt x="294" y="-75" on="1"/>
        <pt x="294" y="-91" on="0"/>
        <pt x="317" y="-110" on="0"/>
        <pt x="343" y="-110" on="1"/>
        <pt x="356" y="-110" on="0"/>
        <pt x="379" y="-105" on="0"/>
        <pt x="379" y="-105" on="1"/>
        <pt x="365" y="-172" on="1"/>
        <pt x="365" y="-172" on="0"/>
        <pt x="338" y="-178" on="0"/>
      </contour>
    </TTGlyph>
    <TTGlyph name="Uring" xMin="64" yMin="-10" xMax="756" yMax="1068">
      <contour>
        <pt x="473" y="807" on="1"/>
        <pt x="436" y="807" on="0"/>
        <pt x="377" y="842" on="0"/>
        <pt x="341" y="902" on="0"/>
        <pt x="341" y="938" on="1"/>
        <pt x="341" y="974" on="0"/>
        <pt x="377" y="1033" on="0"/>
        <pt x="436" y="1068" on="0"/>
        <pt x="473" y="1068" on="1"/>
        <pt x="508" y="1068" on="0"/>
        <pt x="568" y="1033" on="0"/>
        <pt x="603" y="974" on="0"/>
        <pt x="603" y="938" on="1"/>
        <pt x="603" y="902" on="0"/>
        <pt x="568" y="842" on="0"/>
        <pt x="508" y="807" on="0"/>
      </contour>
      <contour>
        <pt x="473" y="880" on="1"/>
        <pt x="497" y="880" on="0"/>
        <pt x="531" y="914" on="0"/>
        <pt x="531" y="938" on="1"/>
        <pt x="531" y="962" on="0"/>
        <pt x="497" y="996" on="0"/>
        <pt x="473" y="996" on="1"/>
        <pt x="448" y="996" on="0"/>
        <pt x="414" y="962" on="0"/>
        <pt x="414" y="938" on="1"/>
        <pt x="414" y="914" on="0"/>
        <pt x="448" y="880" on="0"/>
      </contour>
      <contour>
        <pt x="318" y="-10" on="1"/>
        <pt x="236" y="-10" on="0"/>
        <pt x="116" y="58" on="0"/>
        <pt x="64" y="192" on="0"/>
        <pt x="85" y="293" on="1"/>
        <pt x="181" y="740" on="1"/>
        <pt x="297" y="740" on="1"/>
        <pt x="200" y="283" on="1"/>
        <pt x="183" y="201" on="0"/>
        <pt x="248" y="100" on="0"/>
        <pt x="334" y="100" on="1"/>
        <pt x="415" y="100" on="0"/>
        <pt x="524" y="201" on="0"/>
        <pt x="542" y="283" on="1"/>
        <pt x="639" y="740" on="1"/>
        <pt x="756" y="740" on="1"/>
        <pt x="658" y="279" on="1"/>
        <pt x="628" y="136" on="0"/>
        <pt x="446" y="-10" on="0"/>
      </contour>
    </TTGlyph>
    <TTGlyph name="Utilde" xMin="64" yMin="-10" xMax="756" yMax="968">
      <contour>
        <pt x="564" y="825" on="1"/>
        <pt x="538" y="825" on="0"/>
        <pt x="501" y="846" on="0"/>
        <pt x="474" y="873" on="0"/>
        <pt x="449" y="894" on="0"/>
        <pt x="435" y="894" on="1"/>
        <pt x="420" y="894" on="0"/>
        <pt x="400" y="861" on="0"/>
        <pt x="395" y="831" on="1"/>
        <pt x="327" y="831" on="1"/>
        <pt x="339" y="890" on="0"/>
        <pt x="386" y="968" on="0"/>
        <pt x="437" y="968" on="1"/>
        <pt x="463" y="968" on="0"/>
        <pt x="500" y="948" on="0"/>
        <pt x="528" y="921" on="0"/>
        <pt x="552" y="901" on="0"/>
        <pt x="565" y="901" on="1"/>
        <pt x="581" y="901" on="0"/>
        <pt x="599" y="933" on="0"/>
        <pt x="605" y="963" on="1"/>
        <pt x="673" y="963" on="1"/>
        <pt x="661" y="904" on="0"/>
        <pt x="614" y="825" on="0"/>
      </contour>
      <contour>
        <pt x="318" y="-10" on="1"/>
        <pt x="236" y="-10" on="0"/>
        <pt x="116" y="58" on="0"/>
        <pt x="64" y="192" on="0"/>
        <pt x="85" y="293" on="1"/>
        <pt x="181" y="740" on="1"/>
        <pt x="297" y="740" on="1"/>
        <pt x="200" y="283" on="1"/>
        <pt x="183" y="201" on="0"/>
        <pt x="248" y="100" on="0"/>
        <pt x="334" y="100" on="1"/>
        <pt x="415" y="100" on="0"/>
        <pt x="524" y="201" on="0"/>
        <pt x="542" y="283" on="1"/>
        <pt x="639" y="740" on="1"/>
        <pt x="756" y="740" on="1"/>
        <pt x="658" y="279" on="1"/>
        <pt x="628" y="136" on="0"/>
        <pt x="446" y="-10" on="0"/>
      </contour>
    </TTGlyph>
    <TTGlyph name="V" xMin="109" yMin="0" xMax="770" yMax="740">
      <contour>
        <pt x="210" y="0" on="1"/>
        <pt x="109" y="740" on="1"/>
        <pt x="223" y="740" on="1"/>
        <pt x="302" y="130" on="1"/>
        <pt x="641" y="740" on="1"/>
        <pt x="770" y="740" on="1"/>
        <pt x="354" y="0" on="1"/>
      </contour>
    </TTGlyph>
    <TTGlyph name="W" xMin="119" yMin="0" xMax="1062" yMax="740">
      <contour>
        <pt x="154" y="0" on="1"/>
        <pt x="119" y="740" on="1"/>
        <pt x="231" y="740" on="1"/>
        <pt x="256" y="161" on="1"/>
        <pt x="528" y="740" on="1"/>
        <pt x="644" y="740" on="1"/>
        <pt x="674" y="162" on="1"/>
        <pt x="938" y="740" on="1"/>
        <pt x="1062" y="740" on="1"/>
        <pt x="715" y="0" on="1"/>
        <pt x="577" y="0" on="1"/>
        <pt x="548" y="546" on="1"/>
        <pt x="291" y="0" on="1"/>
      </contour>
    </TTGlyph>
    <TTGlyph name="Wacute" xMin="109" yMin="0" xMax="1052" yMax="999">
      <contour>
        <pt x="649" y="818" on="1"/>
        <pt x="560" y="819" on="1"/>
        <pt x="650" y="999" on="1"/>
        <pt x="760" y="999" on="1"/>
      </contour>
      <contour>
        <pt x="144" y="0" on="1"/>
        <pt x="109" y="740" on="1"/>
        <pt x="221" y="740" on="1"/>
        <pt x="246" y="161" on="1"/>
        <pt x="518" y="740" on="1"/>
        <pt x="634" y="740" on="1"/>
        <pt x="664" y="162" on="1"/>
        <pt x="928" y="740" on="1"/>
        <pt x="1052" y="740" on="1"/>
        <pt x="705" y="0" on="1"/>
        <pt x="567" y="0" on="1"/>
        <pt x="538" y="546" on="1"/>
        <pt x="281" y="0" on="1"/>
      </contour>
    </TTGlyph>
    <TTGlyph name="Wcircumflex" xMin="109" yMin="0" xMax="1052" yMax="984">
      <contour>
        <pt x="425" y="813" on="1"/>
        <pt x="585" y="984" on="1"/>
        <pt x="679" y="984" on="1"/>
        <pt x="767" y="813" on="1"/>
        <pt x="676" y="813" on="1"/>
        <pt x="625" y="919" on="1"/>
        <pt x="528" y="813" on="1"/>
      </contour>
      <contour>
        <pt x="144" y="0" on="1"/>
        <pt x="109" y="740" on="1"/>
        <pt x="221" y="740" on="1"/>
        <pt x="246" y="161" on="1"/>
        <pt x="518" y="740" on="1"/>
        <pt x="634" y="740" on="1"/>
        <pt x="664" y="162" on="1"/>
        <pt x="928" y="740" on="1"/>
        <pt x="1052" y="740" on="1"/>
        <pt x="705" y="0" on="1"/>
        <pt x="567" y="0" on="1"/>
        <pt x="538" y="546" on="1"/>
        <pt x="281" y="0" on="1"/>
      </contour>
    </TTGlyph>
    <TTGlyph name="Wdieresis" xMin="109" yMin="0" xMax="1052" yMax="952">
      <contour>
        <pt x="711" y="814" on="1"/>
        <pt x="681" y="814" on="0"/>
        <pt x="641" y="855" on="0"/>
        <pt x="641" y="883" on="1"/>
        <pt x="641" y="912" on="0"/>
        <pt x="681" y="952" on="0"/>
        <pt x="711" y="952" on="1"/>
        <pt x="741" y="952" on="0"/>
        <pt x="781" y="912" on="0"/>
        <pt x="781" y="883" on="1"/>
        <pt x="781" y="854" on="0"/>
        <pt x="741" y="814" on="0"/>
      </contour>
      <contour>
        <pt x="509" y="814" on="1"/>
        <pt x="479" y="814" on="0"/>
        <pt x="439" y="855" on="0"/>
        <pt x="439" y="883" on="1"/>
        <pt x="439" y="912" on="0"/>
        <pt x="479" y="952" on="0"/>
        <pt x="509" y="952" on="1"/>
        <pt x="539" y="952" on="0"/>
        <pt x="579" y="912" on="0"/>
        <pt x="579" y="883" on="1"/>
        <pt x="579" y="854" on="0"/>
        <pt x="539" y="814" on="0"/>
      </contour>
      <contour>
        <pt x="144" y="0" on="1"/>
        <pt x="109" y="740" on="1"/>
        <pt x="221" y="740" on="1"/>
        <pt x="246" y="161" on="1"/>
        <pt x="518" y="740" on="1"/>
        <pt x="634" y="740" on="1"/>
        <pt x="664" y="162" on="1"/>
        <pt x="928" y="740" on="1"/>
        <pt x="1052" y="740" on="1"/>
        <pt x="705" y="0" on="1"/>
        <pt x="567" y="0" on="1"/>
        <pt x="538" y="546" on="1"/>
        <pt x="281" y="0" on="1"/>
      </contour>
    </TTGlyph>
    <TTGlyph name="Wgrave" xMin="109" yMin="0" xMax="1052" yMax="999">
      <contour>
        <pt x="544" y="818" on="1"/>
        <pt x="456" y="999" on="1"/>
        <pt x="564" y="999" on="1"/>
        <pt x="630" y="819" on="1"/>
      </contour>
      <contour>
        <pt x="144" y="0" on="1"/>
        <pt x="109" y="740" on="1"/>
        <pt x="221" y="740" on="1"/>
        <pt x="246" y="161" on="1"/>
        <pt x="518" y="740" on="1"/>
        <pt x="634" y="740" on="1"/>
        <pt x="664" y="162" on="1"/>
        <pt x="928" y="740" on="1"/>
        <pt x="1052" y="740" on="1"/>
        <pt x="705" y="0" on="1"/>
        <pt x="567" y="0" on="1"/>
        <pt x="538" y="546" on="1"/>
        <pt x="281" y="0" on="1"/>
      </contour>
    </TTGlyph>
    <TTGlyph name="X" xMin="-13" yMin="0" xMax="789" yMax="740">
      <contour>
        <pt x="-13" y="0" on="1"/>
        <pt x="315" y="388" on="1"/>
        <pt x="166" y="740" on="1"/>
        <pt x="294" y="740" on="1"/>
        <pt x="407" y="462" on="1"/>
        <pt x="639" y="740" on="1"/>
        <pt x="789" y="740" on="1"/>
        <pt x="464" y="358" on="1"/>
        <pt x="617" y="0" on="1"/>
        <pt x="489" y="0" on="1"/>
        <pt x="373" y="283" on="1"/>
        <pt x="138" y="0" on="1"/>
      </contour>
    </TTGlyph>
    <TTGlyph name="Y" xMin="97" yMin="0" xMax="732" yMax="740">
      <contour>
        <pt x="199" y="0" on="1"/>
        <pt x="254" y="262" on="1"/>
        <pt x="97" y="740" on="1"/>
        <pt x="216" y="740" on="1"/>
        <pt x="330" y="382" on="1"/>
        <pt x="594" y="740" on="1"/>
        <pt x="732" y="740" on="1"/>
        <pt x="370" y="259" on="1"/>
        <pt x="315" y="0" on="1"/>
      </contour>
    </TTGlyph>
    <TTGlyph name="Yacute" xMin="97" yMin="0" xMax="732" yMax="999">
      <contour>
        <pt x="479" y="818" on="1"/>
        <pt x="390" y="819" on="1"/>
        <pt x="479" y="999" on="1"/>
        <pt x="589" y="999" on="1"/>
      </contour>
      <contour>
        <pt x="199" y="0" on="1"/>
        <pt x="254" y="262" on="1"/>
        <pt x="97" y="740" on="1"/>
        <pt x="216" y="740" on="1"/>
        <pt x="330" y="382" on="1"/>
        <pt x="594" y="740" on="1"/>
        <pt x="732" y="740" on="1"/>
        <pt x="370" y="259" on="1"/>
        <pt x="315" y="0" on="1"/>
      </contour>
    </TTGlyph>
    <TTGlyph name="Ycircumflex" xMin="97" yMin="0" xMax="732" yMax="984">
      <contour>
        <pt x="255" y="813" on="1"/>
        <pt x="415" y="984" on="1"/>
        <pt x="509" y="984" on="1"/>
        <pt x="597" y="813" on="1"/>
        <pt x="506" y="813" on="1"/>
        <pt x="454" y="919" on="1"/>
        <pt x="358" y="813" on="1"/>
      </contour>
      <contour>
        <pt x="199" y="0" on="1"/>
        <pt x="254" y="262" on="1"/>
        <pt x="97" y="740" on="1"/>
        <pt x="216" y="740" on="1"/>
        <pt x="330" y="382" on="1"/>
        <pt x="594" y="740" on="1"/>
        <pt x="732" y="740" on="1"/>
        <pt x="370" y="259" on="1"/>
        <pt x="315" y="0" on="1"/>
      </contour>
    </TTGlyph>
    <TTGlyph name="Ydieresis" xMin="97" yMin="0" xMax="732" yMax="952">
      <contour>
        <pt x="541" y="814" on="1"/>
        <pt x="510" y="814" on="0"/>
        <pt x="471" y="855" on="0"/>
        <pt x="471" y="883" on="1"/>
        <pt x="471" y="912" on="0"/>
        <pt x="510" y="952" on="0"/>
        <pt x="541" y="952" on="1"/>
        <pt x="571" y="952" on="0"/>
        <pt x="611" y="912" on="0"/>
        <pt x="611" y="883" on="1"/>
        <pt x="611" y="854" on="0"/>
        <pt x="571" y="814" on="0"/>
      </contour>
      <contour>
        <pt x="339" y="814" on="1"/>
        <pt x="308" y="814" on="0"/>
        <pt x="269" y="855" on="0"/>
        <pt x="269" y="883" on="1"/>
        <pt x="269" y="912" on="0"/>
        <pt x="308" y="952" on="0"/>
        <pt x="339" y="952" on="1"/>
        <pt x="369" y="952" on="0"/>
        <pt x="409" y="912" on="0"/>
        <pt x="409" y="883" on="1"/>
        <pt x="409" y="854" on="0"/>
        <pt x="369" y="814" on="0"/>
      </contour>
      <contour>
        <pt x="199" y="0" on="1"/>
        <pt x="254" y="262" on="1"/>
        <pt x="97" y="740" on="1"/>
        <pt x="216" y="740" on="1"/>
        <pt x="330" y="382" on="1"/>
        <pt x="594" y="740" on="1"/>
        <pt x="732" y="740" on="1"/>
        <pt x="370" y="259" on="1"/>
        <pt x="315" y="0" on="1"/>
      </contour>
    </TTGlyph>
    <TTGlyph name="Ygrave" xMin="97" yMin="0" xMax="732" yMax="999">
      <contour>
        <pt x="373" y="818" on="1"/>
        <pt x="286" y="999" on="1"/>
        <pt x="394" y="999" on="1"/>
        <pt x="460" y="819" on="1"/>
      </contour>
      <contour>
        <pt x="199" y="0" on="1"/>
        <pt x="254" y="262" on="1"/>
        <pt x="97" y="740" on="1"/>
        <pt x="216" y="740" on="1"/>
        <pt x="330" y="382" on="1"/>
        <pt x="594" y="740" on="1"/>
        <pt x="732" y="740" on="1"/>
        <pt x="370" y="259" on="1"/>
        <pt x="315" y="0" on="1"/>
      </contour>
    </TTGlyph>
    <TTGlyph name="Z" xMin="-9" yMin="0" xMax="682" yMax="740">
      <contour>
        <pt x="-9" y="0" on="1"/>
        <pt x="9" y="87" on="1"/>
        <pt x="503" y="638" on="1"/>
        <pt x="126" y="638" on="1"/>
        <pt x="148" y="740" on="1"/>
        <pt x="682" y="740" on="1"/>
        <pt x="664" y="654" on="1"/>
        <pt x="169" y="102" on="1"/>
        <pt x="548" y="102" on="1"/>
        <pt x="525" y="0" on="1"/>
      </contour>
    </TTGlyph>
    <TTGlyph name="Zacute" xMin="-9" yMin="0" xMax="682" yMax="999">
      <contour>
        <pt x="478" y="818" on="1"/>
        <pt x="389" y="819" on="1"/>
        <pt x="479" y="999" on="1"/>
        <pt x="589" y="999" on="1"/>
      </contour>
      <contour>
        <pt x="-9" y="0" on="1"/>
        <pt x="9" y="87" on="1"/>
        <pt x="503" y="638" on="1"/>
        <pt x="126" y="638" on="1"/>
        <pt x="148" y="740" on="1"/>
        <pt x="682" y="740" on="1"/>
        <pt x="664" y="654" on="1"/>
        <pt x="169" y="102" on="1"/>
        <pt x="548" y="102" on="1"/>
        <pt x="525" y="0" on="1"/>
      </contour>
    </TTGlyph>
    <TTGlyph name="Zcaron" xMin="-9" yMin="0" xMax="682" yMax="983">
      <contour>
        <pt x="375" y="812" on="1"/>
        <pt x="287" y="983" on="1"/>
        <pt x="378" y="983" on="1"/>
        <pt x="430" y="877" on="1"/>
        <pt x="526" y="983" on="1"/>
        <pt x="629" y="983" on="1"/>
        <pt x="469" y="812" on="1"/>
      </contour>
      <contour>
        <pt x="-9" y="0" on="1"/>
        <pt x="9" y="87" on="1"/>
        <pt x="503" y="638" on="1"/>
        <pt x="126" y="638" on="1"/>
        <pt x="148" y="740" on="1"/>
        <pt x="682" y="740" on="1"/>
        <pt x="664" y="654" on="1"/>
        <pt x="169" y="102" on="1"/>
        <pt x="548" y="102" on="1"/>
        <pt x="525" y="0" on="1"/>
      </contour>
    </TTGlyph>
    <TTGlyph name="Zdotaccent" xMin="-9" yMin="0" xMax="682" yMax="967">
      <contour>
        <pt x="443" y="827" on="1"/>
        <pt x="412" y="827" on="0"/>
        <pt x="372" y="869" on="0"/>
        <pt x="372" y="897" on="1"/>
        <pt x="372" y="926" on="0"/>
        <pt x="412" y="967" on="0"/>
        <pt x="443" y="967" on="1"/>
        <pt x="474" y="967" on="0"/>
        <pt x="515" y="926" on="0"/>
        <pt x="515" y="897" on="1"/>
        <pt x="515" y="868" on="0"/>
        <pt x="474" y="827" on="0"/>
      </contour>
      <contour>
        <pt x="-9" y="0" on="1"/>
        <pt x="9" y="87" on="1"/>
        <pt x="503" y="638" on="1"/>
        <pt x="126" y="638" on="1"/>
        <pt x="148" y="740" on="1"/>
        <pt x="682" y="740" on="1"/>
        <pt x="664" y="654" on="1"/>
        <pt x="169" y="102" on="1"/>
        <pt x="548" y="102" on="1"/>
        <pt x="525" y="0" on="1"/>
      </contour>
    </TTGlyph>
    <TTGlyph name="a" xMin="47" yMin="-10" xMax="631" yMax="540">
      <contour>
        <pt x="325" y="540" on="1"/>
        <pt x="379" y="540" on="0"/>
        <pt x="447" y="506" on="0"/>
        <pt x="484" y="460" on="0"/>
        <pt x="491" y="442" on="1"/>
        <pt x="497" y="442" on="1"/>
        <pt x="516" y="530" on="1"/>
        <pt x="631" y="530" on="1"/>
        <pt x="518" y="0" on="1"/>
        <pt x="403" y="0" on="1"/>
        <pt x="418" y="72" on="1"/>
        <pt x="413" y="72" on="1"/>
        <pt x="413" y="72" on="0"/>
        <pt x="394" y="47" on="0"/>
        <pt x="355" y="15" on="0"/>
        <pt x="293" y="-10" on="0"/>
        <pt x="250" y="-10" on="1"/>
        <pt x="182" y="-10" on="0"/>
        <pt x="92" y="55" on="0"/>
        <pt x="47" y="161" on="0"/>
        <pt x="47" y="222" on="1"/>
        <pt x="47" y="278" on="0"/>
        <pt x="83" y="391" on="0"/>
        <pt x="155" y="484" on="0"/>
        <pt x="258" y="540" on="0"/>
      </contour>
      <contour>
        <pt x="338" y="445" on="1"/>
        <pt x="296" y="445" on="0"/>
        <pt x="230" y="406" on="0"/>
        <pt x="184" y="341" on="0"/>
        <pt x="159" y="264" on="0"/>
        <pt x="159" y="227" on="1"/>
        <pt x="159" y="189" on="0"/>
        <pt x="185" y="124" on="0"/>
        <pt x="239" y="85" on="0"/>
        <pt x="281" y="85" on="1"/>
        <pt x="323" y="85" on="0"/>
        <pt x="389" y="124" on="0"/>
        <pt x="435" y="188" on="0"/>
        <pt x="459" y="265" on="0"/>
        <pt x="459" y="303" on="1"/>
        <pt x="459" y="341" on="0"/>
        <pt x="434" y="406" on="0"/>
        <pt x="380" y="445" on="0"/>
      </contour>
    </TTGlyph>
    <TTGlyph name="a.ss01" xMin="27" yMin="-10" xMax="534" yMax="540">
      <contour>
        <pt x="347" y="63" on="1"/>
        <pt x="344" y="59" on="0"/>
        <pt x="311" y="24" on="0"/>
        <pt x="244" y="-10" on="0"/>
        <pt x="191" y="-10" on="1"/>
        <pt x="114" y="-10" on="0"/>
        <pt x="27" y="73" on="0"/>
        <pt x="27" y="136" on="1"/>
        <pt x="27" y="180" on="0"/>
        <pt x="72" y="255" on="0"/>
        <pt x="168" y="304" on="0"/>
        <pt x="243" y="307" on="1"/>
        <pt x="408" y="315" on="1"/>
        <pt x="412" y="334" on="1"/>
        <pt x="418" y="361" on="0"/>
        <pt x="407" y="414" on="0"/>
        <pt x="362" y="449" on="0"/>
        <pt x="317" y="449" on="1"/>
        <pt x="278" y="449" on="0"/>
        <pt x="231" y="424" on="0"/>
        <pt x="206" y="392" on="0"/>
        <pt x="198" y="367" on="0"/>
        <pt x="198" y="367" on="1"/>
        <pt x="89" y="367" on="1"/>
        <pt x="89" y="367" on="0"/>
        <pt x="100" y="402" on="0"/>
        <pt x="128" y="453" on="0"/>
        <pt x="180" y="505" on="0"/>
        <pt x="262" y="540" on="0"/>
        <pt x="322" y="540" on="1"/>
        <pt x="399" y="540" on="0"/>
        <pt x="497" y="478" on="0"/>
        <pt x="534" y="377" on="0"/>
        <pt x="522" y="320" on="1"/>
        <pt x="454" y="0" on="1"/>
        <pt x="341" y="0" on="1"/>
        <pt x="355" y="63" on="1"/>
      </contour>
      <contour>
        <pt x="140" y="145" on="1"/>
        <pt x="140" y="108" on="0"/>
        <pt x="195" y="75" on="0"/>
        <pt x="229" y="75" on="1"/>
        <pt x="286" y="75" on="0"/>
        <pt x="375" y="150" on="0"/>
        <pt x="387" y="212" on="1"/>
        <pt x="392" y="234" on="1"/>
        <pt x="252" y="227" on="1"/>
        <pt x="196" y="224" on="0"/>
        <pt x="140" y="180" on="0"/>
      </contour>
    </TTGlyph>
    <TTGlyph name="aacute" xMin="45" yMin="-10" xMax="629" yMax="789">
      <contour>
        <pt x="438" y="608" on="1"/>
        <pt x="349" y="609" on="1"/>
        <pt x="439" y="789" on="1"/>
        <pt x="549" y="789" on="1"/>
      </contour>
      <contour>
        <pt x="323" y="540" on="1"/>
        <pt x="377" y="540" on="0"/>
        <pt x="445" y="506" on="0"/>
        <pt x="482" y="460" on="0"/>
        <pt x="489" y="442" on="1"/>
        <pt x="495" y="442" on="1"/>
        <pt x="514" y="530" on="1"/>
        <pt x="629" y="530" on="1"/>
        <pt x="516" y="0" on="1"/>
        <pt x="401" y="0" on="1"/>
        <pt x="416" y="72" on="1"/>
        <pt x="411" y="72" on="1"/>
        <pt x="411" y="72" on="0"/>
        <pt x="392" y="47" on="0"/>
        <pt x="353" y="15" on="0"/>
        <pt x="291" y="-10" on="0"/>
        <pt x="248" y="-10" on="1"/>
        <pt x="180" y="-10" on="0"/>
        <pt x="90" y="55" on="0"/>
        <pt x="45" y="161" on="0"/>
        <pt x="45" y="222" on="1"/>
        <pt x="45" y="278" on="0"/>
        <pt x="81" y="391" on="0"/>
        <pt x="153" y="484" on="0"/>
        <pt x="256" y="540" on="0"/>
      </contour>
      <contour>
        <pt x="336" y="445" on="1"/>
        <pt x="294" y="445" on="0"/>
        <pt x="228" y="406" on="0"/>
        <pt x="182" y="341" on="0"/>
        <pt x="157" y="264" on="0"/>
        <pt x="157" y="227" on="1"/>
        <pt x="157" y="189" on="0"/>
        <pt x="183" y="124" on="0"/>
        <pt x="237" y="85" on="0"/>
        <pt x="279" y="85" on="1"/>
        <pt x="321" y="85" on="0"/>
        <pt x="387" y="124" on="0"/>
        <pt x="433" y="188" on="0"/>
        <pt x="457" y="265" on="0"/>
        <pt x="457" y="303" on="1"/>
        <pt x="457" y="341" on="0"/>
        <pt x="432" y="406" on="0"/>
        <pt x="378" y="445" on="0"/>
      </contour>
    </TTGlyph>
    <TTGlyph name="aacute.ss01" xMin="25" yMin="-10" xMax="533" yMax="789">
      <contour>
        <pt x="405" y="608" on="1"/>
        <pt x="316" y="609" on="1"/>
        <pt x="406" y="789" on="1"/>
        <pt x="516" y="789" on="1"/>
      </contour>
      <contour>
        <pt x="345" y="63" on="1"/>
        <pt x="343" y="59" on="0"/>
        <pt x="309" y="24" on="0"/>
        <pt x="242" y="-10" on="0"/>
        <pt x="190" y="-10" on="1"/>
        <pt x="112" y="-10" on="0"/>
        <pt x="25" y="73" on="0"/>
        <pt x="25" y="136" on="1"/>
        <pt x="25" y="180" on="0"/>
        <pt x="71" y="255" on="0"/>
        <pt x="166" y="304" on="0"/>
        <pt x="242" y="307" on="1"/>
        <pt x="406" y="315" on="1"/>
        <pt x="410" y="334" on="1"/>
        <pt x="416" y="361" on="0"/>
        <pt x="405" y="414" on="0"/>
        <pt x="361" y="449" on="0"/>
        <pt x="315" y="449" on="1"/>
        <pt x="276" y="449" on="0"/>
        <pt x="229" y="424" on="0"/>
        <pt x="205" y="392" on="0"/>
        <pt x="197" y="367" on="0"/>
        <pt x="197" y="367" on="1"/>
        <pt x="88" y="367" on="1"/>
        <pt x="88" y="367" on="0"/>
        <pt x="98" y="402" on="0"/>
        <pt x="126" y="453" on="0"/>
        <pt x="178" y="505" on="0"/>
        <pt x="261" y="540" on="0"/>
        <pt x="321" y="540" on="1"/>
        <pt x="398" y="540" on="0"/>
        <pt x="495" y="478" on="0"/>
        <pt x="533" y="377" on="0"/>
        <pt x="521" y="320" on="1"/>
        <pt x="453" y="0" on="1"/>
        <pt x="339" y="0" on="1"/>
        <pt x="353" y="63" on="1"/>
      </contour>
      <contour>
        <pt x="138" y="145" on="1"/>
        <pt x="138" y="108" on="0"/>
        <pt x="193" y="75" on="0"/>
        <pt x="228" y="75" on="1"/>
        <pt x="284" y="75" on="0"/>
        <pt x="373" y="150" on="0"/>
        <pt x="386" y="212" on="1"/>
        <pt x="390" y="234" on="1"/>
        <pt x="251" y="227" on="1"/>
        <pt x="194" y="224" on="0"/>
        <pt x="138" y="180" on="0"/>
      </contour>
    </TTGlyph>
    <TTGlyph name="abreve" xMin="45" yMin="-10" xMax="629" yMax="761">
      <contour>
        <pt x="398" y="602" on="1"/>
        <pt x="348" y="602" on="0"/>
        <pt x="288" y="634" on="0"/>
        <pt x="259" y="682" on="0"/>
        <pt x="250" y="729" on="0"/>
        <pt x="252" y="761" on="0"/>
        <pt x="252" y="761" on="1"/>
        <pt x="332" y="761" on="1"/>
        <pt x="332" y="761" on="0"/>
        <pt x="331" y="735" on="0"/>
        <pt x="339" y="701" on="0"/>
        <pt x="369" y="675" on="0"/>
        <pt x="400" y="675" on="1"/>
        <pt x="432" y="675" on="0"/>
        <pt x="473" y="701" on="0"/>
        <pt x="496" y="735" on="0"/>
        <pt x="505" y="761" on="0"/>
        <pt x="505" y="761" on="1"/>
        <pt x="585" y="761" on="1"/>
        <pt x="585" y="761" on="0"/>
        <pt x="578" y="729" on="0"/>
        <pt x="557" y="682" on="0"/>
        <pt x="516" y="634" on="0"/>
        <pt x="449" y="602" on="0"/>
      </contour>
      <contour>
        <pt x="323" y="540" on="1"/>
        <pt x="377" y="540" on="0"/>
        <pt x="445" y="506" on="0"/>
        <pt x="482" y="460" on="0"/>
        <pt x="489" y="442" on="1"/>
        <pt x="495" y="442" on="1"/>
        <pt x="514" y="530" on="1"/>
        <pt x="629" y="530" on="1"/>
        <pt x="516" y="0" on="1"/>
        <pt x="401" y="0" on="1"/>
        <pt x="416" y="72" on="1"/>
        <pt x="411" y="72" on="1"/>
        <pt x="411" y="72" on="0"/>
        <pt x="392" y="47" on="0"/>
        <pt x="353" y="15" on="0"/>
        <pt x="291" y="-10" on="0"/>
        <pt x="248" y="-10" on="1"/>
        <pt x="180" y="-10" on="0"/>
        <pt x="90" y="55" on="0"/>
        <pt x="45" y="161" on="0"/>
        <pt x="45" y="222" on="1"/>
        <pt x="45" y="278" on="0"/>
        <pt x="81" y="391" on="0"/>
        <pt x="153" y="484" on="0"/>
        <pt x="256" y="540" on="0"/>
      </contour>
      <contour>
        <pt x="336" y="445" on="1"/>
        <pt x="294" y="445" on="0"/>
        <pt x="228" y="406" on="0"/>
        <pt x="182" y="341" on="0"/>
        <pt x="157" y="264" on="0"/>
        <pt x="157" y="227" on="1"/>
        <pt x="157" y="189" on="0"/>
        <pt x="183" y="124" on="0"/>
        <pt x="237" y="85" on="0"/>
        <pt x="279" y="85" on="1"/>
        <pt x="321" y="85" on="0"/>
        <pt x="387" y="124" on="0"/>
        <pt x="433" y="188" on="0"/>
        <pt x="457" y="265" on="0"/>
        <pt x="457" y="303" on="1"/>
        <pt x="457" y="341" on="0"/>
        <pt x="432" y="406" on="0"/>
        <pt x="378" y="445" on="0"/>
      </contour>
    </TTGlyph>
    <TTGlyph name="abreve.ss01" xMin="25" yMin="-10" xMax="553" yMax="761">
      <contour>
        <pt x="366" y="602" on="1"/>
        <pt x="315" y="602" on="0"/>
        <pt x="255" y="634" on="0"/>
        <pt x="226" y="682" on="0"/>
        <pt x="218" y="729" on="0"/>
        <pt x="219" y="761" on="0"/>
        <pt x="219" y="761" on="1"/>
        <pt x="300" y="761" on="1"/>
        <pt x="300" y="761" on="0"/>
        <pt x="298" y="735" on="0"/>
        <pt x="307" y="701" on="0"/>
        <pt x="336" y="675" on="0"/>
        <pt x="367" y="675" on="1"/>
        <pt x="399" y="675" on="0"/>
        <pt x="440" y="701" on="0"/>
        <pt x="463" y="735" on="0"/>
        <pt x="472" y="761" on="0"/>
        <pt x="472" y="761" on="1"/>
        <pt x="553" y="761" on="1"/>
        <pt x="553" y="761" on="0"/>
        <pt x="546" y="729" on="0"/>
        <pt x="525" y="682" on="0"/>
        <pt x="484" y="634" on="0"/>
        <pt x="416" y="602" on="0"/>
      </contour>
      <contour>
        <pt x="345" y="63" on="1"/>
        <pt x="343" y="59" on="0"/>
        <pt x="309" y="24" on="0"/>
        <pt x="242" y="-10" on="0"/>
        <pt x="190" y="-10" on="1"/>
        <pt x="112" y="-10" on="0"/>
        <pt x="25" y="73" on="0"/>
        <pt x="25" y="136" on="1"/>
        <pt x="25" y="180" on="0"/>
        <pt x="71" y="255" on="0"/>
        <pt x="166" y="304" on="0"/>
        <pt x="242" y="307" on="1"/>
        <pt x="406" y="315" on="1"/>
        <pt x="410" y="334" on="1"/>
        <pt x="416" y="361" on="0"/>
        <pt x="405" y="414" on="0"/>
        <pt x="361" y="449" on="0"/>
        <pt x="315" y="449" on="1"/>
        <pt x="276" y="449" on="0"/>
        <pt x="229" y="424" on="0"/>
        <pt x="205" y="392" on="0"/>
        <pt x="197" y="367" on="0"/>
        <pt x="197" y="367" on="1"/>
        <pt x="88" y="367" on="1"/>
        <pt x="88" y="367" on="0"/>
        <pt x="98" y="402" on="0"/>
        <pt x="126" y="453" on="0"/>
        <pt x="178" y="505" on="0"/>
        <pt x="261" y="540" on="0"/>
        <pt x="321" y="540" on="1"/>
        <pt x="398" y="540" on="0"/>
        <pt x="495" y="478" on="0"/>
        <pt x="533" y="377" on="0"/>
        <pt x="521" y="320" on="1"/>
        <pt x="453" y="0" on="1"/>
        <pt x="339" y="0" on="1"/>
        <pt x="353" y="63" on="1"/>
      </contour>
      <contour>
        <pt x="138" y="145" on="1"/>
        <pt x="138" y="108" on="0"/>
        <pt x="193" y="75" on="0"/>
        <pt x="228" y="75" on="1"/>
        <pt x="284" y="75" on="0"/>
        <pt x="373" y="150" on="0"/>
        <pt x="386" y="212" on="1"/>
        <pt x="390" y="234" on="1"/>
        <pt x="251" y="227" on="1"/>
        <pt x="194" y="224" on="0"/>
        <pt x="138" y="180" on="0"/>
      </contour>
    </TTGlyph>
    <TTGlyph name="acircumflex" xMin="45" yMin="-10" xMax="629" yMax="774">
      <contour>
        <pt x="214" y="603" on="1"/>
        <pt x="374" y="774" on="1"/>
        <pt x="468" y="774" on="1"/>
        <pt x="556" y="603" on="1"/>
        <pt x="465" y="603" on="1"/>
        <pt x="414" y="709" on="1"/>
        <pt x="317" y="603" on="1"/>
      </contour>
      <contour>
        <pt x="323" y="540" on="1"/>
        <pt x="377" y="540" on="0"/>
        <pt x="445" y="506" on="0"/>
        <pt x="482" y="460" on="0"/>
        <pt x="489" y="442" on="1"/>
        <pt x="495" y="442" on="1"/>
        <pt x="514" y="530" on="1"/>
        <pt x="629" y="530" on="1"/>
        <pt x="516" y="0" on="1"/>
        <pt x="401" y="0" on="1"/>
        <pt x="416" y="72" on="1"/>
        <pt x="411" y="72" on="1"/>
        <pt x="411" y="72" on="0"/>
        <pt x="392" y="47" on="0"/>
        <pt x="353" y="15" on="0"/>
        <pt x="291" y="-10" on="0"/>
        <pt x="248" y="-10" on="1"/>
        <pt x="180" y="-10" on="0"/>
        <pt x="90" y="55" on="0"/>
        <pt x="45" y="161" on="0"/>
        <pt x="45" y="222" on="1"/>
        <pt x="45" y="278" on="0"/>
        <pt x="81" y="391" on="0"/>
        <pt x="153" y="484" on="0"/>
        <pt x="256" y="540" on="0"/>
      </contour>
      <contour>
        <pt x="336" y="445" on="1"/>
        <pt x="294" y="445" on="0"/>
        <pt x="228" y="406" on="0"/>
        <pt x="182" y="341" on="0"/>
        <pt x="157" y="264" on="0"/>
        <pt x="157" y="227" on="1"/>
        <pt x="157" y="189" on="0"/>
        <pt x="183" y="124" on="0"/>
        <pt x="237" y="85" on="0"/>
        <pt x="279" y="85" on="1"/>
        <pt x="321" y="85" on="0"/>
        <pt x="387" y="124" on="0"/>
        <pt x="433" y="188" on="0"/>
        <pt x="457" y="265" on="0"/>
        <pt x="457" y="303" on="1"/>
        <pt x="457" y="341" on="0"/>
        <pt x="432" y="406" on="0"/>
        <pt x="378" y="445" on="0"/>
      </contour>
    </TTGlyph>
    <TTGlyph name="acircumflex.ss01" xMin="25" yMin="-10" xMax="533" yMax="774">
      <contour>
        <pt x="182" y="603" on="1"/>
        <pt x="341" y="774" on="1"/>
        <pt x="436" y="774" on="1"/>
        <pt x="523" y="603" on="1"/>
        <pt x="433" y="603" on="1"/>
        <pt x="381" y="709" on="1"/>
        <pt x="285" y="603" on="1"/>
      </contour>
      <contour>
        <pt x="345" y="63" on="1"/>
        <pt x="343" y="59" on="0"/>
        <pt x="309" y="24" on="0"/>
        <pt x="242" y="-10" on="0"/>
        <pt x="190" y="-10" on="1"/>
        <pt x="112" y="-10" on="0"/>
        <pt x="25" y="73" on="0"/>
        <pt x="25" y="136" on="1"/>
        <pt x="25" y="180" on="0"/>
        <pt x="71" y="255" on="0"/>
        <pt x="166" y="304" on="0"/>
        <pt x="242" y="307" on="1"/>
        <pt x="406" y="315" on="1"/>
        <pt x="410" y="334" on="1"/>
        <pt x="416" y="361" on="0"/>
        <pt x="405" y="414" on="0"/>
        <pt x="361" y="449" on="0"/>
        <pt x="315" y="449" on="1"/>
        <pt x="276" y="449" on="0"/>
        <pt x="229" y="424" on="0"/>
        <pt x="205" y="392" on="0"/>
        <pt x="197" y="367" on="0"/>
        <pt x="197" y="367" on="1"/>
        <pt x="88" y="367" on="1"/>
        <pt x="88" y="367" on="0"/>
        <pt x="98" y="402" on="0"/>
        <pt x="126" y="453" on="0"/>
        <pt x="178" y="505" on="0"/>
        <pt x="261" y="540" on="0"/>
        <pt x="321" y="540" on="1"/>
        <pt x="398" y="540" on="0"/>
        <pt x="495" y="478" on="0"/>
        <pt x="533" y="377" on="0"/>
        <pt x="521" y="320" on="1"/>
        <pt x="453" y="0" on="1"/>
        <pt x="339" y="0" on="1"/>
        <pt x="353" y="63" on="1"/>
      </contour>
      <contour>
        <pt x="138" y="145" on="1"/>
        <pt x="138" y="108" on="0"/>
        <pt x="193" y="75" on="0"/>
        <pt x="228" y="75" on="1"/>
        <pt x="284" y="75" on="0"/>
        <pt x="373" y="150" on="0"/>
        <pt x="386" y="212" on="1"/>
        <pt x="390" y="234" on="1"/>
        <pt x="251" y="227" on="1"/>
        <pt x="194" y="224" on="0"/>
        <pt x="138" y="180" on="0"/>
      </contour>
    </TTGlyph>
    <TTGlyph name="acute" xMin="106" yMin="608" xMax="306" yMax="789">
      <contour>
        <pt x="195" y="608" on="1"/>
        <pt x="106" y="609" on="1"/>
        <pt x="196" y="789" on="1"/>
        <pt x="306" y="789" on="1"/>
      </contour>
    </TTGlyph>
    <TTGlyph name="acutecomb" xMin="122" yMin="608" xMax="322" yMax="789">
      <contour>
        <pt x="211" y="608" on="1"/>
        <pt x="122" y="609" on="1"/>
        <pt x="212" y="789" on="1"/>
        <pt x="322" y="789" on="1"/>
      </contour>
    </TTGlyph>
    <TTGlyph name="adieresis" xMin="45" yMin="-10" xMax="629" yMax="742">
      <contour>
        <pt x="501" y="604" on="1"/>
        <pt x="470" y="604" on="0"/>
        <pt x="431" y="645" on="0"/>
        <pt x="431" y="673" on="1"/>
        <pt x="431" y="701" on="0"/>
        <pt x="470" y="742" on="0"/>
        <pt x="501" y="742" on="1"/>
        <pt x="530" y="742" on="0"/>
        <pt x="571" y="701" on="0"/>
        <pt x="571" y="673" on="1"/>
        <pt x="571" y="644" on="0"/>
        <pt x="530" y="604" on="0"/>
      </contour>
      <contour>
        <pt x="299" y="604" on="1"/>
        <pt x="268" y="604" on="0"/>
        <pt x="229" y="645" on="0"/>
        <pt x="229" y="673" on="1"/>
        <pt x="229" y="701" on="0"/>
        <pt x="268" y="742" on="0"/>
        <pt x="299" y="742" on="1"/>
        <pt x="328" y="742" on="0"/>
        <pt x="369" y="701" on="0"/>
        <pt x="369" y="673" on="1"/>
        <pt x="369" y="644" on="0"/>
        <pt x="328" y="604" on="0"/>
      </contour>
      <contour>
        <pt x="323" y="540" on="1"/>
        <pt x="377" y="540" on="0"/>
        <pt x="445" y="506" on="0"/>
        <pt x="482" y="460" on="0"/>
        <pt x="489" y="442" on="1"/>
        <pt x="495" y="442" on="1"/>
        <pt x="514" y="530" on="1"/>
        <pt x="629" y="530" on="1"/>
        <pt x="516" y="0" on="1"/>
        <pt x="401" y="0" on="1"/>
        <pt x="416" y="72" on="1"/>
        <pt x="411" y="72" on="1"/>
        <pt x="411" y="72" on="0"/>
        <pt x="392" y="47" on="0"/>
        <pt x="353" y="15" on="0"/>
        <pt x="291" y="-10" on="0"/>
        <pt x="248" y="-10" on="1"/>
        <pt x="180" y="-10" on="0"/>
        <pt x="90" y="55" on="0"/>
        <pt x="45" y="161" on="0"/>
        <pt x="45" y="222" on="1"/>
        <pt x="45" y="278" on="0"/>
        <pt x="81" y="391" on="0"/>
        <pt x="153" y="484" on="0"/>
        <pt x="256" y="540" on="0"/>
      </contour>
      <contour>
        <pt x="336" y="445" on="1"/>
        <pt x="294" y="445" on="0"/>
        <pt x="228" y="406" on="0"/>
        <pt x="182" y="341" on="0"/>
        <pt x="157" y="264" on="0"/>
        <pt x="157" y="227" on="1"/>
        <pt x="157" y="189" on="0"/>
        <pt x="183" y="124" on="0"/>
        <pt x="237" y="85" on="0"/>
        <pt x="279" y="85" on="1"/>
        <pt x="321" y="85" on="0"/>
        <pt x="387" y="124" on="0"/>
        <pt x="433" y="188" on="0"/>
        <pt x="457" y="265" on="0"/>
        <pt x="457" y="303" on="1"/>
        <pt x="457" y="341" on="0"/>
        <pt x="432" y="406" on="0"/>
        <pt x="378" y="445" on="0"/>
      </contour>
    </TTGlyph>
    <TTGlyph name="adieresis.ss01" xMin="25" yMin="-10" xMax="538" yMax="742">
      <contour>
        <pt x="468" y="604" on="1"/>
        <pt x="437" y="604" on="0"/>
        <pt x="398" y="645" on="0"/>
        <pt x="398" y="673" on="1"/>
        <pt x="398" y="702" on="0"/>
        <pt x="437" y="742" on="0"/>
        <pt x="468" y="742" on="1"/>
        <pt x="498" y="742" on="0"/>
        <pt x="538" y="702" on="0"/>
        <pt x="538" y="673" on="1"/>
        <pt x="538" y="644" on="0"/>
        <pt x="498" y="604" on="0"/>
      </contour>
      <contour>
        <pt x="266" y="604" on="1"/>
        <pt x="235" y="604" on="0"/>
        <pt x="196" y="645" on="0"/>
        <pt x="196" y="673" on="1"/>
        <pt x="196" y="702" on="0"/>
        <pt x="235" y="742" on="0"/>
        <pt x="266" y="742" on="1"/>
        <pt x="296" y="742" on="0"/>
        <pt x="336" y="702" on="0"/>
        <pt x="336" y="673" on="1"/>
        <pt x="336" y="644" on="0"/>
        <pt x="296" y="604" on="0"/>
      </contour>
      <contour>
        <pt x="345" y="63" on="1"/>
        <pt x="343" y="59" on="0"/>
        <pt x="309" y="24" on="0"/>
        <pt x="242" y="-10" on="0"/>
        <pt x="190" y="-10" on="1"/>
        <pt x="112" y="-10" on="0"/>
        <pt x="25" y="73" on="0"/>
        <pt x="25" y="136" on="1"/>
        <pt x="25" y="180" on="0"/>
        <pt x="71" y="255" on="0"/>
        <pt x="166" y="304" on="0"/>
        <pt x="242" y="307" on="1"/>
        <pt x="406" y="315" on="1"/>
        <pt x="410" y="334" on="1"/>
        <pt x="416" y="361" on="0"/>
        <pt x="405" y="414" on="0"/>
        <pt x="361" y="449" on="0"/>
        <pt x="315" y="449" on="1"/>
        <pt x="276" y="449" on="0"/>
        <pt x="229" y="424" on="0"/>
        <pt x="205" y="392" on="0"/>
        <pt x="197" y="367" on="0"/>
        <pt x="197" y="367" on="1"/>
        <pt x="88" y="367" on="1"/>
        <pt x="88" y="367" on="0"/>
        <pt x="98" y="402" on="0"/>
        <pt x="126" y="453" on="0"/>
        <pt x="178" y="505" on="0"/>
        <pt x="261" y="540" on="0"/>
        <pt x="321" y="540" on="1"/>
        <pt x="398" y="540" on="0"/>
        <pt x="495" y="478" on="0"/>
        <pt x="533" y="377" on="0"/>
        <pt x="521" y="320" on="1"/>
        <pt x="453" y="0" on="1"/>
        <pt x="339" y="0" on="1"/>
        <pt x="353" y="63" on="1"/>
      </contour>
      <contour>
        <pt x="138" y="145" on="1"/>
        <pt x="138" y="108" on="0"/>
        <pt x="193" y="75" on="0"/>
        <pt x="228" y="75" on="1"/>
        <pt x="284" y="75" on="0"/>
        <pt x="373" y="150" on="0"/>
        <pt x="386" y="212" on="1"/>
        <pt x="390" y="234" on="1"/>
        <pt x="251" y="227" on="1"/>
        <pt x="194" y="224" on="0"/>
        <pt x="138" y="180" on="0"/>
      </contour>
    </TTGlyph>
    <TTGlyph name="ae" xMin="27" yMin="-10" xMax="905" yMax="540">
      <contour>
        <pt x="203" y="-10" on="1"/>
        <pt x="119" y="-10" on="0"/>
        <pt x="27" y="73" on="0"/>
        <pt x="27" y="137" on="1"/>
        <pt x="27" y="181" on="0"/>
        <pt x="73" y="255" on="0"/>
        <pt x="168" y="304" on="0"/>
        <pt x="244" y="307" on="1"/>
        <pt x="406" y="314" on="1"/>
        <pt x="410" y="335" on="1"/>
        <pt x="416" y="365" on="0"/>
        <pt x="403" y="417" on="0"/>
        <pt x="357" y="449" on="0"/>
        <pt x="315" y="449" on="1"/>
        <pt x="276" y="449" on="0"/>
        <pt x="229" y="424" on="0"/>
        <pt x="205" y="392" on="0"/>
        <pt x="196" y="367" on="0"/>
        <pt x="196" y="367" on="1"/>
        <pt x="88" y="367" on="1"/>
        <pt x="88" y="367" on="0"/>
        <pt x="98" y="402" on="0"/>
        <pt x="127" y="453" on="0"/>
        <pt x="178" y="505" on="0"/>
        <pt x="259" y="540" on="0"/>
        <pt x="318" y="540" on="1"/>
        <pt x="388" y="540" on="0"/>
        <pt x="470" y="485" on="0"/>
        <pt x="487" y="449" on="1"/>
        <pt x="493" y="449" on="1"/>
        <pt x="523" y="485" on="0"/>
        <pt x="622" y="540" on="0"/>
        <pt x="690" y="540" on="1"/>
        <pt x="758" y="540" on="0"/>
        <pt x="847" y="486" on="0"/>
        <pt x="895" y="399" on="0"/>
        <pt x="905" y="297" on="0"/>
        <pt x="894" y="250" on="1"/>
        <pt x="890" y="232" on="1"/>
        <pt x="506" y="232" on="1"/>
        <pt x="506" y="169" on="0"/>
        <pt x="567" y="82" on="0"/>
        <pt x="634" y="82" on="1"/>
        <pt x="671" y="82" on="0"/>
        <pt x="720" y="107" on="0"/>
        <pt x="749" y="139" on="0"/>
        <pt x="762" y="164" on="0"/>
        <pt x="762" y="164" on="1"/>
        <pt x="869" y="164" on="1"/>
        <pt x="869" y="164" on="0"/>
        <pt x="855" y="129" on="0"/>
        <pt x="823" y="77" on="0"/>
        <pt x="767" y="25" on="0"/>
        <pt x="683" y="-10" on="0"/>
        <pt x="625" y="-10" on="1"/>
        <pt x="567" y="-10" on="0"/>
        <pt x="484" y="26" on="0"/>
        <pt x="433" y="81" on="0"/>
        <pt x="421" y="110" on="1"/>
        <pt x="415" y="110" on="1"/>
        <pt x="415" y="110" on="0"/>
        <pt x="393" y="74" on="0"/>
        <pt x="344" y="26" on="0"/>
        <pt x="263" y="-10" on="0"/>
      </contour>
      <contour>
        <pt x="520" y="312" on="1"/>
        <pt x="795" y="312" on="1"/>
        <pt x="800" y="346" on="0"/>
        <pt x="779" y="408" on="0"/>
        <pt x="726" y="448" on="0"/>
        <pt x="683" y="448" on="1"/>
        <pt x="622" y="448" on="0"/>
        <pt x="537" y="368" on="0"/>
      </contour>
      <contour>
        <pt x="229" y="75" on="1"/>
        <pt x="286" y="75" on="0"/>
        <pt x="372" y="152" on="0"/>
        <pt x="385" y="212" on="1"/>
        <pt x="390" y="234" on="1"/>
        <pt x="253" y="227" on="1"/>
        <pt x="197" y="224" on="0"/>
        <pt x="140" y="180" on="0"/>
        <pt x="140" y="145" on="1"/>
        <pt x="140" y="108" on="0"/>
        <pt x="195" y="75" on="0"/>
      </contour>
    </TTGlyph>
    <TTGlyph name="agrave" xMin="45" yMin="-10" xMax="629" yMax="789">
      <contour>
        <pt x="333" y="608" on="1"/>
        <pt x="246" y="789" on="1"/>
        <pt x="353" y="789" on="1"/>
        <pt x="419" y="609" on="1"/>
      </contour>
      <contour>
        <pt x="323" y="540" on="1"/>
        <pt x="377" y="540" on="0"/>
        <pt x="445" y="506" on="0"/>
        <pt x="482" y="460" on="0"/>
        <pt x="489" y="442" on="1"/>
        <pt x="495" y="442" on="1"/>
        <pt x="514" y="530" on="1"/>
        <pt x="629" y="530" on="1"/>
        <pt x="516" y="0" on="1"/>
        <pt x="401" y="0" on="1"/>
        <pt x="416" y="72" on="1"/>
        <pt x="411" y="72" on="1"/>
        <pt x="411" y="72" on="0"/>
        <pt x="392" y="47" on="0"/>
        <pt x="353" y="15" on="0"/>
        <pt x="291" y="-10" on="0"/>
        <pt x="248" y="-10" on="1"/>
        <pt x="180" y="-10" on="0"/>
        <pt x="90" y="55" on="0"/>
        <pt x="45" y="161" on="0"/>
        <pt x="45" y="222" on="1"/>
        <pt x="45" y="278" on="0"/>
        <pt x="81" y="391" on="0"/>
        <pt x="153" y="484" on="0"/>
        <pt x="256" y="540" on="0"/>
      </contour>
      <contour>
        <pt x="336" y="445" on="1"/>
        <pt x="294" y="445" on="0"/>
        <pt x="228" y="406" on="0"/>
        <pt x="182" y="341" on="0"/>
        <pt x="157" y="264" on="0"/>
        <pt x="157" y="227" on="1"/>
        <pt x="157" y="189" on="0"/>
        <pt x="183" y="124" on="0"/>
        <pt x="237" y="85" on="0"/>
        <pt x="279" y="85" on="1"/>
        <pt x="321" y="85" on="0"/>
        <pt x="387" y="124" on="0"/>
        <pt x="433" y="188" on="0"/>
        <pt x="457" y="265" on="0"/>
        <pt x="457" y="303" on="1"/>
        <pt x="457" y="341" on="0"/>
        <pt x="432" y="406" on="0"/>
        <pt x="378" y="445" on="0"/>
      </contour>
    </TTGlyph>
    <TTGlyph name="agrave.ss01" xMin="25" yMin="-10" xMax="533" yMax="789">
      <contour>
        <pt x="300" y="608" on="1"/>
        <pt x="213" y="789" on="1"/>
        <pt x="320" y="789" on="1"/>
        <pt x="387" y="609" on="1"/>
      </contour>
      <contour>
        <pt x="345" y="63" on="1"/>
        <pt x="343" y="59" on="0"/>
        <pt x="309" y="24" on="0"/>
        <pt x="242" y="-10" on="0"/>
        <pt x="190" y="-10" on="1"/>
        <pt x="112" y="-10" on="0"/>
        <pt x="25" y="73" on="0"/>
        <pt x="25" y="136" on="1"/>
        <pt x="25" y="180" on="0"/>
        <pt x="71" y="255" on="0"/>
        <pt x="166" y="304" on="0"/>
        <pt x="242" y="307" on="1"/>
        <pt x="406" y="315" on="1"/>
        <pt x="410" y="334" on="1"/>
        <pt x="416" y="361" on="0"/>
        <pt x="405" y="414" on="0"/>
        <pt x="361" y="449" on="0"/>
        <pt x="315" y="449" on="1"/>
        <pt x="276" y="449" on="0"/>
        <pt x="229" y="424" on="0"/>
        <pt x="205" y="392" on="0"/>
        <pt x="197" y="367" on="0"/>
        <pt x="197" y="367" on="1"/>
        <pt x="88" y="367" on="1"/>
        <pt x="88" y="367" on="0"/>
        <pt x="98" y="402" on="0"/>
        <pt x="126" y="453" on="0"/>
        <pt x="178" y="505" on="0"/>
        <pt x="261" y="540" on="0"/>
        <pt x="321" y="540" on="1"/>
        <pt x="398" y="540" on="0"/>
        <pt x="495" y="478" on="0"/>
        <pt x="533" y="377" on="0"/>
        <pt x="521" y="320" on="1"/>
        <pt x="453" y="0" on="1"/>
        <pt x="339" y="0" on="1"/>
        <pt x="353" y="63" on="1"/>
      </contour>
      <contour>
        <pt x="138" y="145" on="1"/>
        <pt x="138" y="108" on="0"/>
        <pt x="193" y="75" on="0"/>
        <pt x="228" y="75" on="1"/>
        <pt x="284" y="75" on="0"/>
        <pt x="373" y="150" on="0"/>
        <pt x="386" y="212" on="1"/>
        <pt x="390" y="234" on="1"/>
        <pt x="251" y="227" on="1"/>
        <pt x="194" y="224" on="0"/>
        <pt x="138" y="180" on="0"/>
      </contour>
    </TTGlyph>
    <TTGlyph name="amacron" xMin="45" yMin="-10" xMax="629" yMax="721">
      <contour>
        <pt x="237" y="643" on="1"/>
        <pt x="255" y="721" on="1"/>
        <pt x="566" y="721" on="1"/>
        <pt x="549" y="643" on="1"/>
      </contour>
      <contour>
        <pt x="323" y="540" on="1"/>
        <pt x="377" y="540" on="0"/>
        <pt x="445" y="506" on="0"/>
        <pt x="482" y="460" on="0"/>
        <pt x="489" y="442" on="1"/>
        <pt x="495" y="442" on="1"/>
        <pt x="514" y="530" on="1"/>
        <pt x="629" y="530" on="1"/>
        <pt x="516" y="0" on="1"/>
        <pt x="401" y="0" on="1"/>
        <pt x="416" y="72" on="1"/>
        <pt x="411" y="72" on="1"/>
        <pt x="411" y="72" on="0"/>
        <pt x="392" y="47" on="0"/>
        <pt x="353" y="15" on="0"/>
        <pt x="291" y="-10" on="0"/>
        <pt x="248" y="-10" on="1"/>
        <pt x="180" y="-10" on="0"/>
        <pt x="90" y="55" on="0"/>
        <pt x="45" y="161" on="0"/>
        <pt x="45" y="222" on="1"/>
        <pt x="45" y="278" on="0"/>
        <pt x="81" y="391" on="0"/>
        <pt x="153" y="484" on="0"/>
        <pt x="256" y="540" on="0"/>
      </contour>
      <contour>
        <pt x="336" y="445" on="1"/>
        <pt x="294" y="445" on="0"/>
        <pt x="228" y="406" on="0"/>
        <pt x="182" y="341" on="0"/>
        <pt x="157" y="264" on="0"/>
        <pt x="157" y="227" on="1"/>
        <pt x="157" y="189" on="0"/>
        <pt x="183" y="124" on="0"/>
        <pt x="237" y="85" on="0"/>
        <pt x="279" y="85" on="1"/>
        <pt x="321" y="85" on="0"/>
        <pt x="387" y="124" on="0"/>
        <pt x="433" y="188" on="0"/>
        <pt x="457" y="265" on="0"/>
        <pt x="457" y="303" on="1"/>
        <pt x="457" y="341" on="0"/>
        <pt x="432" y="406" on="0"/>
        <pt x="378" y="445" on="0"/>
      </contour>
    </TTGlyph>
    <TTGlyph name="amacron.ss01" xMin="25" yMin="-10" xMax="533" yMax="713">
      <contour>
        <pt x="203" y="635" on="1"/>
        <pt x="220" y="713" on="1"/>
        <pt x="531" y="713" on="1"/>
        <pt x="514" y="635" on="1"/>
      </contour>
      <contour>
        <pt x="345" y="63" on="1"/>
        <pt x="343" y="59" on="0"/>
        <pt x="309" y="24" on="0"/>
        <pt x="242" y="-10" on="0"/>
        <pt x="190" y="-10" on="1"/>
        <pt x="112" y="-10" on="0"/>
        <pt x="25" y="73" on="0"/>
        <pt x="25" y="136" on="1"/>
        <pt x="25" y="180" on="0"/>
        <pt x="71" y="255" on="0"/>
        <pt x="166" y="304" on="0"/>
        <pt x="242" y="307" on="1"/>
        <pt x="406" y="315" on="1"/>
        <pt x="410" y="334" on="1"/>
        <pt x="416" y="361" on="0"/>
        <pt x="405" y="414" on="0"/>
        <pt x="361" y="449" on="0"/>
        <pt x="315" y="449" on="1"/>
        <pt x="276" y="449" on="0"/>
        <pt x="229" y="424" on="0"/>
        <pt x="205" y="392" on="0"/>
        <pt x="197" y="367" on="0"/>
        <pt x="197" y="367" on="1"/>
        <pt x="88" y="367" on="1"/>
        <pt x="88" y="367" on="0"/>
        <pt x="98" y="402" on="0"/>
        <pt x="126" y="453" on="0"/>
        <pt x="178" y="505" on="0"/>
        <pt x="261" y="540" on="0"/>
        <pt x="321" y="540" on="1"/>
        <pt x="398" y="540" on="0"/>
        <pt x="495" y="478" on="0"/>
        <pt x="533" y="377" on="0"/>
        <pt x="521" y="320" on="1"/>
        <pt x="453" y="0" on="1"/>
        <pt x="339" y="0" on="1"/>
        <pt x="353" y="63" on="1"/>
      </contour>
      <contour>
        <pt x="138" y="145" on="1"/>
        <pt x="138" y="108" on="0"/>
        <pt x="193" y="75" on="0"/>
        <pt x="228" y="75" on="1"/>
        <pt x="284" y="75" on="0"/>
        <pt x="373" y="150" on="0"/>
        <pt x="386" y="212" on="1"/>
        <pt x="390" y="234" on="1"/>
        <pt x="251" y="227" on="1"/>
        <pt x="194" y="224" on="0"/>
        <pt x="138" y="180" on="0"/>
      </contour>
    </TTGlyph>
    <TTGlyph name="ampersand" xMin="8" yMin="-10" xMax="632" yMax="750">
      <contour>
        <pt x="246" y="-10" on="1"/>
        <pt x="179" y="-10" on="0"/>
        <pt x="71" y="39" on="0"/>
        <pt x="8" y="130" on="0"/>
        <pt x="8" y="191" on="1"/>
        <pt x="8" y="249" on="0"/>
        <pt x="62" y="335" on="0"/>
        <pt x="151" y="397" on="0"/>
        <pt x="201" y="420" on="1"/>
        <pt x="179" y="457" on="0"/>
        <pt x="152" y="530" on="0"/>
        <pt x="152" y="569" on="1"/>
        <pt x="152" y="627" on="0"/>
        <pt x="206" y="708" on="0"/>
        <pt x="294" y="750" on="0"/>
        <pt x="344" y="750" on="1"/>
        <pt x="390" y="750" on="0"/>
        <pt x="473" y="713" on="0"/>
        <pt x="526" y="642" on="0"/>
        <pt x="526" y="591" on="1"/>
        <pt x="526" y="537" on="0"/>
        <pt x="470" y="461" on="0"/>
        <pt x="385" y="409" on="0"/>
        <pt x="344" y="392" on="1"/>
        <pt x="467" y="224" on="1"/>
        <pt x="489" y="263" on="0"/>
        <pt x="522" y="363" on="0"/>
        <pt x="533" y="424" on="1"/>
        <pt x="630" y="424" on="1"/>
        <pt x="616" y="335" on="0"/>
        <pt x="562" y="196" on="0"/>
        <pt x="526" y="144" on="1"/>
        <pt x="632" y="0" on="1"/>
        <pt x="498" y="0" on="1"/>
        <pt x="452" y="64" on="1"/>
        <pt x="406" y="26" on="0"/>
        <pt x="301" y="-10" on="0"/>
      </contour>
      <contour>
        <pt x="251" y="574" on="1"/>
        <pt x="251" y="546" on="0"/>
        <pt x="276" y="489" on="0"/>
        <pt x="296" y="458" on="1"/>
        <pt x="297" y="458" on="1"/>
        <pt x="314" y="465" on="0"/>
        <pt x="359" y="486" on="0"/>
        <pt x="402" y="517" on="0"/>
        <pt x="430" y="560" on="0"/>
        <pt x="430" y="588" on="1"/>
        <pt x="430" y="627" on="0"/>
        <pt x="376" y="667" on="0"/>
        <pt x="344" y="667" on="1"/>
        <pt x="310" y="667" on="0"/>
        <pt x="251" y="621" on="0"/>
      </contour>
      <contour>
        <pt x="116" y="206" on="1"/>
        <pt x="116" y="150" on="0"/>
        <pt x="197" y="82" on="0"/>
        <pt x="261" y="82" on="1"/>
        <pt x="338" y="82" on="0"/>
        <pt x="400" y="138" on="1"/>
        <pt x="284" y="301" on="1"/>
        <pt x="274" y="314" on="0"/>
        <pt x="256" y="340" on="0"/>
        <pt x="247" y="352" on="1"/>
        <pt x="212" y="337" on="0"/>
        <pt x="152" y="298" on="0"/>
        <pt x="116" y="244" on="0"/>
      </contour>
    </TTGlyph>
    <TTGlyph name="aogonek" xMin="45" yMin="-172" xMax="629" yMax="540">
      <contour>
        <pt x="470" y="-172" on="1"/>
        <pt x="417" y="-172" on="0"/>
        <pt x="361" y="-128" on="0"/>
        <pt x="361" y="-92" on="1"/>
        <pt x="361" y="-58" on="0"/>
        <pt x="403" y="-13" on="0"/>
        <pt x="426" y="0" on="1"/>
        <pt x="401" y="0" on="1"/>
        <pt x="416" y="72" on="1"/>
        <pt x="411" y="72" on="1"/>
        <pt x="411" y="72" on="0"/>
        <pt x="392" y="47" on="0"/>
        <pt x="353" y="15" on="0"/>
        <pt x="291" y="-10" on="0"/>
        <pt x="248" y="-10" on="1"/>
        <pt x="180" y="-10" on="0"/>
        <pt x="90" y="55" on="0"/>
        <pt x="45" y="161" on="0"/>
        <pt x="45" y="222" on="1"/>
        <pt x="45" y="278" on="0"/>
        <pt x="81" y="391" on="0"/>
        <pt x="153" y="484" on="0"/>
        <pt x="256" y="540" on="0"/>
        <pt x="323" y="540" on="1"/>
        <pt x="377" y="540" on="0"/>
        <pt x="445" y="506" on="0"/>
        <pt x="482" y="460" on="0"/>
        <pt x="489" y="442" on="1"/>
        <pt x="495" y="442" on="1"/>
        <pt x="514" y="530" on="1"/>
        <pt x="629" y="530" on="1"/>
        <pt x="516" y="0" on="1"/>
        <pt x="516" y="0" on="0"/>
        <pt x="495" y="-9" on="0"/>
        <pt x="468" y="-27" on="0"/>
        <pt x="448" y="-53" on="0"/>
        <pt x="448" y="-70" on="1"/>
        <pt x="448" y="-85" on="0"/>
        <pt x="471" y="-104" on="0"/>
        <pt x="497" y="-104" on="1"/>
        <pt x="510" y="-104" on="0"/>
        <pt x="533" y="-100" on="0"/>
        <pt x="533" y="-100" on="1"/>
        <pt x="519" y="-167" on="1"/>
        <pt x="519" y="-167" on="0"/>
        <pt x="492" y="-172" on="0"/>
      </contour>
      <contour>
        <pt x="336" y="445" on="1"/>
        <pt x="294" y="445" on="0"/>
        <pt x="228" y="406" on="0"/>
        <pt x="182" y="341" on="0"/>
        <pt x="157" y="264" on="0"/>
        <pt x="157" y="227" on="1"/>
        <pt x="157" y="189" on="0"/>
        <pt x="183" y="124" on="0"/>
        <pt x="237" y="85" on="0"/>
        <pt x="279" y="85" on="1"/>
        <pt x="321" y="85" on="0"/>
        <pt x="387" y="124" on="0"/>
        <pt x="433" y="188" on="0"/>
        <pt x="457" y="265" on="0"/>
        <pt x="457" y="303" on="1"/>
        <pt x="457" y="341" on="0"/>
        <pt x="432" y="406" on="0"/>
        <pt x="378" y="445" on="0"/>
      </contour>
    </TTGlyph>
    <TTGlyph name="aogonek.ss01" xMin="25" yMin="-172" xMax="533" yMax="540">
      <contour>
        <pt x="407" y="-172" on="1"/>
        <pt x="353" y="-172" on="0"/>
        <pt x="298" y="-128" on="0"/>
        <pt x="298" y="-92" on="1"/>
        <pt x="298" y="-58" on="0"/>
        <pt x="339" y="-13" on="0"/>
        <pt x="363" y="0" on="1"/>
        <pt x="339" y="0" on="1"/>
        <pt x="353" y="63" on="1"/>
        <pt x="345" y="63" on="1"/>
        <pt x="343" y="59" on="0"/>
        <pt x="309" y="24" on="0"/>
        <pt x="242" y="-10" on="0"/>
        <pt x="190" y="-10" on="1"/>
        <pt x="112" y="-10" on="0"/>
        <pt x="25" y="73" on="0"/>
        <pt x="25" y="136" on="1"/>
        <pt x="25" y="180" on="0"/>
        <pt x="71" y="255" on="0"/>
        <pt x="166" y="304" on="0"/>
        <pt x="242" y="307" on="1"/>
        <pt x="406" y="315" on="1"/>
        <pt x="410" y="334" on="1"/>
        <pt x="416" y="361" on="0"/>
        <pt x="405" y="414" on="0"/>
        <pt x="361" y="449" on="0"/>
        <pt x="315" y="449" on="1"/>
        <pt x="276" y="449" on="0"/>
        <pt x="229" y="424" on="0"/>
        <pt x="205" y="392" on="0"/>
        <pt x="197" y="367" on="0"/>
        <pt x="197" y="367" on="1"/>
        <pt x="88" y="367" on="1"/>
        <pt x="88" y="367" on="0"/>
        <pt x="98" y="402" on="0"/>
        <pt x="126" y="453" on="0"/>
        <pt x="178" y="505" on="0"/>
        <pt x="261" y="540" on="0"/>
        <pt x="321" y="540" on="1"/>
        <pt x="398" y="540" on="0"/>
        <pt x="495" y="478" on="0"/>
        <pt x="533" y="377" on="0"/>
        <pt x="521" y="320" on="1"/>
        <pt x="453" y="0" on="1"/>
        <pt x="453" y="0" on="0"/>
        <pt x="432" y="-9" on="0"/>
        <pt x="405" y="-27" on="0"/>
        <pt x="384" y="-53" on="0"/>
        <pt x="384" y="-70" on="1"/>
        <pt x="384" y="-85" on="0"/>
        <pt x="408" y="-104" on="0"/>
        <pt x="433" y="-104" on="1"/>
        <pt x="446" y="-104" on="0"/>
        <pt x="469" y="-100" on="0"/>
        <pt x="469" y="-100" on="1"/>
        <pt x="456" y="-167" on="1"/>
        <pt x="456" y="-167" on="0"/>
        <pt x="429" y="-172" on="0"/>
      </contour>
      <contour>
        <pt x="138" y="145" on="1"/>
        <pt x="138" y="108" on="0"/>
        <pt x="193" y="75" on="0"/>
        <pt x="228" y="75" on="1"/>
        <pt x="284" y="75" on="0"/>
        <pt x="373" y="150" on="0"/>
        <pt x="386" y="212" on="1"/>
        <pt x="390" y="234" on="1"/>
        <pt x="251" y="227" on="1"/>
        <pt x="194" y="224" on="0"/>
        <pt x="138" y="180" on="0"/>
      </contour>
    </TTGlyph>
    <TTGlyph name="approxequal" xMin="122" yMin="161" xMax="458" yMax="514">
      <contour>
        <pt x="354" y="375" on="1"/>
        <pt x="328" y="375" on="0"/>
        <pt x="292" y="396" on="0"/>
        <pt x="265" y="424" on="0"/>
        <pt x="241" y="445" on="0"/>
        <pt x="226" y="445" on="1"/>
        <pt x="210" y="445" on="0"/>
        <pt x="191" y="412" on="0"/>
        <pt x="185" y="381" on="1"/>
        <pt x="122" y="381" on="1"/>
        <pt x="129" y="416" on="0"/>
        <pt x="152" y="477" on="0"/>
        <pt x="194" y="514" on="0"/>
        <pt x="228" y="514" on="1"/>
        <pt x="254" y="514" on="0"/>
        <pt x="290" y="493" on="0"/>
        <pt x="317" y="465" on="0"/>
        <pt x="341" y="444" on="0"/>
        <pt x="355" y="444" on="1"/>
        <pt x="371" y="444" on="0"/>
        <pt x="390" y="479" on="0"/>
        <pt x="395" y="509" on="1"/>
        <pt x="458" y="509" on="1"/>
        <pt x="452" y="474" on="0"/>
        <pt x="428" y="413" on="0"/>
        <pt x="387" y="375" on="0"/>
      </contour>
      <contour>
        <pt x="354" y="161" on="1"/>
        <pt x="328" y="161" on="0"/>
        <pt x="292" y="182" on="0"/>
        <pt x="265" y="210" on="0"/>
        <pt x="241" y="231" on="0"/>
        <pt x="226" y="231" on="1"/>
        <pt x="210" y="231" on="0"/>
        <pt x="191" y="197" on="0"/>
        <pt x="185" y="167" on="1"/>
        <pt x="122" y="167" on="1"/>
        <pt x="129" y="202" on="0"/>
        <pt x="152" y="262" on="0"/>
        <pt x="194" y="299" on="0"/>
        <pt x="228" y="299" on="1"/>
        <pt x="254" y="299" on="0"/>
        <pt x="290" y="278" on="0"/>
        <pt x="317" y="251" on="0"/>
        <pt x="341" y="230" on="0"/>
        <pt x="355" y="230" on="1"/>
        <pt x="371" y="230" on="0"/>
        <pt x="390" y="264" on="0"/>
        <pt x="395" y="294" on="1"/>
        <pt x="458" y="294" on="1"/>
        <pt x="452" y="260" on="0"/>
        <pt x="428" y="199" on="0"/>
        <pt x="387" y="161" on="0"/>
      </contour>
    </TTGlyph>
    <TTGlyph name="aring" xMin="45" yMin="-10" xMax="629" yMax="858">
      <contour>
        <pt x="377" y="597" on="1"/>
        <pt x="341" y="597" on="0"/>
        <pt x="282" y="632" on="0"/>
        <pt x="246" y="692" on="0"/>
        <pt x="246" y="728" on="1"/>
        <pt x="246" y="764" on="0"/>
        <pt x="282" y="823" on="0"/>
        <pt x="341" y="858" on="0"/>
        <pt x="377" y="858" on="1"/>
        <pt x="413" y="858" on="0"/>
        <pt x="473" y="823" on="0"/>
        <pt x="508" y="764" on="0"/>
        <pt x="508" y="728" on="1"/>
        <pt x="508" y="692" on="0"/>
        <pt x="473" y="632" on="0"/>
        <pt x="413" y="597" on="0"/>
      </contour>
      <contour>
        <pt x="377" y="670" on="1"/>
        <pt x="401" y="670" on="0"/>
        <pt x="436" y="704" on="0"/>
        <pt x="436" y="728" on="1"/>
        <pt x="436" y="752" on="0"/>
        <pt x="401" y="786" on="0"/>
        <pt x="377" y="786" on="1"/>
        <pt x="353" y="786" on="0"/>
        <pt x="318" y="752" on="0"/>
        <pt x="318" y="728" on="1"/>
        <pt x="318" y="704" on="0"/>
        <pt x="353" y="670" on="0"/>
      </contour>
      <contour>
        <pt x="323" y="540" on="1"/>
        <pt x="377" y="540" on="0"/>
        <pt x="445" y="506" on="0"/>
        <pt x="482" y="460" on="0"/>
        <pt x="489" y="442" on="1"/>
        <pt x="495" y="442" on="1"/>
        <pt x="514" y="530" on="1"/>
        <pt x="629" y="530" on="1"/>
        <pt x="516" y="0" on="1"/>
        <pt x="401" y="0" on="1"/>
        <pt x="416" y="72" on="1"/>
        <pt x="411" y="72" on="1"/>
        <pt x="411" y="72" on="0"/>
        <pt x="392" y="47" on="0"/>
        <pt x="353" y="15" on="0"/>
        <pt x="291" y="-10" on="0"/>
        <pt x="248" y="-10" on="1"/>
        <pt x="180" y="-10" on="0"/>
        <pt x="90" y="55" on="0"/>
        <pt x="45" y="161" on="0"/>
        <pt x="45" y="222" on="1"/>
        <pt x="45" y="278" on="0"/>
        <pt x="81" y="391" on="0"/>
        <pt x="153" y="484" on="0"/>
        <pt x="256" y="540" on="0"/>
      </contour>
      <contour>
        <pt x="336" y="445" on="1"/>
        <pt x="294" y="445" on="0"/>
        <pt x="228" y="406" on="0"/>
        <pt x="182" y="341" on="0"/>
        <pt x="157" y="264" on="0"/>
        <pt x="157" y="227" on="1"/>
        <pt x="157" y="189" on="0"/>
        <pt x="183" y="124" on="0"/>
        <pt x="237" y="85" on="0"/>
        <pt x="279" y="85" on="1"/>
        <pt x="321" y="85" on="0"/>
        <pt x="387" y="124" on="0"/>
        <pt x="433" y="188" on="0"/>
        <pt x="457" y="265" on="0"/>
        <pt x="457" y="303" on="1"/>
        <pt x="457" y="341" on="0"/>
        <pt x="432" y="406" on="0"/>
        <pt x="378" y="445" on="0"/>
      </contour>
    </TTGlyph>
    <TTGlyph name="aring.ss01" xMin="25" yMin="-10" xMax="533" yMax="858">
      <contour>
        <pt x="345" y="597" on="1"/>
        <pt x="309" y="597" on="0"/>
        <pt x="249" y="632" on="0"/>
        <pt x="213" y="692" on="0"/>
        <pt x="213" y="728" on="1"/>
        <pt x="213" y="764" on="0"/>
        <pt x="249" y="823" on="0"/>
        <pt x="309" y="858" on="0"/>
        <pt x="345" y="858" on="1"/>
        <pt x="381" y="858" on="0"/>
        <pt x="440" y="823" on="0"/>
        <pt x="475" y="764" on="0"/>
        <pt x="475" y="728" on="1"/>
        <pt x="475" y="692" on="0"/>
        <pt x="440" y="632" on="0"/>
        <pt x="381" y="597" on="0"/>
      </contour>
      <contour>
        <pt x="345" y="670" on="1"/>
        <pt x="369" y="670" on="0"/>
        <pt x="403" y="704" on="0"/>
        <pt x="403" y="728" on="1"/>
        <pt x="403" y="752" on="0"/>
        <pt x="369" y="786" on="0"/>
        <pt x="345" y="786" on="1"/>
        <pt x="320" y="786" on="0"/>
        <pt x="286" y="752" on="0"/>
        <pt x="286" y="728" on="1"/>
        <pt x="286" y="704" on="0"/>
        <pt x="320" y="670" on="0"/>
      </contour>
      <contour>
        <pt x="345" y="63" on="1"/>
        <pt x="343" y="59" on="0"/>
        <pt x="309" y="24" on="0"/>
        <pt x="242" y="-10" on="0"/>
        <pt x="190" y="-10" on="1"/>
        <pt x="112" y="-10" on="0"/>
        <pt x="25" y="73" on="0"/>
        <pt x="25" y="136" on="1"/>
        <pt x="25" y="180" on="0"/>
        <pt x="71" y="255" on="0"/>
        <pt x="166" y="304" on="0"/>
        <pt x="242" y="307" on="1"/>
        <pt x="406" y="315" on="1"/>
        <pt x="410" y="334" on="1"/>
        <pt x="416" y="361" on="0"/>
        <pt x="405" y="414" on="0"/>
        <pt x="361" y="449" on="0"/>
        <pt x="315" y="449" on="1"/>
        <pt x="276" y="449" on="0"/>
        <pt x="229" y="424" on="0"/>
        <pt x="205" y="392" on="0"/>
        <pt x="197" y="367" on="0"/>
        <pt x="197" y="367" on="1"/>
        <pt x="88" y="367" on="1"/>
        <pt x="88" y="367" on="0"/>
        <pt x="98" y="402" on="0"/>
        <pt x="126" y="453" on="0"/>
        <pt x="178" y="505" on="0"/>
        <pt x="261" y="540" on="0"/>
        <pt x="321" y="540" on="1"/>
        <pt x="398" y="540" on="0"/>
        <pt x="495" y="478" on="0"/>
        <pt x="533" y="377" on="0"/>
        <pt x="521" y="320" on="1"/>
        <pt x="453" y="0" on="1"/>
        <pt x="339" y="0" on="1"/>
        <pt x="353" y="63" on="1"/>
      </contour>
      <contour>
        <pt x="138" y="145" on="1"/>
        <pt x="138" y="108" on="0"/>
        <pt x="193" y="75" on="0"/>
        <pt x="228" y="75" on="1"/>
        <pt x="284" y="75" on="0"/>
        <pt x="373" y="150" on="0"/>
        <pt x="386" y="212" on="1"/>
        <pt x="390" y="234" on="1"/>
        <pt x="251" y="227" on="1"/>
        <pt x="194" y="224" on="0"/>
        <pt x="138" y="180" on="0"/>
      </contour>
    </TTGlyph>
    <TTGlyph name="asciicircum" xMin="162" yMin="569" xMax="503" yMax="740">
      <contour>
        <pt x="162" y="569" on="1"/>
        <pt x="321" y="740" on="1"/>
        <pt x="416" y="740" on="1"/>
        <pt x="503" y="569" on="1"/>
        <pt x="413" y="569" on="1"/>
        <pt x="361" y="675" on="1"/>
        <pt x="265" y="569" on="1"/>
      </contour>
    </TTGlyph>
    <TTGlyph name="asciitilde" xMin="96" yMin="317" xMax="432" yMax="455">
      <contour>
        <pt x="327" y="317" on="1"/>
        <pt x="302" y="317" on="0"/>
        <pt x="266" y="338" on="0"/>
        <pt x="239" y="366" on="0"/>
        <pt x="215" y="387" on="0"/>
        <pt x="200" y="387" on="1"/>
        <pt x="184" y="387" on="0"/>
        <pt x="164" y="353" on="0"/>
        <pt x="159" y="323" on="1"/>
        <pt x="96" y="323" on="1"/>
        <pt x="103" y="358" on="0"/>
        <pt x="126" y="418" on="0"/>
        <pt x="167" y="455" on="0"/>
        <pt x="201" y="455" on="1"/>
        <pt x="228" y="455" on="0"/>
        <pt x="264" y="434" on="0"/>
        <pt x="291" y="407" on="0"/>
        <pt x="315" y="386" on="0"/>
        <pt x="329" y="386" on="1"/>
        <pt x="345" y="386" on="0"/>
        <pt x="363" y="420" on="0"/>
        <pt x="369" y="450" on="1"/>
        <pt x="432" y="450" on="1"/>
        <pt x="425" y="416" on="0"/>
        <pt x="402" y="355" on="0"/>
        <pt x="361" y="317" on="0"/>
      </contour>
    </TTGlyph>
    <TTGlyph name="asterisk" xMin="102" yMin="339" xMax="524" yMax="740">
      <contour>
        <pt x="226" y="339" on="1"/>
        <pt x="156" y="389" on="1"/>
        <pt x="246" y="510" on="1"/>
        <pt x="102" y="555" on="1"/>
        <pt x="128" y="638" on="1"/>
        <pt x="272" y="589" on="1"/>
        <pt x="269" y="740" on="1"/>
        <pt x="356" y="740" on="1"/>
        <pt x="354" y="589" on="1"/>
        <pt x="498" y="638" on="1"/>
        <pt x="524" y="555" on="1"/>
        <pt x="380" y="510" on="1"/>
        <pt x="470" y="389" on="1"/>
        <pt x="400" y="339" on="1"/>
        <pt x="313" y="461" on="1"/>
      </contour>
    </TTGlyph>
    <TTGlyph name="at" xMin="49" yMin="-139" xMax="955" yMax="756">
      <contour>
        <pt x="483" y="-139" on="1"/>
        <pt x="372" y="-139" on="0"/>
        <pt x="208" y="-71" on="0"/>
        <pt x="101" y="46" on="0"/>
        <pt x="49" y="193" on="0"/>
        <pt x="49" y="272" on="1"/>
        <pt x="49" y="360" on="0"/>
        <pt x="112" y="532" on="0"/>
        <pt x="235" y="672" on="0"/>
        <pt x="417" y="756" on="0"/>
        <pt x="536" y="756" on="1"/>
        <pt x="646" y="756" on="0"/>
        <pt x="805" y="688" on="0"/>
        <pt x="907" y="575" on="0"/>
        <pt x="955" y="438" on="0"/>
        <pt x="955" y="369" on="1"/>
        <pt x="955" y="313" on="0"/>
        <pt x="925" y="209" on="0"/>
        <pt x="867" y="128" on="0"/>
        <pt x="785" y="81" on="0"/>
        <pt x="733" y="81" on="1"/>
        <pt x="689" y="81" on="0"/>
        <pt x="636" y="108" on="0"/>
        <pt x="609" y="142" on="0"/>
        <pt x="599" y="169" on="0"/>
        <pt x="599" y="169" on="1"/>
        <pt x="592" y="169" on="1"/>
        <pt x="592" y="169" on="0"/>
        <pt x="575" y="142" on="0"/>
        <pt x="538" y="108" on="0"/>
        <pt x="480" y="81" on="0"/>
        <pt x="440" y="81" on="1"/>
        <pt x="384" y="81" on="0"/>
        <pt x="311" y="133" on="0"/>
        <pt x="276" y="218" on="0"/>
        <pt x="276" y="266" on="1"/>
        <pt x="276" y="311" on="0"/>
        <pt x="305" y="401" on="0"/>
        <pt x="360" y="476" on="0"/>
        <pt x="440" y="521" on="0"/>
        <pt x="490" y="521" on="1"/>
        <pt x="527" y="521" on="0"/>
        <pt x="576" y="498" on="0"/>
        <pt x="605" y="468" on="0"/>
        <pt x="617" y="445" on="0"/>
        <pt x="617" y="445" on="1"/>
        <pt x="623" y="445" on="1"/>
        <pt x="637" y="513" on="1"/>
        <pt x="738" y="513" on="1"/>
        <pt x="694" y="307" on="1"/>
        <pt x="686" y="271" on="0"/>
        <pt x="684" y="205" on="0"/>
        <pt x="708" y="165" on="0"/>
        <pt x="739" y="165" on="1"/>
        <pt x="773" y="165" on="0"/>
        <pt x="827" y="222" on="0"/>
        <pt x="859" y="314" on="0"/>
        <pt x="859" y="368" on="1"/>
        <pt x="859" y="421" on="0"/>
        <pt x="823" y="526" on="0"/>
        <pt x="747" y="613" on="0"/>
        <pt x="624" y="666" on="0"/>
        <pt x="537" y="666" on="1"/>
        <pt x="440" y="666" on="0"/>
        <pt x="293" y="597" on="0"/>
        <pt x="196" y="483" on="0"/>
        <pt x="147" y="344" on="0"/>
        <pt x="147" y="274" on="1"/>
        <pt x="147" y="211" on="0"/>
        <pt x="187" y="95" on="0"/>
        <pt x="269" y="4" on="0"/>
        <pt x="396" y="-49" on="0"/>
        <pt x="482" y="-49" on="1"/>
        <pt x="532" y="-49" on="0"/>
        <pt x="621" y="-32" on="0"/>
        <pt x="688" y="-10" on="0"/>
        <pt x="726" y="7" on="0"/>
        <pt x="726" y="7" on="1"/>
        <pt x="758" y="-77" on="1"/>
        <pt x="758" y="-77" on="0"/>
        <pt x="718" y="-96" on="0"/>
        <pt x="645" y="-120" on="0"/>
        <pt x="544" y="-139" on="0"/>
      </contour>
      <contour>
        <pt x="464" y="164" on="1"/>
        <pt x="504" y="164" on="0"/>
        <pt x="563" y="214" on="0"/>
        <pt x="594" y="290" on="0"/>
        <pt x="594" y="329" on="1"/>
        <pt x="594" y="372" on="0"/>
        <pt x="551" y="437" on="0"/>
        <pt x="504" y="437" on="1"/>
        <pt x="463" y="437" on="0"/>
        <pt x="404" y="387" on="0"/>
        <pt x="373" y="311" on="0"/>
        <pt x="373" y="273" on="1"/>
        <pt x="373" y="229" on="0"/>
        <pt x="417" y="164" on="0"/>
      </contour>
    </TTGlyph>
    <TTGlyph name="atilde" xMin="45" yMin="-10" xMax="629" yMax="758">
      <contour>
        <pt x="469" y="615" on="1"/>
        <pt x="443" y="615" on="0"/>
        <pt x="406" y="636" on="0"/>
        <pt x="379" y="663" on="0"/>
        <pt x="354" y="684" on="0"/>
        <pt x="340" y="684" on="1"/>
        <pt x="325" y="684" on="0"/>
        <pt x="305" y="651" on="0"/>
        <pt x="300" y="621" on="1"/>
        <pt x="232" y="621" on="1"/>
        <pt x="243" y="680" on="0"/>
        <pt x="291" y="758" on="0"/>
        <pt x="341" y="758" on="1"/>
        <pt x="368" y="758" on="0"/>
        <pt x="405" y="738" on="0"/>
        <pt x="433" y="711" on="0"/>
        <pt x="457" y="691" on="0"/>
        <pt x="470" y="691" on="1"/>
        <pt x="486" y="691" on="0"/>
        <pt x="504" y="723" on="0"/>
        <pt x="510" y="753" on="1"/>
        <pt x="578" y="753" on="1"/>
        <pt x="566" y="694" on="0"/>
        <pt x="519" y="615" on="0"/>
      </contour>
      <contour>
        <pt x="323" y="540" on="1"/>
        <pt x="377" y="540" on="0"/>
        <pt x="445" y="506" on="0"/>
        <pt x="482" y="460" on="0"/>
        <pt x="489" y="442" on="1"/>
        <pt x="495" y="442" on="1"/>
        <pt x="514" y="530" on="1"/>
        <pt x="629" y="530" on="1"/>
        <pt x="516" y="0" on="1"/>
        <pt x="401" y="0" on="1"/>
        <pt x="416" y="72" on="1"/>
        <pt x="411" y="72" on="1"/>
        <pt x="411" y="72" on="0"/>
        <pt x="392" y="47" on="0"/>
        <pt x="353" y="15" on="0"/>
        <pt x="291" y="-10" on="0"/>
        <pt x="248" y="-10" on="1"/>
        <pt x="180" y="-10" on="0"/>
        <pt x="90" y="55" on="0"/>
        <pt x="45" y="161" on="0"/>
        <pt x="45" y="222" on="1"/>
        <pt x="45" y="278" on="0"/>
        <pt x="81" y="391" on="0"/>
        <pt x="153" y="484" on="0"/>
        <pt x="256" y="540" on="0"/>
      </contour>
      <contour>
        <pt x="336" y="445" on="1"/>
        <pt x="294" y="445" on="0"/>
        <pt x="228" y="406" on="0"/>
        <pt x="182" y="341" on="0"/>
        <pt x="157" y="264" on="0"/>
        <pt x="157" y="227" on="1"/>
        <pt x="157" y="189" on="0"/>
        <pt x="183" y="124" on="0"/>
        <pt x="237" y="85" on="0"/>
        <pt x="279" y="85" on="1"/>
        <pt x="321" y="85" on="0"/>
        <pt x="387" y="124" on="0"/>
        <pt x="433" y="188" on="0"/>
        <pt x="457" y="265" on="0"/>
        <pt x="457" y="303" on="1"/>
        <pt x="457" y="341" on="0"/>
        <pt x="432" y="406" on="0"/>
        <pt x="378" y="445" on="0"/>
      </contour>
    </TTGlyph>
    <TTGlyph name="atilde.ss01" xMin="25" yMin="-10" xMax="545" yMax="758">
      <contour>
        <pt x="436" y="615" on="1"/>
        <pt x="410" y="615" on="0"/>
        <pt x="374" y="636" on="0"/>
        <pt x="346" y="663" on="0"/>
        <pt x="322" y="684" on="0"/>
        <pt x="308" y="684" on="1"/>
        <pt x="292" y="684" on="0"/>
        <pt x="273" y="651" on="0"/>
        <pt x="267" y="621" on="1"/>
        <pt x="199" y="621" on="1"/>
        <pt x="211" y="680" on="0"/>
        <pt x="258" y="758" on="0"/>
        <pt x="309" y="758" on="1"/>
        <pt x="336" y="758" on="0"/>
        <pt x="373" y="738" on="0"/>
        <pt x="400" y="711" on="0"/>
        <pt x="424" y="691" on="0"/>
        <pt x="438" y="691" on="1"/>
        <pt x="454" y="691" on="0"/>
        <pt x="472" y="723" on="0"/>
        <pt x="477" y="753" on="1"/>
        <pt x="545" y="753" on="1"/>
        <pt x="534" y="694" on="0"/>
        <pt x="486" y="615" on="0"/>
      </contour>
      <contour>
        <pt x="345" y="63" on="1"/>
        <pt x="343" y="59" on="0"/>
        <pt x="309" y="24" on="0"/>
        <pt x="242" y="-10" on="0"/>
        <pt x="190" y="-10" on="1"/>
        <pt x="112" y="-10" on="0"/>
        <pt x="25" y="73" on="0"/>
        <pt x="25" y="136" on="1"/>
        <pt x="25" y="180" on="0"/>
        <pt x="71" y="255" on="0"/>
        <pt x="166" y="304" on="0"/>
        <pt x="242" y="307" on="1"/>
        <pt x="406" y="315" on="1"/>
        <pt x="410" y="334" on="1"/>
        <pt x="416" y="361" on="0"/>
        <pt x="405" y="414" on="0"/>
        <pt x="361" y="449" on="0"/>
        <pt x="315" y="449" on="1"/>
        <pt x="276" y="449" on="0"/>
        <pt x="229" y="424" on="0"/>
        <pt x="205" y="392" on="0"/>
        <pt x="197" y="367" on="0"/>
        <pt x="197" y="367" on="1"/>
        <pt x="88" y="367" on="1"/>
        <pt x="88" y="367" on="0"/>
        <pt x="98" y="402" on="0"/>
        <pt x="126" y="453" on="0"/>
        <pt x="178" y="505" on="0"/>
        <pt x="261" y="540" on="0"/>
        <pt x="321" y="540" on="1"/>
        <pt x="398" y="540" on="0"/>
        <pt x="495" y="478" on="0"/>
        <pt x="533" y="377" on="0"/>
        <pt x="521" y="320" on="1"/>
        <pt x="453" y="0" on="1"/>
        <pt x="339" y="0" on="1"/>
        <pt x="353" y="63" on="1"/>
      </contour>
      <contour>
        <pt x="138" y="145" on="1"/>
        <pt x="138" y="108" on="0"/>
        <pt x="193" y="75" on="0"/>
        <pt x="228" y="75" on="1"/>
        <pt x="284" y="75" on="0"/>
        <pt x="373" y="150" on="0"/>
        <pt x="386" y="212" on="1"/>
        <pt x="390" y="234" on="1"/>
        <pt x="251" y="227" on="1"/>
        <pt x="194" y="224" on="0"/>
        <pt x="138" y="180" on="0"/>
      </contour>
    </TTGlyph>
    <TTGlyph name="b" xMin="24" yMin="-10" xMax="609" yMax="760">
      <contour>
        <pt x="330" y="-10" on="1"/>
        <pt x="276" y="-10" on="0"/>
        <pt x="208" y="24" on="0"/>
        <pt x="171" y="70" on="0"/>
        <pt x="164" y="88" on="1"/>
        <pt x="158" y="88" on="1"/>
        <pt x="139" y="0" on="1"/>
        <pt x="24" y="0" on="1"/>
        <pt x="187" y="760" on="1"/>
        <pt x="302" y="760" on="1"/>
        <pt x="237" y="458" on="1"/>
        <pt x="243" y="458" on="1"/>
        <pt x="243" y="458" on="0"/>
        <pt x="261" y="483" on="0"/>
        <pt x="300" y="515" on="0"/>
        <pt x="362" y="540" on="0"/>
        <pt x="406" y="540" on="1"/>
        <pt x="474" y="540" on="0"/>
        <pt x="564" y="475" on="0"/>
        <pt x="609" y="369" on="0"/>
        <pt x="609" y="308" on="1"/>
        <pt x="609" y="252" on="0"/>
        <pt x="572" y="139" on="0"/>
        <pt x="501" y="46" on="0"/>
        <pt x="397" y="-10" on="0"/>
      </contour>
      <contour>
        <pt x="317" y="85" on="1"/>
        <pt x="359" y="85" on="0"/>
        <pt x="425" y="124" on="0"/>
        <pt x="472" y="189" on="0"/>
        <pt x="496" y="266" on="0"/>
        <pt x="496" y="303" on="1"/>
        <pt x="496" y="341" on="0"/>
        <pt x="470" y="406" on="0"/>
        <pt x="417" y="445" on="0"/>
        <pt x="374" y="445" on="1"/>
        <pt x="333" y="445" on="0"/>
        <pt x="267" y="406" on="0"/>
        <pt x="220" y="342" on="0"/>
        <pt x="196" y="265" on="0"/>
        <pt x="196" y="227" on="1"/>
        <pt x="196" y="189" on="0"/>
        <pt x="222" y="124" on="0"/>
        <pt x="275" y="85" on="0"/>
      </contour>
    </TTGlyph>
    <TTGlyph name="backslash" xMin="136" yMin="-161" xMax="374" yMax="826">
      <contour>
        <pt x="374" y="-161" on="1"/>
        <pt x="274" y="-161" on="1"/>
        <pt x="136" y="826" on="1"/>
        <pt x="236" y="826" on="1"/>
      </contour>
    </TTGlyph>
    <TTGlyph name="bar" xMin="53" yMin="-229" xMax="405" yMax="952">
      <contour>
        <pt x="53" y="-229" on="1"/>
        <pt x="304" y="952" on="1"/>
        <pt x="405" y="952" on="1"/>
        <pt x="154" y="-229" on="1"/>
      </contour>
    </TTGlyph>
    <TTGlyph name="braceleft" xMin="33" yMin="-204" xMax="537" yMax="841">
      <contour>
        <pt x="220" y="-204" on="1"/>
        <pt x="129" y="-204" on="0"/>
        <pt x="60" y="-103" on="0"/>
        <pt x="75" y="-27" on="1"/>
        <pt x="125" y="205" on="1"/>
        <pt x="139" y="270" on="0"/>
        <pt x="74" y="270" on="1"/>
        <pt x="33" y="270" on="1"/>
        <pt x="54" y="367" on="1"/>
        <pt x="94" y="367" on="1"/>
        <pt x="160" y="367" on="0"/>
        <pt x="174" y="434" on="1"/>
        <pt x="226" y="678" on="1"/>
        <pt x="242" y="757" on="0"/>
        <pt x="338" y="841" on="0"/>
        <pt x="417" y="841" on="1"/>
        <pt x="537" y="841" on="1"/>
        <pt x="516" y="742" on="1"/>
        <pt x="420" y="742" on="1"/>
        <pt x="384" y="742" on="0"/>
        <pt x="348" y="707" on="0"/>
        <pt x="340" y="671" on="1"/>
        <pt x="290" y="434" on="1"/>
        <pt x="280" y="389" on="0"/>
        <pt x="241" y="336" on="0"/>
        <pt x="196" y="321" on="1"/>
        <pt x="195" y="316" on="1"/>
        <pt x="235" y="301" on="0"/>
        <pt x="249" y="237" on="0"/>
        <pt x="240" y="195" on="1"/>
        <pt x="189" y="-40" on="1"/>
        <pt x="182" y="-73" on="0"/>
        <pt x="212" y="-105" on="0"/>
        <pt x="242" y="-105" on="1"/>
        <pt x="335" y="-105" on="1"/>
        <pt x="315" y="-204" on="1"/>
      </contour>
    </TTGlyph>
</ttFont>
